<svg version="1.1" xmlns="http://www.w3.org/2000/svg" xmlns:xlink="http://www.w3.org/1999/xlink" width="482.43107" height="356.76103" viewBox="0,0,482.43107,356.76103"><g transform="translate(1.6429,-0.00399)"><g data-paper-data="{&quot;isPaintingLayer&quot;:true}" fill-rule="nonzero" stroke-linecap="butt" stroke-linejoin="miter" stroke-miterlimit="10" stroke-dasharray="" stroke-dashoffset="0" style="mix-blend-mode: normal"><path d="M-1.6429,356.76501v-356.76102h482.43107v356.76103z" fill="#003484" stroke="none" stroke-width="NaN"/><path d="M256.19534,171.3855c1.46101,-0.29948 1.76049,1.16152 1.76049,1.16152l0.0186,0.09074c0.27148,1.40717 0.67104,2.462 1.20606,3.42141c-0.00317,-1.66831 -0.00133,-3.62513 -0.00118,-3.80922c0.00156,-1.86647 -0.1733,-4.80401 0.62975,-6.55449c0.47006,-1.02463 1.42578,-1.74669 2.15368,-2.60749c0.44617,-0.52764 0.80399,-1.1584 1.36816,-1.55737c5.81445,-4.11181 13.2291,-3.89424 19.97603,-3.89577c3.59024,-0.00063 7.18049,-0.00239 10.77072,-0.00042c2.00391,0.00109 4.79773,0.23963 6.68071,-0.5179c1.75237,-0.70499 3.24751,-1.9301 4.87936,-2.88135c4.96126,-2.89206 9.15762,-6.76106 12.99043,-11.02888c2.977,-3.31488 5.55967,-6.84694 8.8672,-9.85945c3.47607,-3.16007 6.88727,-6.07467 11.34376,-7.81032c4.69716,-1.82938 9.34211,-1.90561 14.29727,-1.90561c4.16369,0 8.15012,0.04163 12.21607,1.11669c1.85718,0.49105 3.56983,1.46025 5.43777,1.90864c4.90391,1.17717 9.66567,2.03861 14.49134,3.63329c3.23867,1.38626 6.51828,2.66024 9.76487,4.02522c3.60594,1.51606 6.92901,3.09591 10.88234,3.54312c2.84409,0.32173 5.92083,0.08319 8.78179,0.08674c8.53388,0.01058 17.14186,-0.33125 25.6608,0.19714c1.28411,1.92097 2.67487,3.4767 3.11774,5.79803c0.50411,2.64227 0.02505,5.93769 0.02505,8.62394c0,2.96006 0.31382,6.17107 -0.00891,9.11103c-0.01172,0.10677 -1.27582,5.78224 -1.32071,5.98426c-0.61687,2.77593 -1.04624,5.46451 -2.32899,8.04151c-0.33456,0.67212 -2.9341,3.37355 -2.38346,4.42957c0.6551,1.25634 2.02849,1.9822 3.10999,2.89758c0.75457,0.63868 1.32595,1.47822 2.09583,2.09836c1.1403,0.9185 3.7267,2.21122 4.97205,2.87346c2.05325,1.30785 4.02618,2.79231 6.27804,3.75197c2.53707,1.0812 5.22089,1.89666 7.75519,2.98276c2.84225,1.21808 5.65532,2.84775 8.72021,3.50569c2.43193,0.52206 5.33444,-0.07575 7.65225,0.57605c1.01418,0.2852 2.45274,0.37814 2.8573,1.35088c1.30462,3.13684 -1.58328,4.90677 -3.50605,6.16218c-3.2078,2.09443 -6.96171,3.19232 -10.5651,4.35441c-4.90083,0.87073 -9.90155,2.24566 -14.83069,2.8324c-3.96631,0.47212 -8.0504,-0.00608 -12.03112,0.19171c-3.96688,0.1971 -7.90457,0.95259 -11.86996,1.16134c-7.29176,0.38386 -14.56942,0.63116 -21.88043,0.63116c-6.66175,0 -13.36783,0.01233 -19.95005,-1.21662c-3.33856,-0.62334 -6.6533,-2.03363 -10.04034,-2.3716c-1.56404,-0.15606 -3.14966,0.14295 -4.71541,0.00515c-6.78541,-0.59713 -13.57688,-1.63978 -20.35193,-2.39274c-5.55183,-0.69392 -11.07366,-1.12303 -16.62842,-1.6103c-2.76915,-0.24291 -5.68808,0.15904 -8.43417,-0.18024c-6.11639,-0.7557 -11.76296,-3.83306 -18.13112,-2.98247c-1.74994,0.23374 -3.30917,1.25516 -5.0223,1.68196c-0.68085,0.16962 -1.40915,-0.00478 -2.10245,0.10319c-1.3998,0.218 -2.79067,0.60076 -4.20734,0.60076c-2.25789,0.56447 -4.29988,0.20731 -6.50541,0.58847c-0.61964,0.10709 -1.16553,0.51986 -1.78966,0.59655c-0.0108,0.00132 -4.26276,0.0312 -5.01132,0.01926c-0.74082,-0.01182 -1.52001,0.1735 -2.22184,-0.06399c-2.47143,-0.8363 -5.01534,-3.91568 -6.23693,-6.0657c-0.47974,-0.84434 -0.59839,-1.86114 -1.0719,-2.70899c-0.89312,-1.59918 -3.11509,-3.44141 -4.19004,-4.88203c-0.64223,-0.86071 -1.38278,-1.65762 -1.91759,-2.58888c-0.29595,-0.51534 -0.24551,-1.18397 -0.54416,-1.69775c-0.91168,-1.56837 -2.99436,-2.55715 -4.08274,-4.04212c-1.15457,-1.57526 -2.19028,-3.25555 -3.53112,-4.67564c-0.72825,-0.92142 -3.35296,-4.13157 -3.80073,-5.16708c-0.4347,-1.0053 -0.46016,-2.14165 -0.69023,-3.21248l-0.0186,-0.09074c0,0 -0.29948,-1.46101 1.16152,-1.76049z" fill="#828282" stroke="#6b6b6b" stroke-width="5"/></g></g></svg>