<svg version="1.1" xmlns="http://www.w3.org/2000/svg" xmlns:xlink="http://www.w3.org/1999/xlink" width="805.52829" height="722.81051" viewBox="0,0,805.52829,722.81051"><g transform="translate(210.89669,205.2559)"><g data-paper-data="{&quot;isPaintingLayer&quot;:true}" stroke-miterlimit="10" stroke-dasharray="" stroke-dashoffset="0" style="mix-blend-mode: normal"><path d="M28.53199,517.55462l-239.42867,-399.04244l539.60623,-323.76807l239.42868,399.04245z" fill="#003484" fill-rule="nonzero" stroke="none" stroke-width="NaN" stroke-linecap="butt" stroke-linejoin="miter"/><g fill-rule="nonzero" stroke-linecap="butt" stroke-linejoin="miter"><path d="M355.13765,147.51083l1.25959,-56.22275l27.90001,0.62506l-1.25959,56.22276z" data-paper-data="{&quot;index&quot;:null}" fill="#000000" stroke="none" stroke-width="0"/><path d="M291.88849,194.58834l-45.42267,-33.15669l16.4537,-22.54057l45.42266,33.15669z" fill="#000000" stroke="none" stroke-width="0"/><g stroke-width="2.5"><path d="M280.29061,87.39118l-22.08925,-44.70532l33.53561,-16.57021l22.08925,44.70532z" fill="#5d3500" stroke="#512a00"/><path d="M352.83783,66.47126c3.46549,7.01362 -21.45268,17.59583 -44.79653,29.13021c-15.01691,7.41997 -35.63336,17.03759 -44.88295,17.19657c-5.12893,0.08815 -6.02009,-5.40367 -3.65961,-9.01103c0.57011,-0.87126 1.11681,-1.70945 1.64176,-2.51619c16.08389,-24.7177 11.74517,-19.8981 34.35119,-31.06791c12.0431,-5.9506 31.20793,-6.9345 40.10653,-8.31039c8.35007,-1.29107 15.56198,1.18346 17.23962,4.57875z" fill="#ff8700" stroke="#d36e00"/></g><g stroke="#d36e00" stroke-width="2.5"><path d="M442.40304,172.85147c17.27943,34.97098 -7.35368,82.41332 -55.01957,105.9654c-47.66593,23.5521 -100.31449,14.29526 -117.59393,-20.67572c-9.34765,-18.91825 -14.52776,-45.53702 -0.35457,-68.60551c14.17318,-23.06849 37.98947,-17.45078 59.86953,-28.26189c23.0798,-11.40392 47.46917,-30.10191 67.21736,-29.1276c21.03705,1.03789 36.96845,22.66726 45.88119,40.70532z" data-paper-data="{&quot;index&quot;:null}" fill="#ff8700"/><path d="M421.14754,180.73565c16.16048,32.70638 -0.96255,74.15392 -38.24534,92.57564c-37.2828,18.42172 -80.60717,6.84175 -96.76766,-25.86465c-16.16048,-32.70638 0.96254,-74.15392 38.24539,-92.57566c37.2828,-18.42173 80.60714,-6.84173 96.76762,25.86468z" fill="#ff8700"/><path d="M404.62102,191.51986c16.16048,32.70638 7.5359,69.95476 -19.26357,83.19659c-26.79947,13.24183 -61.62536,-2.53731 -77.78584,-35.24371c-12.07266,-24.43324 -10.31324,-51.40131 2.5224,-69.00189c4.34616,-5.95957 38.68334,-19.7868 48.40661,-17.59276c18.33299,4.13681 35.93441,18.02685 46.12041,38.64177z" fill="#ff8700"/><path d="M313.62899,255.57268c-0.28236,-0.48531 -0.49956,-1.08388 -0.61565,-1.82136c-0.71304,-4.53087 3.81782,-5.24391 3.81782,-5.24391c8.22582,-1.29151 16.30008,-3.30574 24.558,-4.42569c4.11183,-0.55766 9.653,-0.30711 13.59544,-1.55342c2.22431,-0.70317 2.51265,-3.20419 3.22941,-4.97785c1.48656,-3.67864 3.07525,-12.26707 5.77548,-14.88112c6.30659,-6.1054 19.29423,-1.65877 27.05539,-1.02602c4.0928,-0.00066 5.32071,-4.24588 7.56277,-7.64945c2.69778,-4.09536 5.24226,-8.48079 8.22889,-12.36974c1.7313,-2.25438 2.68438,-6.47615 5.52679,-6.49393c3.37482,-0.0211 6.05766,3.5425 7.83682,6.41034c1.28499,2.0713 0.49968,4.85049 0.65808,7.28285c0.3868,5.93936 0.08844,11.76632 -0.41911,17.68499c-0.53017,6.18266 -2.2697,16.53094 -6.88726,21.19245c-5.04069,5.08866 -17.56591,6.28636 -24.4432,6.78369c-5.52774,5.66124 -9.04329,13.30867 -14.0458,19.4939c-1.41582,1.75058 -2.47031,4.01106 -4.45217,5.07938c-6.4178,3.45957 -12.69706,0.29469 -18.31138,-2.37625c-11.15902,-5.30876 -22.90701,-6.85136 -33.76747,-13.05675l-3.63355,-3.28652c0,0 -2.25156,-2.15285 -1.26932,-4.76568z" fill="#000000"/><path d="M374.08681,158.51234c7.53719,2.29521 31.19311,27.87949 31.19311,27.87949l-33.13809,17.16038c0,0 -0.60026,-45.81495 1.94504,-45.03989z" fill="#000000"/><path d="M334.8915,217.74778l-34.91182,13.18252c0,0 -3.22235,-34.69542 0.10744,-41.83613c1.12444,-2.41141 34.80437,28.6536 34.80437,28.6536z" data-paper-data="{&quot;index&quot;:null}" fill="#000000"/></g><path d="M355.49884,107.3514c8.84474,17.90044 -1.46647,41.04924 -23.03073,51.70431c-21.56426,10.65508 -46.21564,4.78154 -55.06038,-13.11889c-8.84474,-17.90043 1.46646,-41.04923 23.03073,-51.70431c21.56426,-10.65507 46.21564,-4.78155 55.06038,13.11888z" fill="#000000" stroke="none" stroke-width="2.5"/><path d="M341.3536,120.13614l-29.78507,-23.00069l27.66844,-41.88274c0,0 7.42433,24.2744 13.47388,39.85706c0.4599,1.18461 -1.14562,24.40586 0.32743,25.54339c1.31088,1.01229 -11.68469,-0.51702 -11.68469,-0.51702z" fill="#000000" stroke="none" stroke-width="0"/><path d="M285.1117,152.83871c0.21965,-1.84814 -17.48042,-16.9647 -18.00395,-18.12261c-6.88644,-15.23135 -19.01436,-37.53113 -19.01436,-37.53113l49.27369,9.58174l-4.44126,37.36919c0,0 -8.0096,10.34746 -7.81414,8.70279z" data-paper-data="{&quot;index&quot;:null}" fill="#000000" stroke="none" stroke-width="0"/><path d="M326.06008,120.36452c1.00861,2.04128 -1.35602,5.26845 -5.28155,7.20808c-3.92554,1.93964 -7.92545,1.85724 -8.93406,-0.18403c-1.00861,-2.04128 1.35602,-5.26844 5.28155,-7.20808c3.92554,-1.93964 7.92545,-1.85725 8.93406,0.18403z" fill="#282828" stroke="none" stroke-width="0"/><path d="M306.8407,115.82987c3.05169,6.17617 0.73095,13.552 -5.18352,16.4744c-5.91447,2.92239 -13.18299,0.28467 -16.23468,-5.8915c-3.05169,-6.17617 -0.73095,-13.55201 5.18352,-16.4744c5.91447,-2.92239 13.18299,-0.28467 16.23468,5.8915z" fill="#ffffff" stroke="none" stroke-width="0"/><path d="M343.139,97.65877c3.05169,6.17617 0.73095,13.55201 -5.18351,16.4744c-5.91447,2.92239 -13.18299,0.28467 -16.23468,-5.8915c-3.05169,-6.17617 -0.73095,-13.55201 5.18352,-16.4744c5.91447,-2.92239 13.18299,-0.28467 16.23468,5.8915z" fill="#ffffff" stroke="none" stroke-width="0"/><path d="M303.77975,119.97559c2.35343,4.76299 0.27281,10.59486 -4.64719,13.02588c-4.92001,2.43102 -10.81628,0.54058 -13.16971,-4.22241c-2.35343,-4.76299 -0.27281,-10.59486 4.6472,-13.02588c4.92001,-2.43102 10.81628,-0.54058 13.16971,4.22241z" fill="#181818" stroke="none" stroke-width="0"/><path d="M340.1108,101.55252c2.35343,4.76299 0.27281,10.59486 -4.6472,13.02588c-4.92001,2.43102 -10.81628,0.54058 -13.16971,-4.22241c-2.35343,-4.76299 -0.27281,-10.59486 4.64719,-13.02587c4.92001,-2.43102 10.81628,-0.54058 13.16971,4.2224z" fill="#181818" stroke="none" stroke-width="0"/><path d="M297.38668,118.96838c0.69826,1.4132 -0.72989,3.54417 -3.18989,4.75968c-2.45999,1.2155 -5.02029,1.05525 -5.71855,-0.35795c-0.69826,-1.4132 0.72989,-3.54418 3.1899,-4.75968c2.45999,-1.2155 5.02029,-1.05524 5.71855,0.35795z" fill="#ffffff" stroke="none" stroke-width="0"/><path d="M333.22785,100.82663c0.67241,1.36086 -0.81916,3.47037 -3.3315,4.71174c-2.51234,1.24137 -5.09409,1.1445 -5.76649,-0.21635c-0.67241,-1.36086 0.81916,-3.47036 3.3315,-4.71173c2.51234,-1.24137 5.09408,-1.14451 5.76649,0.21635z" fill="#ffffff" stroke="none" stroke-width="0"/><path d="M270.3266,136.34832c4.8103,9.73532 0.05403,21.90425 -10.62342,27.18006c-10.67745,5.27581 -23.23275,1.66067 -28.04305,-8.07465c-4.8103,-9.73532 -0.05403,-21.90425 10.62342,-27.18006c10.67745,-5.27581 23.23275,-1.66066 28.04306,8.07466z" fill="#000000" stroke="none" stroke-width="0"/><path d="M393.46171,76.29242c5.12064,10.36342 0.61596,23.0415 -10.06149,28.31731c-10.67745,5.27581 -23.48434,1.15151 -28.60498,-9.21191c-5.12064,-10.36342 -0.61595,-23.0415 10.0615,-28.31731c10.67745,-5.27581 23.48433,-1.15151 28.60497,9.21191z" fill="#000000" stroke="none" stroke-width="0"/><path d="M335.24987,136.86059c2.56032,5.1817 1.41118,10.97565 -2.56671,12.94116c-3.97787,1.9655 -9.27813,-0.64176 -11.83845,-5.82346c-2.56032,-5.1817 -1.41118,-10.97565 2.56671,-12.94116c3.97787,-1.9655 9.27813,0.64176 11.83845,5.82346z" fill="#282828" stroke="none" stroke-width="0"/></g><path d="M-121.26957,184.80942c1.61848,-1.48559 3.10405,0.13291 3.10405,0.13291l0.09227,0.10051c1.4094,1.5717 2.71356,2.60128 4.1165,3.40766c-1.26841,-2.10491 -2.74914,-4.57805 -2.88848,-4.8107c-1.41262,-2.3588 -3.85984,-5.93681 -4.17215,-8.75654c-0.18281,-1.65051 0.47716,-3.28691 0.74419,-4.92589c0.16369,-1.00464 0.1376,-2.07255 0.54786,-3.0041c4.22815,-9.60056 13.75883,-14.94527 22.28,-20.06067c4.53451,-2.72182 9.06817,-5.44507 13.60464,-8.16362c2.53205,-1.51738 6.24183,-3.3335 8.04617,-5.71747c1.67918,-2.21862 2.63925,-4.89926 3.97957,-7.3376c4.0749,-7.4132 6.4432,-15.4807 8.05004,-23.77646c1.24804,-6.44343 1.83339,-12.86231 3.72811,-19.17431c1.99577,-6.62611 4.09565,-12.89302 8.40938,-18.46294c4.54671,-5.87072 10.35617,-9.4874 16.61524,-13.2429c5.25935,-3.15565 10.32632,-6.12437 16.27697,-7.84796c2.71805,-0.78727 5.61592,-0.86106 8.31523,-1.71037c7.08651,-2.22972 13.75417,-4.75051 21.05828,-6.39356c5.14154,-0.70353 10.2497,-1.57991 15.38513,-2.31633c5.70383,-0.81793 11.09871,-1.34089 16.43126,-3.77221c3.83633,-1.74913 7.5419,-4.38228 11.15839,-6.54612c10.78752,-6.45443 21.40155,-13.41017 32.56267,-19.1992c3.0779,1.45323 6.01372,2.36431 8.33246,4.96082c2.63933,2.95551 4.53179,7.48115 6.56769,10.87427c2.24342,3.73898 5.07343,7.5571 6.89396,11.51529c0.06611,0.14374 2.7708,8.27074 2.86719,8.55994c1.32466,3.97392 2.81998,7.6954 3.15278,11.92271c0.0868,1.10255 -1.14938,6.48503 0.3465,7.40159c1.77966,1.09044 4.06458,0.96641 6.12443,1.30302c1.43718,0.23485 2.7952,0.86227 4.23767,1.0621c2.13649,0.29598 6.38324,-0.03137 8.45819,-0.13871c3.58476,0.09585 7.20192,0.47567 10.77367,-0.01883c4.02412,-0.55713 8.0322,-1.56114 12.05653,-2.10996c4.51335,-0.61552 9.30177,-0.68902 13.67182,-2.18083c3.46753,-1.18371 6.68074,-4.13863 10.10247,-5.07199c1.4972,-0.40839 3.38475,-1.38128 4.633,-0.45918c4.02532,2.97352 1.71891,7.3979 0.24165,10.44094c-2.46455,5.07674 -6.37419,9.3086 -10.04505,13.50749c-5.53052,4.81417 -10.8051,10.34094 -16.58661,14.81784c-4.6522,3.60241 -10.1734,6.09369 -15.05173,9.3605c-4.86135,3.25545 -9.26263,7.1941 -14.11329,10.46313c-8.91961,6.01126 -17.9249,11.83936 -27.15976,17.38035c-8.41474,5.04891 -16.87613,10.147 -26.12183,13.58329c-4.68951,1.74291 -9.94535,2.47374 -14.4798,4.61386c-2.09388,0.98825 -3.87013,2.56767 -5.95233,3.5803c-9.0235,4.38837 -18.39232,8.21858 -27.52084,12.40227c-7.53866,3.33119 -14.83875,6.97412 -22.22451,10.56857c-3.68193,1.79189 -7.06432,4.51186 -10.79017,6.16455c-8.29861,3.68103 -17.76336,4.07341 -25.16259,9.97422c-2.03327,1.62151 -3.22867,4.09346 -5.06913,5.93093c-0.73144,0.73027 -1.78359,1.06195 -2.57748,1.72377c-1.60293,1.33627 -3.06969,2.87389 -4.85915,3.94758c-2.42422,2.42425 -5.27425,3.52072 -7.77126,5.67374c-0.70153,0.60488 -1.07823,1.54001 -1.80847,2.10991c-0.01263,0.00986 -5.36082,3.27014 -6.31541,3.82239c-0.94472,0.54653 -1.7885,1.37116 -2.855,1.60309c-3.75559,0.81673 -9.30276,-1.14496 -12.47531,-2.9349c-1.2459,-0.70293 -2.1664,-1.89737 -3.4071,-2.60944c-2.34015,-1.3431 -6.54303,-1.98608 -8.99269,-2.99109c-1.46355,-0.60045 -3.00295,-1.0458 -4.38429,-1.81679c-0.7644,-0.42664 -1.20743,-1.30946 -1.97408,-1.73208c-2.34024,-1.29011 -5.72036,-0.96064 -8.2206,-2.01148c-2.65227,-1.11474 -5.23401,-2.45223 -8.00395,-3.22979c-1.61822,-0.61196 -7.36657,-2.67757 -8.71698,-3.64621c-1.311,-0.94038 -2.2044,-2.35647 -3.30659,-3.53471l-0.09227,-0.10051c0,0 -1.48559,-1.61848 0.1329,-3.10405z" fill="#828282" fill-rule="nonzero" stroke="#6b6b6b" stroke-width="5" stroke-linecap="butt" stroke-linejoin="miter"/><g fill-rule="nonzero" stroke-linejoin="miter"><path d="M86.99394,498.16129c0,0 -210.36217,-96.73579 -204.57936,-99.18633c41.20246,-17.46006 594.22012,-232.65255 594.22012,-232.65255l59.89554,141.34222c0,0 96.54482,122.94059 40.73138,146.59223c-82.97631,35.16225 -490.26768,43.90443 -490.26768,43.90443z" fill="#613700" stroke="none" stroke-width="0" stroke-linecap="butt"/><path d="M325.02531,319.49275l-221.57588,89.86596" fill="none" stroke="#512e00" stroke-width="5" stroke-linecap="round"/><path d="M296.44927,286.70361l176.78641,-82.11103" fill="none" stroke="#512e00" stroke-width="5" stroke-linecap="round"/></g><g fill-rule="nonzero" stroke-width="2.5" stroke-linecap="butt" stroke-linejoin="miter"><path d="M464.83028,199.07398c-0.45792,16.68606 -19.26623,29.70683 -42.00954,29.08269c-22.74333,-0.62413 -40.80921,-14.65682 -40.3513,-31.34288c0.45792,-16.68606 19.26623,-29.70682 42.00953,-29.08268c22.74333,0.62413 40.80921,14.65682 40.3513,31.34288z" data-paper-data="{&quot;index&quot;:null}" fill="#ff8700" stroke="#d36e00"/><path d="M455.21216,197.80513c-0.42826,15.60553 -15.19637,27.86057 -32.98549,27.37239c-17.78913,-0.48818 -31.86291,-13.5347 -31.43464,-29.14024c0.42826,-15.60552 15.19636,-27.86057 32.9855,-27.37239c17.78913,0.48818 31.86289,13.5347 31.43463,29.14025z" fill="#ff8700" stroke="#d36e00"/><path d="M416.2521,171.59974l0.58537,-21.3307l16.00119,0.43912l-0.58537,21.3307z" fill="#5d3500" stroke="#512a00"/><path d="M446.80297,198.57927c-0.42826,15.60553 -11.14141,27.97185 -23.92852,27.62094c-12.7871,-0.35091 -22.80592,-13.28615 -22.37766,-28.89169c0.42826,-15.60552 11.14141,-27.97185 23.92851,-27.62094c12.7871,0.35091 22.80592,13.28615 22.37766,28.8917z" fill="#ff8700" stroke="#d36e00"/><path d="M399.56806,204.61086c-0.00975,-0.24007 0.02781,-0.50997 0.1314,-0.81218c0.63651,-1.85668 2.4932,-1.22017 2.4932,-1.22017c3.37023,1.15674 6.82767,2.00975 10.17573,3.2378c1.66709,0.61148 3.71325,1.81461 5.454,2.13168c0.98212,0.17889 1.59146,-0.7096 2.21738,-1.23722c1.29818,-1.09432 3.61704,-4.02563 5.16143,-4.47446c3.60704,-1.04829 7.63097,3.23169 10.44053,5.02345c1.54847,0.8184 2.86213,-0.54201 4.3911,-1.38115c1.83974,-1.0097 3.67952,-2.15981 5.58725,-3.03365c1.10588,-0.50655 2.31088,-1.91305 3.38974,-1.35125c1.28094,0.66705 1.5831,2.55182 1.68255,3.9926c0.07182,1.04061 -0.78116,1.93493 -1.20775,2.8868c-1.04165,2.32428 -2.32005,4.469 -3.6959,6.60656c-1.43723,2.23291 -4.16516,5.79983 -6.84442,6.63972c-2.92478,0.91685 -7.90273,-1.13533 -10.60394,-2.32279c-3.22355,1.03603 -6.08316,3.22595 -9.21282,4.56529c-0.88577,0.37908 -1.73683,1.02331 -2.70027,1.03106c-3.11989,0.0251 -4.86235,-2.42818 -6.45206,-4.5616c-3.1597,-4.24037 -7.29552,-7.17378 -10.16294,-11.69363l-0.71723,-1.9701c0,0 -0.42118,-1.26479 0.47303,-2.05678z" fill="#000000" stroke="#d36e00"/><path d="M441.85376,179.9848c2.3923,2.37588 6.22419,16.78628 6.22419,16.78628l-15.96885,-0.13634c0,0 8.9368,-17.45228 9.74468,-16.64996z" fill="#000000" stroke="#d36e00"/><path d="M415.17754,194.55426l-15.84422,-1.99598c0,0 5.72073,-13.77012 8.40868,-15.80549c0.90771,-0.68735 7.43553,17.80147 7.43553,17.80147z" data-paper-data="{&quot;index&quot;:null}" fill="#000000" stroke="#d36e00"/></g><g fill-rule="nonzero" stroke-width="2.5" stroke-linecap="butt" stroke-linejoin="miter"><path d="M120.53097,251.68623c13.52175,28.55042 -7.06321,66.63584 -45.97779,85.06618c-38.91461,18.43035 -81.42266,10.22639 -94.94441,-18.32403c-13.52175,-28.55042 7.06321,-66.63585 45.97778,-85.06618c38.91462,-18.43035 81.42266,-10.22639 94.94442,18.32403z" data-paper-data="{&quot;index&quot;:null}" fill="#ff8700" stroke="#d36e00"/><path d="M103.21314,257.78463c12.64613,26.70159 -1.77685,60.03371 -32.21465,74.44936c-30.4378,14.41565 -65.36425,4.45593 -78.0104,-22.24568c-12.64613,-26.70159 1.77685,-60.0337 32.21468,-74.44936c30.4378,-14.41565 65.36423,-4.45592 78.01037,22.24569z" fill="#ff8700" stroke="#d36e00"/><path d="M15.01764,246.9384l-17.2856,-36.49756l27.37858,-12.96677l17.28561,36.49756z" fill="#5d3500" stroke="#512a00"/><path d="M89.68558,266.29491c12.64613,26.70159 5.16131,56.74774 -16.71786,67.10993c-21.87916,10.36219 -49.86744,-2.88351 -62.51359,-29.58513c-12.64613,-26.70159 -5.16132,-56.74773 16.71785,-67.10991c21.87917,-10.36219 49.86744,2.88351 62.51359,29.58513z" fill="#ff8700" stroke="#d36e00"/><path d="M15.14262,316.93825c-0.22211,-0.39677 -0.38995,-0.88441 -0.47403,-1.48314c-0.51644,-3.67849 3.16205,-4.19493 3.16205,-4.19493c6.67828,-0.93515 13.24357,-2.45758 19.94554,-3.25341c3.33709,-0.39627 7.82073,-0.11885 11.02991,-1.07504c1.81061,-0.53949 2.07774,-2.56082 2.682,-3.98741c1.25323,-2.9588 2.6552,-9.89198 4.87689,-11.97243c5.18893,-4.85907 15.64596,-1.08367 21.9221,-0.4669c3.31418,0.05452 4.36558,-3.36656 6.2269,-6.09247c2.23963,-3.27995 4.35904,-6.79687 6.8298,-9.9058c1.43224,-1.80221 2.2608,-5.208 4.5627,-5.18417c2.73306,0.02831 4.85759,2.95004 6.2597,5.29622c1.01267,1.69452 0.33938,3.93445 0.43493,5.90619c0.23332,4.81464 -0.08665,9.52907 -0.57725,14.31491c-0.51248,4.99932 -2.06025,13.35552 -5.86206,17.0681c-4.15019,4.05277 -14.30867,4.85415 -19.88429,5.16435c-4.55228,4.50987 -7.50189,10.65516 -11.6359,15.59641c-1.17001,1.39851 -2.0543,3.21476 -3.6735,4.05318c-5.24339,2.71509 -10.2855,0.06784 -14.79581,-2.17049c-8.96469,-4.44891 -18.45694,-5.85606 -27.16782,-11.02699l-2.89808,-2.71016c0,0 -1.79426,-1.77356 -0.96373,-3.87611z" fill="#000000" stroke="#d36e00"/><path d="M65.40428,239.15613c6.07242,1.95993 24.88384,22.99518 24.88384,22.99518l-27.06463,13.45001c0,0 0.13018,-37.10707 2.18082,-36.44522z" fill="#000000" stroke="#d36e00"/><path d="M32.86882,286.59524l-28.44741,10.20506c0,0 -2.14262,-28.13821 0.64972,-33.87565c0.94296,-1.93753 27.79768,23.67061 27.79768,23.67061z" data-paper-data="{&quot;index&quot;:null}" fill="#000000" stroke="#d36e00"/></g><g><path d="M172.51628,254.28555c-22.13991,2.20713 -40.86557,-1.73478 -41.82488,-8.80455c-0.95934,-7.06976 16.21092,-14.59015 38.35083,-16.79728c22.13991,-2.20713 40.86559,1.73478 41.8249,8.80456c0.47555,3.50435 2.87029,11.03636 -3.96046,14.06019c-6.94964,3.07644 -23.2249,1.62398 -34.39033,2.73707z" data-paper-data="{&quot;index&quot;:null}" fill="#ffab19" fill-rule="nonzero" stroke="#001026" stroke-width="1.2" stroke-linecap="butt" stroke-linejoin="miter"/><g data-paper-data="{&quot;index&quot;:null}" fill="#ffab19" fill-rule="nonzero" stroke-linecap="butt" stroke-linejoin="miter"><g><path d="M125.52782,345.16324c0,0 15.77219,-46.85808 20.71437,-57.58849c2.15591,-4.68095 8.33725,-5.48831 8.33725,-5.48831l16.31817,-3.05626l-24.8169,73.10972z" stroke="#000000" stroke-width="1.25"/><path d="M112.69949,342.15864c1.86074,-5.4817 10.8457,-7.38761 20.06844,-4.25697c9.22277,3.13062 15.19085,10.1123 13.3301,15.594c-1.86076,5.48171 -10.84571,7.38763 -20.06845,4.25698c-9.22274,-3.13062 -15.19081,-10.11233 -13.33007,-15.59402z" stroke="#000000" stroke-width="1.25"/><path d="M146.69375,333.92188c1.33807,0.45421 0.82447,1.96722 0.82447,1.96722l-0.09302,0.10483c-0.1678,2.09566 -0.43423,9.51614 -1.86801,13.01813c-0.17847,0.82372 -0.39163,1.60823 -0.63759,2.33286l-0.10305,0.09264l0.04733,0.02672l-0.77378,1.50984c-0.34336,0.6968 -1.08933,1.06759 -1.76096,0.83961c-0.62333,-0.21157 -0.98353,-0.87137 -0.91079,-1.57418c-0.13023,-0.00182 -0.26105,-0.02354 -0.38917,-0.06703c-0.73899,-0.25085 -1.10812,-1.1316 -0.82447,-1.96723l0.63914,-1.88288c0.03735,-0.11003 0.07542,-0.22921 0.11426,-0.35652c-0.30392,0.28505 -0.62896,0.54161 -0.97824,0.76569c-0.19146,0.37147 -0.37395,0.64122 -0.53036,0.73065c-0.03795,0.02168 -0.07613,0.04095 -0.11451,0.0579l0.05775,0.35662l-0.95367,0.26277c-0.01332,0.01927 -0.02672,0.03852 -0.04013,0.05777l0.39193,0.29163l-1.09587,1.69198c-0.37074,0.59896 -1.05629,0.90112 -1.67813,0.69003c-0.62184,-0.21109 -0.98179,-0.86814 -0.91132,-1.56902l0.15413,-1.92899c-0.01208,-0.41445 0.09037,-1.14339 0.24133,-2.03158c-0.07209,-0.32591 -0.11814,-0.89428 0.24679,-1.38879c0.10739,-0.59147 0.22047,-1.21188 0.32592,-1.82971c-0.89134,-0.62673 -1.85572,-1.35025 -2.54068,-2.20318l-0.09782,0.28817c-0.28363,0.83562 -1.11264,1.30968 -1.85166,1.05882c-0.60192,-0.20433 -0.95849,-0.82654 -0.91678,-1.50188l0.07057,-1.73899l0.04717,-0.00154l-0.03776,-0.12212c0.09026,-0.48398 0.19132,-0.96617 0.29991,-1.44708l-0.07306,-2.08336c-0.01214,-0.21709 0.01702,-0.44389 0.09291,-0.66744c0.28363,-0.83562 1.11264,-1.30968 1.85167,-1.05882c0.3201,0.10863 0.5708,0.33547 0.72912,0.62564l0.49692,0.89214c1.73134,-0.82835 4.06796,-0.76612 5.12739,0.9093c0.08456,0.13378 0.15901,0.27233 0.22408,0.41534c0.50951,0.21699 0.99452,0.45174 1.43216,0.68237c1.4035,-3.90348 2.79419,-8.12441 3.11531,-9.7015c0,0 0.31921,-1.5621 1.71647,-1.32641c1.39726,0.23569 1.07805,1.79773 1.07805,1.79773c-0.36982,1.80363 -0.86895,3.52577 -1.4348,5.20809c0.29507,-0.25419 0.71715,-0.42096 1.29075,-0.22625zM139.68158,341.35414c0.0512,-0.09141 0.10231,-0.18202 0.15329,-0.27178c-0.03213,-0.02204 -0.06407,-0.0439 -0.0959,-0.06556c-0.01773,0.11183 -0.03691,0.22429 -0.0574,0.33733z" stroke="none" stroke-width="0.5"/></g><path d="M134.64416,327.18602l20.4939,-60.37424l13.27375,4.50575c0,0 3.23804,4.52854 1.08423,10.87356c-3.74823,11.04213 -21.57813,49.50069 -21.57813,49.50069z" stroke="none" stroke-width="0"/></g><g data-paper-data="{&quot;index&quot;:null}" fill-rule="evenodd"><path d="M203.57713,257.88006c3.58635,-4.22604 7.6478,-9.68184 8.87244,-16.94026c3.00326,-16.38116 -5.21725,-33.19118 4.47838,-34.72445c9.874,-1.67217 27.8947,21.83373 11.69005,45.91747c-5.54677,8.33205 -12.32496,13.61117 -17.9935,17.73945c-1.42699,1.11141 -14.70726,9.44855 -23.71166,6.71803c-9.0044,-2.73052 -7.22236,-6.69761 -6.35106,-8.52251c0.91074,-2.14218 17.78417,-4.39405 23.01535,-10.18773z" fill="#ffab19" stroke="#001026" stroke-width="1.2" stroke-linecap="round" stroke-linejoin="round"/><path d="M216.13555,207.40564c4.40104,-1.70824 12.01959,4.39422 15.0982,12.02656c3.07861,7.63234 2.72527,13.06586 2.21242,17.19073c-0.61572,-1.52644 -2.95856,-6.00638 -7.79694,-5.96352c-6.10756,-0.11495 -11.45709,6.63062 -11.45709,6.63062c0,0 0.25047,-11.08487 -0.6465,-18.12376c-0.34128,-6.3254 -1.53327,-9.69562 2.5899,-11.76062z" fill="#ffffff" stroke="none" stroke-width="1" stroke-linecap="butt" stroke-linejoin="miter"/></g><g data-paper-data="{&quot;index&quot;:null}" fill-rule="evenodd"><path d="M171.60134,286.52871c0,0 -2.43581,1.64058 -6.43789,4.58894c-3.00912,0.15873 -5.97959,0.49218 -7.91128,0.23189c-5.99638,-0.808 -13.33184,-6.04253 -16.48385,-7.39532l0.68009,-0.57867c-2.571,-2.21165 -5.05133,-5.77679 -8.31307,-11.20708c-2.64546,-4.4826 -5.24444,-13.04085 -5.24444,-13.04085c-1.65243,-5.77566 -2.28048,-16.69445 5.14872,-15.97011c4.94777,0.55809 9.50483,0.18361 17.2503,-0.43045c13.71651,-1.8002 16.31883,-3.43864 21.33883,6.18821c5.36536,11.23617 20.40183,20.17454 -0.02739,37.61347z" fill="#ffab19" stroke="#001026" stroke-width="1.2" stroke-linecap="round" stroke-linejoin="round"/><path d="M132.53532,267.59632c0,0 -3.90828,-5.92679 6.19995,-11.36771c10.58966,-5.86187 13.94098,1.61379 17.6388,7.2999c3.34248,6.03107 7.25151,17.10552 4.46349,23.32746c-0.5845,1.30437 -5.15889,3.6123 -5.98796,4.26362c-3.83605,3.14198 -11.35575,-7.8336 -11.35575,-7.8336c0,0 -6.67574,-5.20582 -10.95853,-15.68967z" fill="#ffffff" stroke="none" stroke-width="1" stroke-linecap="butt" stroke-linejoin="miter"/></g><g data-paper-data="{&quot;index&quot;:null}" fill="#ffab19" fill-rule="nonzero" stroke-linecap="butt" stroke-linejoin="miter"><g><path d="M243.44813,295.54573c0,0 -48.73641,-8.31932 -60.1031,-11.53865c-4.95853,-1.40441 -6.71417,-7.3859 -6.71417,-7.3859l-5.54847,-15.64736l76.07259,13.18599z" stroke="#000000" stroke-width="1.25"/><path d="M242.46796,308.68463c-5.70386,-0.98867 -8.97928,-9.56964 -7.31588,-19.16616c1.6634,-9.59651 7.63573,-16.57456 13.33959,-15.58587c5.70386,0.9887 8.97929,9.56964 7.31588,19.16618c-1.66342,9.5965 -7.63573,16.57451 -13.33959,15.58583z" stroke="#000000" stroke-width="1.25"/><path d="M229.06207,276.37778c0.24134,-1.39231 1.81567,-1.11944 1.81567,-1.11944l0.11798,0.07563c2.09636,-0.15898 9.46847,-1.04587 13.15036,-0.17218c0.84144,0.04863 1.64955,0.13765 2.40352,0.26833l0.10747,0.08744l0.01902,-0.05088l1.61151,0.53042c0.7416,0.23119 1.2235,0.91069 1.10235,1.60956c-0.1124,0.64859 -0.70839,1.10673 -1.41396,1.14376c0.01839,0.12892 0.01723,0.26151 -0.00589,0.39482c-0.13328,0.76897 -0.9462,1.27014 -1.81568,1.11945l-1.95917,-0.3396c-0.11452,-0.01983 -0.23814,-0.03899 -0.36995,-0.05763c0.32875,0.2561 0.63261,0.53741 0.90808,0.84774c0.39666,0.13157 0.69142,0.2701 0.80401,0.41074c0.02731,0.03415 0.05224,0.06886 0.07492,0.10416l0.34332,-0.11234l0.40742,0.90143c0.02114,0.01018 0.04225,0.02039 0.06333,0.03067l0.22737,-0.43239l1.84137,0.8204c0.64916,0.27342 1.05395,0.90388 0.94179,1.55091c-0.11217,0.64704 -0.70553,1.10449 -1.40885,1.14349l-1.92955,0.14669c-0.40755,0.07615 -1.1436,0.08797 -2.04442,0.07646c-0.31084,0.12173 -0.86516,0.25533 -1.41027,-0.02855c-0.60098,-0.0144 -1.23141,-0.02998 -1.85814,-0.03843c-0.481,0.97773 -1.04633,2.04257 -1.7828,2.85145l0.29987,0.05198c0.86952,0.15069 1.46633,0.89623 1.33304,1.66519c-0.10858,0.62631 -0.668,1.07497 -1.34164,1.13843l-1.72892,0.1998l-0.00886,-0.04636l-0.11476,0.05623c-0.49213,-0.01418 -0.98419,-0.0393 -1.4761,-0.07204l-2.04687,0.39504c-0.21259,0.04562 -0.44114,0.05198 -0.67377,0.01163c-0.86948,-0.15069 -1.46631,-0.89623 -1.33302,-1.66519c0.05775,-0.33305 0.24297,-0.61587 0.50508,-0.81725l0.80432,-0.62915c-1.08669,-1.58198 -1.38735,-3.90009 0.10363,-5.20636c0.11907,-0.10427 0.24441,-0.19931 0.37561,-0.28573c0.13544,-0.53699 0.29214,-1.05248 0.45218,-1.52062c-4.0738,-0.78155 -8.45929,-1.50126 -10.0671,-1.57405c0,0 -1.59268,-0.07325 -1.57641,-1.49013c0.01626,-1.4169 1.60891,-1.34368 1.60891,-1.34368c1.83914,0.08582 3.61783,0.312 5.36753,0.61027c-0.2968,-0.25212 -0.527,-0.6433 -0.42353,-1.24012zM237.49128,282.15329c-0.09822,-0.03638 -0.19566,-0.07286 -0.29223,-0.10931c-0.01681,0.03514 -0.03347,0.0701 -0.04992,0.10489c0.1132,0.00018 0.22729,0.00168 0.34217,0.00443z" stroke="none" stroke-width="0.5"/></g><path d="M224.27524,289.32569l-62.82101,-10.88902l2.394,-13.81171c0,0 3.97197,-3.90077 10.57413,-2.7564c11.48959,1.99153 52.24684,13.64542 52.24684,13.64542z" stroke="none" stroke-width="0"/></g><path d="M133.96388,256.2191c14.11429,-16.2312 29.50332,-24.70665 34.37238,-18.93046c4.86906,5.77619 -2.62569,23.6167 -16.74001,39.8479c-14.1143,16.23116 -29.50334,24.70662 -34.37239,18.93043c-2.41353,-2.86318 -8.55732,-8.1345 -5.59476,-15.26085c3.01413,-7.25038 15.21674,-16.40146 22.33476,-24.58706z" data-paper-data="{&quot;index&quot;:null}" fill="#ffab19" fill-rule="nonzero" stroke="#001026" stroke-width="1.2" stroke-linecap="butt" stroke-linejoin="miter"/><path d="M29.29221,175.0253l-0.57961,-1.86171c-3.00849,-8.23119 4.20644,-10.30258 10.97371,-12.37991c0,0 2.70256,-0.82656 3.52914,1.876c0.82655,2.70257 -1.876,3.52913 -1.876,3.52913c-2.09403,0.6379 -9.8372,2.16849 -7.54892,4.49224l0.87449,2.58884c0,0 0.8777,2.68639 -1.80871,3.56409c-2.68641,0.8777 -3.56409,-1.80871 -3.56409,-1.80871z" data-paper-data="{&quot;index&quot;:null}" fill="#000000" fill-rule="nonzero" stroke="none" stroke-width="0.5" stroke-linecap="butt" stroke-linejoin="miter"/><path d="M4.5214,189.47771c-2.1877,1.78915 -3.97685,-0.39854 -3.97685,-0.39854l-0.03421,-0.23382c-2.36076,-1.58413 -7.92688,-4.10849 -8.91362,-6.89547c-3.52322,-9.95118 10.85011,-10.79055 16.77128,-10.81322c0,0 2.82611,-0.00723 2.83335,2.81891c0.00723,2.82612 -2.8189,2.83335 -2.8189,2.83335c-3.89362,0.00457 -6.65518,0.15577 -10.26156,1.61666c-0.57312,0.23215 -1.7666,0.82029 -1.34747,1.27491c1.64546,1.78482 4.87773,3.12396 6.88598,4.47106l1.26052,1.34931c0,0 1.78915,2.18769 -0.39854,3.97684z" data-paper-data="{&quot;index&quot;:null}" fill="#000000" fill-rule="nonzero" stroke="none" stroke-width="0.5" stroke-linecap="butt" stroke-linejoin="miter"/><path d="M31.78561,215.34127c-2.7756,0.53209 -3.30767,-2.24352 -3.30767,-2.24352l-0.06261,-0.72111c-3.89972,-8.75761 -2.40357,-11.69383 5.88839,-16.09672c0,0 2.49618,-1.32519 3.82137,1.171c1.32519,2.49618 -1.171,3.82138 -1.171,3.82138c-1.80066,0.95577 -3.95502,1.36248 -5.47979,2.7156c-1.01815,0.90354 1.76547,5.32907 2.10397,6.08825l0.45087,1.95747c0,0 0.53211,2.7756 -2.2435,3.30767z" data-paper-data="{&quot;index&quot;:null}" fill="#000000" fill-rule="nonzero" stroke="none" stroke-width="0.5" stroke-linecap="butt" stroke-linejoin="miter"/><path d="M79.99138,151.56436c4.24004,-3.14339 8.88518,-5.98426 14.74451,-8.42329c9.6975,-4.36822 20.51401,-5.50324 20.51401,-5.50324l16.42163,-28.24467c0.60496,-0.81016 1.91962,-0.71179 2.12377,0.19777l13.93292,38.29183c-2.02435,-1.00683 34.40966,15.0942 31.64224,45.33233c-2.76743,30.23811 -28.09236,55.87265 -69.82686,67.48726c-41.73452,11.61462 -61.58889,-5.73469 -64.9524,-18.46764c-3.36353,-12.73293 8.84685,-24.18423 8.84685,-24.18423c0,0 -4.36715,-9.19194 -3.4874,-23.55159c0.48743,-8.59548 8.64377,-24.58826 8.64377,-24.58826l-5.61222,-24.25491c-0.20415,-0.90956 0.70434,-1.61926 1.51346,-1.51986z" fill="#ffab19" fill-rule="evenodd" stroke="#001026" stroke-width="1.2" stroke-linecap="butt" stroke-linejoin="miter"/><path d="M54.4503,218.55396c15.24152,-12.46881 23.25443,-0.55455 38.30673,-6.85517c17.57794,-7.31705 31.56908,-37.37659 55.96813,-22.56465c24.2975,14.60995 15.68779,55.37599 -38.27516,69.84747c-41.22894,11.61353 -61.38364,-4.31959 -64.74715,-17.05253c-3.3635,-12.73294 8.74745,-23.37515 8.74745,-23.37515z" fill="#ffffff" fill-rule="evenodd" stroke="none" stroke-width="1" stroke-linecap="butt" stroke-linejoin="miter"/><path d="M103.24513,218.28278c16.33243,-12.71479 27.87469,-3.75412 35.10781,4.66458c0.63016,0.64865 0.4541,1.76532 -0.35209,2.23333c-4.18394,1.85817 -15.46152,7.77087 -25.82157,16.57479c-9.22952,8.02084 -13.94616,13.54872 -15.906,16.39838c-0.65329,0.94986 -2.08964,0.76922 -2.55303,-0.3567c-2.7942,-5.79633 -8.44768,-23.94533 9.52487,-39.51437z" data-paper-data="{&quot;index&quot;:null}" fill="#ffffff" fill-rule="evenodd" stroke="#001026" stroke-width="1.2" stroke-linecap="round" stroke-linejoin="round"/><path d="M46.39652,235.25426c0,0 -14.64617,7.10864 -27.99897,4.20454" fill="none" fill-rule="evenodd" stroke="#001026" stroke-width="1.2" stroke-linecap="round" stroke-linejoin="round"/><path d="M51.5792,247.57893c0,0 -5.94916,7.79811 -19.18338,13.18489" fill="none" fill-rule="evenodd" stroke="#001026" stroke-width="1.2" stroke-linecap="round" stroke-linejoin="round"/><path d="M90.92511,206.04038c4.04017,-2.03073 9.59596,-4.57021 10.61239,-2.04457c1.62459,3.23213 -4.32135,12.54691 -8.1606,13.97056c-3.33368,1.4226 -9.20685,-2.7106 -10.42635,-5.64026c-0.50875,-1.5156 3.73236,-4.15343 7.97455,-6.28571z" fill="#001026" fill-rule="evenodd" stroke="#001026" stroke-width="1.2" stroke-linecap="round" stroke-linejoin="round"/><path d="M161.85358,181.5231c3.92265,-9.81606 18.45237,-24.20449 18.45237,-24.20449" fill="none" fill-rule="evenodd" stroke="#001026" stroke-width="1.2" stroke-linecap="round" stroke-linejoin="round"/><path d="M189.04559,178.23029c0,0 -13.83173,9.73583 -24.24424,10.66776" fill="none" fill-rule="evenodd" stroke="#001026" stroke-width="1.2" stroke-linecap="round" stroke-linejoin="round"/><path d="M55.47239,194.38677c1.2767,-12.03496 8.46758,-21.25138 15.98021,-20.25626c7.41205,0.79313 12.34066,11.19711 11.06392,23.23207c-1.47679,12.1365 -8.56815,21.04936 -15.98022,20.25625c-7.41205,-0.79313 -12.34064,-11.19714 -11.06393,-23.23208z" fill="#ffffff" fill-rule="evenodd" stroke="#001026" stroke-width="1.2" stroke-linecap="round" stroke-linejoin="round"/><path d="M73.88701,192.66232c-1.1169,-2.22208 -0.41467,-4.85247 1.60542,-5.86783c2.02008,-1.01538 4.54997,-0.00959 5.66688,2.21251c1.1169,2.22208 0.41468,4.85247 -1.60541,5.86783c-2.02009,1.01535 -4.54998,0.00956 -5.6669,-2.21253" fill="#001026" fill-rule="evenodd" stroke="none" stroke-width="1" stroke-linecap="butt" stroke-linejoin="miter"/><path d="M125.39722,154.80543c8.49607,1.29653 13.87968,13.01411 12.08502,25.05013c-1.59263,11.93451 -9.0595,19.23026 -17.65499,18.7428c-7.38344,-1.09668 -13.27045,-11.80206 -11.6778,-23.73656c1.59265,-11.93449 8.65016,-21.55493 17.24778,-20.05638z" fill="#ffffff" fill-rule="evenodd" stroke="#001026" stroke-width="1.2" stroke-linecap="round" stroke-linejoin="round"/><path d="M126.057,169.41446c-1.1169,-2.22208 -0.31314,-4.65046 1.60542,-5.86784c2.02009,-1.01535 4.54999,-0.0096 5.66689,2.21251c1.11689,2.22209 0.41467,4.85248 -1.60542,5.86784c-2.02008,1.01538 -4.54999,0.0096 -5.66689,-2.2125" fill="#001026" fill-rule="evenodd" stroke="none" stroke-width="1" stroke-linecap="butt" stroke-linejoin="miter"/></g><path d="M165.59981,167.79814c2.45442,-0.47523 2.92965,1.97917 2.92965,1.97917l0.5314,2.74453c0.72625,3.96113 1.58508,7.59189 -0.67212,11.29409c-2.81259,4.61312 -9.58984,7.01926 -13.62454,2.37895c-1.1871,-1.36528 -1.95822,-5.3526 -2.33716,-7.00871c-1.22364,-5.34777 -2.71612,-10.59914 -4.04667,-15.91636c0,0 -0.60625,-2.42538 1.81913,-3.03162c2.42538,-0.60625 3.03163,1.81914 3.03163,1.81914c1.13261,4.53645 2.52013,8.99376 3.54458,13.56147c0.52072,2.32175 0.6351,5.39749 1.89846,7.45966c1.29777,2.11835 4.68952,-0.61074 5.44031,-1.85689c1.4715,-2.44234 0.51905,-5.20162 0.03409,-7.76731l-0.52794,-2.72648c0,0 -0.47523,-2.45441 1.97918,-2.92965z" fill="#000000" fill-rule="nonzero" stroke="none" stroke-width="0.5" stroke-linecap="butt" stroke-linejoin="miter"/><text transform="translate(21.28716,140.09894) scale(1.20629,1.20629)" font-size="40" xml:space="preserve" fill="#000000" fill-rule="nonzero" stroke="#ffffff" stroke-width="3" stroke-linecap="butt" stroke-linejoin="miter" stroke-miterlimit="10" stroke-dasharray="" stroke-dashoffset="0" font-family="Curly" font-weight="normal" text-anchor="start" style="mix-blend-mode: normal"><tspan x="0" dy="0">Your score is </tspan></text><text transform="translate(22.34763,139.83384) scale(1.20628,1.20628)" font-size="40" xml:space="preserve" fill="#000000" fill-rule="nonzero" stroke="#000000" stroke-width="2" stroke-linecap="butt" stroke-linejoin="miter" stroke-miterlimit="10" stroke-dasharray="" stroke-dashoffset="0" font-family="Curly" font-weight="normal" text-anchor="start" style="mix-blend-mode: normal"><tspan x="0" dy="0">Your score is </tspan></text></g></g></svg>