<svg version="1.1" xmlns="http://www.w3.org/2000/svg" xmlns:xlink="http://www.w3.org/1999/xlink" width="237.47074" height="352.05972" viewBox="0,0,237.47074,352.05972"><g transform="translate(-106.04906,-44.89992)"><g data-paper-data="{&quot;isPaintingLayer&quot;:true}" fill-rule="nonzero" stroke-linecap="butt" stroke-linejoin="miter" stroke-miterlimit="10" stroke-dasharray="" stroke-dashoffset="0" style="mix-blend-mode: normal"><path d="M167.75,258.20966v-30h115.5v30z" fill="#000000" stroke="none" stroke-width="0"/><path d="M149.68479,256.69602l-1.08943,-64.32411l30.99556,-0.52496l1.08943,64.32411z" data-paper-data="{&quot;index&quot;:null}" fill="#000000" stroke="none" stroke-width="0"/><path d="M149.03677,188.25682c11.99313,-7.38261 25.1186,-7.83901 29.31656,-1.01938c4.19796,6.81963 -2.12128,18.33282 -14.11441,25.71543c-11.99313,7.38261 -25.1186,7.83901 -29.31656,1.01938c-4.19796,-6.81963 2.12129,-18.33282 14.11442,-25.71543z" data-paper-data="{&quot;index&quot;:null}" fill="#000000" stroke="none" stroke-width="0"/><path d="M273.29087,265.17107l1.08942,-64.32411l30.99555,0.52496l-1.08942,64.32411z" fill="#000000" stroke="none" stroke-width="0"/><g stroke-width="2.5"><path d="M207.87505,136.67251v-58.96507h44.23254v58.96507z" fill="#5d3500" stroke="#512a00"/><path d="M295.74406,152.49648c0,9.25077 -31.96012,7.41667 -62.75,7.41667c-19.80689,0 -46.70129,-0.60337 -56.59048,-5.28001c-5.48359,-2.59321 -3.55159,-8.88215 0.84049,-11.46999c1.06078,-0.62502 2.07944,-1.22726 3.05856,-1.80754c29.99904,-17.7792 22.87473,-14.94246 52.69144,-14.94246c15.88452,0 36.71742,8.99595 46.87196,12.19863c9.52858,3.00526 15.87804,9.40641 15.87804,13.8847z" fill="#ff8700" stroke="#d36e00"/></g><g stroke="#d36e00" stroke-width="2.5"><path d="M334.97148,312.19158c0,46.12575 -50.96623,83.51806 -113.83621,83.51806c-62.87003,0 -113.83621,-37.39231 -113.83621,-83.51806c0,-24.95266 8.45195,-55.8859 35.56148,-72.91756c27.10952,-17.03167 49.41555,1.39951 78.27473,1.39951c30.44162,0 66.0924,-7.04681 86.51798,4.33072c21.75866,12.12008 27.31823,43.39564 27.31823,67.18734z" data-paper-data="{&quot;index&quot;:null}" fill="#ff8700"/><path d="M308.30762,309.4158c0,43.1388 -39.8642,78.10974 -89.03918,78.10974c-49.17499,0 -89.03923,-34.9709 -89.03923,-78.10974c0,-43.1388 39.8642,-78.10974 89.03923,-78.10974c49.17499,0 89.03918,34.9709 89.03918,78.10974z" fill="#ff8700"/><path d="M285.13804,312.19158c0,43.1388 -28.65499,78.10974 -64.00274,78.10974c-35.34775,0 -64.00274,-34.9709 -64.00274,-78.10974c0,-32.22677 15.99182,-59.89522 38.8191,-71.83075c7.72934,-4.04138 51.37482,-0.71355 60.53362,6.70576c17.26868,13.98892 28.65277,37.93447 28.65277,65.12499z" fill="#ff8700"/><path d="M155.1207,332.43289c-0.04513,-0.6624 0.03816,-1.41076 0.3014,-2.2534c1.61746,-5.17688 6.79434,-3.55943 6.79434,-3.55943c9.39709,2.93972 19.01209,5.03385 28.35335,8.17225c4.65126,1.56268 10.39446,4.73092 15.22687,5.4748c2.72644,0.41969 4.34222,-2.08071 6.03117,-3.5856c3.50293,-3.1212 9.68602,-11.39398 13.91797,-12.75082c9.88407,-3.16906 21.32361,8.34828 29.22011,13.0846c4.33931,2.14322 7.86483,-1.71412 12.02462,-4.14795c5.00529,-2.9285 10.00003,-6.24484 15.20342,-8.80322c3.01633,-1.48307 6.2382,-5.45951 9.26088,-3.98944c3.58885,1.74545 4.56635,6.92873 4.95027,10.90102c0.27728,2.86899 -2.01108,5.40397 -3.11729,8.0656c-2.70113,6.4992 -6.06976,12.52034 -9.70818,18.52912c-3.8007,6.27679 -11.06555,16.33628 -18.40266,18.85936c-8.00944,2.75428 -21.91538,-2.53703 -29.46682,-5.61229c-8.82571,3.10616 -16.55864,9.37201 -25.10201,13.30882c-2.41797,1.11423 -4.71999,2.9583 -7.38066,3.05272c-8.61601,0.30584 -13.61509,-6.33864 -18.16798,-12.11116c-9.04932,-11.47345 -20.69584,-19.26273 -28.95897,-31.53034l-2.13052,-5.38754c0,0 -1.25927,-3.46176 1.15072,-5.71722z" fill="#000000"/><path d="M270.05753,261.20421c6.78823,6.38143 18.46522,45.89609 18.46522,45.89609l-44.12026,0.8339c0,0 23.36272,-48.88495 25.65509,-46.72998z" fill="#000000"/><path d="M197.47572,303.47084l-43.91696,-4.31233c0,0 14.75822,-38.47015 22.02876,-44.29611c2.45522,-1.96743 21.8882,48.60844 21.8882,48.60844z" data-paper-data="{&quot;index&quot;:null}" fill="#000000"/></g><path d="M276.81766,198.22929c0,23.61018 -23.05733,42.75 -51.5,42.75c-28.44267,0 -51.5,-19.13983 -51.5,-42.75c0,-23.61017 23.05733,-42.75 51.5,-42.75c28.44267,0 51.5,19.13983 51.5,42.75z" fill="#000000" stroke="none" stroke-width="2.5"/><path d="M247.9586,199.93681l8.16934,-43.74371l58.99312,6.5668c0,0 -21.55454,20.8907 -34.69985,35.65248c-0.99933,1.12221 -26.30904,11.93994 -26.71307,14.10334c-0.35954,1.92521 -5.74956,-12.57892 -5.74956,-12.57892z" fill="#000000" stroke="none" stroke-width="0"/><path d="M204.13992,213.56892c-0.43412,-2.15756 -25.89212,-12.62156 -26.90699,-13.72974c-13.34973,-14.57717 -35.19327,-35.16551 -35.19327,-35.16551l58.8959,-7.3882l8.77809,43.62563c0,0 -5.1874,14.57784 -5.57373,12.65782z" data-paper-data="{&quot;index&quot;:null}" fill="#000000" stroke="none" stroke-width="0"/><path d="M250.08927,221.63988c-1.1606,0.46424 -1.62483,-0.69636 -1.62483,-0.69636l-0.33155,-0.95388c-3.85112,-2.59345 -7.3563,-5.53679 -11.51992,-7.62006c-1.38974,-0.55455 -2.89069,-1.03248 -4.16162,-1.83738c-0.68643,-0.43473 -1.06286,-1.39378 -1.85282,-1.58389c-1.43348,-0.34498 -3.76139,1.87295 -4.95117,2.41661c-5.70943,2.60886 -10.50566,6.85033 -15.52232,10.61436c0,0 -1,0.75 -1.75,-0.25c-0.75,-1 0.25,-1.75 0.25,-1.75c5.15911,-3.86781 10.09029,-8.22452 15.97768,-10.88564c1.91755,-0.86674 4.19346,-3.09166 6.54883,-2.58339c0.68243,0.14727 2.04596,1.53132 2.64718,1.91611c1.14965,0.73582 2.57918,1.15781 3.83838,1.66262c4.43066,2.2139 8.60217,5.29034 12.48008,8.37994l0.66845,1.54612c0,0 0.46424,1.1606 -0.69636,1.62483z" fill="#282828" stroke="none" stroke-width="0.5"/><path d="M239.12505,195.60428c0,2.69239 -4.19733,4.875 -9.375,4.875c-5.17767,0 -9.375,-2.18261 -9.375,-4.875c0,-2.69239 4.19733,-4.875 9.375,-4.875c5.17767,0 9.375,2.18261 9.375,4.875z" fill="#282828" stroke="none" stroke-width="0"/><path d="M221.12505,180.72928c0,8.1462 -6.32398,14.75 -14.125,14.75c-7.80102,0 -14.125,-6.6038 -14.125,-14.75c0,-8.1462 6.32398,-14.75 14.125,-14.75c7.80102,0 14.125,6.6038 14.125,14.75z" fill="#ffffff" stroke="none" stroke-width="0"/><path d="M269.12504,180.47928c0,8.1462 -6.32398,14.75 -14.125,14.75c-7.80102,0 -14.125,-6.6038 -14.125,-14.75c0,-8.1462 6.32398,-14.75 14.125,-14.75c7.80102,0 14.125,6.6038 14.125,14.75z" fill="#ffffff" stroke="none" stroke-width="0"/><path d="M219.62505,181.60428c0,6.28224 -5.26065,11.375 -11.75,11.375c-6.48935,0 -11.75,-5.09276 -11.75,-11.375c0,-6.28224 5.26065,-11.375 11.75,-11.375c6.48935,0 11.75,5.09276 11.75,11.375z" fill="#181818" stroke="none" stroke-width="0"/><path d="M265.62504,180.85428c0,6.28224 -5.26065,11.375 -11.75,11.375c-6.48935,0 -11.75,-5.09276 -11.75,-11.375c0,-6.28224 5.26065,-11.375 11.75,-11.375c6.48935,0 11.75,5.09276 11.75,11.375z" fill="#181818" stroke="none" stroke-width="0"/><path d="M215.12505,176.35428c0,1.86396 -2.63033,3.375 -5.875,3.375c-3.24467,0 -5.875,-1.51104 -5.875,-3.375c0,-1.86396 2.63033,-3.375 5.875,-3.375c3.24467,0 5.875,1.51104 5.875,3.375z" fill="#ffffff" stroke="none" stroke-width="0"/><path d="M259.12504,175.72928c0,1.79493 -2.68629,3.25 -6,3.25c-3.31371,0 -6,-1.45507 -6,-3.25c0,-1.79493 2.68629,-3.25 6,-3.25c3.31371,0 6,1.45507 6,3.25z" fill="#ffffff" stroke="none" stroke-width="0"/><path d="M190.82662,176.99359c-0.41735,-3.46687 1.01456,-8.38337 2.53939,-10.22293c2.30992,-2.78672 8.67555,-2.95292 12.00492,-3.46024c4.99577,0.24253 9.28983,1.38323 13.8256,3.4907c1.39722,0.64919 2.9371,0.63887 4.10096,1.7679c1.57602,1.52885 3.01137,4.55886 3.64646,6.62573c0.33355,1.08555 1.0959,2.29941 0.6508,3.34419c-0.30459,0.71497 -1.51799,0.33479 -2.281,0.48233c-2.23182,0.43156 -4.62876,0.3868 -6.89129,0.3756c-6.65628,-0.18012 -13.1819,-0.46547 -19.84274,-0.39917c-0.82084,0.00817 -1.68644,-0.00827 -2.56406,-0.00728l-0.43791,1.46242c-1.99995,0.58516 -3.26758,0.05161 -3.99887,-1.09555c-0.45629,0.10151 -0.89909,0.23045 -1.32281,0.39397c0,0 -1.17275,0.4326 -1.60536,-0.74015c-0.43261,-1.17275 0.74014,-1.60536 0.74014,-1.60536c0.46761,-0.16648 0.94726,-0.30192 1.43577,-0.41215z" fill="#000000" stroke="none" stroke-width="0.5"/><path d="M272.85911,187.13587c0,0 0.61892,1.08602 -0.46709,1.70494c-1.08602,0.61892 -1.70494,-0.46709 -1.70494,-0.46709c-0.21898,-0.39792 -0.47482,-0.78163 -0.75863,-1.15305c-1.29809,0.40706 -2.6116,-0.00069 -3.76532,-1.73597l0.60634,-1.40098c-0.67094,-0.56574 -1.34391,-1.11039 -1.96678,-1.64507c-5.05436,-4.33871 -10.23164,-8.32129 -15.44117,-12.46852c-1.73855,-1.44796 -3.60157,-2.95676 -5.0316,-4.72377c-0.4889,-0.6041 -1.66216,-1.09431 -1.43498,-1.83751c0.33198,-1.08604 1.69679,-1.52413 2.65086,-2.1401c1.81655,-1.17278 4.86551,-2.56741 7.05575,-2.72275c1.61744,-0.11472 2.78915,0.8845 4.27627,1.28719c4.8276,1.30725 8.84788,3.19871 12.82691,6.2292c2.22112,2.53153 6.98528,6.75664 6.95891,10.37616c-0.0174,2.38932 -2.08671,7.07336 -4.63791,9.45762c0.30285,0.39883 0.58272,0.81125 0.83337,1.23967z" data-paper-data="{&quot;index&quot;:null}" fill="#000000" stroke="none" stroke-width="0.5"/><path d="M319.04884,222.97225c-4.19796,6.81963 -17.32343,6.36323 -29.31656,-1.01939c-11.99313,-7.38262 -18.31237,-18.89581 -14.11441,-25.71543c4.19796,-6.81963 17.32343,-6.36323 29.31656,1.01939c11.99313,7.38262 18.31237,18.89581 14.11441,25.71543z" fill="#000000" stroke="none" stroke-width="0"/><text transform="translate(282.59818,105.02225) rotate(29.86535) scale(1.58333,1.58333)" font-size="40" xml:space="preserve" fill="#000000" fill-rule="nonzero" stroke="none" stroke-width="1" stroke-linecap="butt" stroke-linejoin="miter" stroke-miterlimit="10" stroke-dasharray="" stroke-dashoffset="0" font-family="Sans Serif" font-weight="normal" text-anchor="start" style="mix-blend-mode: normal"><tspan x="0" dy="0">?</tspan></text></g></g></svg>