<svg version="1.1" xmlns="http://www.w3.org/2000/svg" xmlns:xlink="http://www.w3.org/1999/xlink" width="742.50848" height="662.55675" viewBox="0,0,742.50848,662.55675"><g transform="translate(103.21249,184.77251)"><g data-paper-data="{&quot;isPaintingLayer&quot;:true}" stroke-miterlimit="10" stroke-dasharray="" stroke-dashoffset="0" style="mix-blend-mode: normal"><g fill-rule="nonzero" stroke-linecap="butt" stroke-linejoin="miter"><path d="M-95.17039,18.93087l318.08822,-203.70338l416.37817,243.65747l-180.18634,307.91446z" fill="#003484" stroke="none" stroke-width="NaN"/><path d="M400.36077,0.85631c1.37658,0.54036 1.0711,1.65533 1.0711,1.65533l-0.01898,0.06925c-0.30886,1.06532 -0.37117,1.96291 -0.27973,2.86597c0.64123,-1.10205 1.39815,-2.39188 1.46934,-2.51325c0.72181,-1.23038 1.70478,-3.25637 3.07356,-4.00543c0.8012,-0.43846 1.90479,-0.43206 2.8653,-0.63222c0.58875,-0.12271 1.14105,-0.35804 1.78198,-0.33627c6.60552,0.22442 12.921,4.11278 18.74475,7.51939c3.09891,1.81288 6.19829,3.62501 9.29619,5.4396c1.72911,1.01282 4.04834,2.58122 5.96591,3.03256c1.78456,0.42004 3.5479,0.36706 5.3235,0.56377c5.39832,0.59808 10.51355,0.16541 15.46897,-0.71394c3.84893,-0.68299 7.44137,-1.70841 11.45887,-2.02502c4.21992,-0.32883 8.28911,-0.52849 12.8054,0.57743c4.76018,1.16566 8.79858,3.46136 13.0753,5.96402c3.59361,2.10292 7.01816,4.14377 10.11244,6.90646c1.41335,1.2619 2.5174,2.7662 3.95652,4.00539c3.7781,3.25326 7.55538,6.22648 11.10478,9.71563c2.26014,2.55014 4.59896,5.04689 6.87416,7.58698c2.52702,2.82125 4.78529,5.54171 8.02472,7.83339c2.3305,1.64866 5.07805,3.04526 7.54593,4.49256c7.36137,4.31711 14.92272,8.43919 22.07131,13.09033c0.3668,1.91566 0.96662,3.6443 0.45282,5.39917c-0.58483,1.99751 -2.27033,3.92928 -3.30722,5.70119c-1.14258,1.95252 -2.11118,4.22907 -3.52455,6.00534c-0.05133,0.0645 -3.33308,3.16972 -3.4498,3.28031c-1.60392,1.51951 -3.01229,3.0761 -5.11414,4.12809c-0.54819,0.27437 -3.83456,0.74336 -3.76693,1.71804c0.08046,1.15958 0.98562,2.33202 1.56571,3.48204c0.40472,0.8024 0.57381,1.64476 0.99891,2.44265c0.62964,1.18178 2.36292,3.34079 3.18214,4.4066c1.2673,1.8997 2.39709,3.87534 3.97021,5.64569c1.77235,1.99456 3.77395,3.88796 5.54202,5.88435c1.98292,2.23898 3.78179,4.73472 6.17307,6.71667c1.89745,1.57263 4.6333,2.64426 6.38217,4.24484c0.76524,0.70034 1.97096,1.4882 1.94465,2.33418c-0.08483,2.72805 -3.26052,2.43697 -5.40461,2.29394c-3.57705,-0.2386 -7.24077,-1.41037 -10.79936,-2.46375c-4.56593,-1.90086 -9.41268,-3.51961 -13.89342,-5.6221c-3.60549,-1.69182 -6.94582,-4.06995 -10.45785,-5.95001c-3.49983,-1.87351 -7.19,-3.36395 -10.69304,-5.22901c-6.44156,-3.42959 -12.81825,-6.94213 -19.12826,-10.63464c-5.74964,-3.36459 -11.5423,-6.74345 -16.74893,-10.87852c-2.64085,-2.09735 -4.95737,-4.70177 -7.75021,-6.63536c-1.28965,-0.89288 -2.77359,-1.49648 -4.07178,-2.37817c-5.62588,-3.82093 -11.08502,-7.9388 -16.64181,-11.85729c-4.52384,-3.26175 -9.124,-6.33367 -13.73014,-9.46057c-2.29624,-1.55882 -4.97067,-2.76793 -7.20982,-4.37866c-4.98725,-3.58763 -8.67284,-8.4694 -14.49743,-11.12464c-1.60057,-0.72965 -3.34058,-0.8434 -4.98389,-1.42712c-0.6531,-0.23199 -1.21437,-0.71486 -1.85442,-0.99381c-1.29228,-0.5632 -2.64047,-1.01318 -3.86318,-1.72868c-2.16664,-0.76803 -3.79118,-2.03495 -5.84186,-2.89747c-0.57614,-0.24232 -1.20661,-0.24576 -1.7749,-0.51039c-0.00983,-0.00458 -3.69115,-2.13238 -4.33262,-2.51832c-0.63482,-0.38196 -1.37887,-0.65324 -1.89293,-1.16438c-1.81023,-1.79987 -2.81721,-5.11594 -3.04163,-7.15112c-0.08814,-0.79925 0.20193,-1.52986 0.12052,-2.32827c-0.15355,-1.50594 -1.36019,-3.84335 -1.73188,-5.33653c-0.22206,-0.89212 -0.55361,-1.79179 -0.65573,-2.67618c-0.05651,-0.48941 0.24511,-0.90497 0.18567,-1.39471c-0.18147,-1.49498 -1.59732,-3.19909 -1.96349,-4.7283c-0.38844,-1.62221 -0.63376,-3.25366 -1.24286,-4.8676c-0.27287,-0.9756 -1.29909,-4.41873 -1.28585,-5.32792c0.01286,-0.88267 0.42952,-1.64509 0.64429,-2.46763l0.01898,-0.06925c0,0 0.30547,-1.11497 1.68204,-0.57462z" fill="#828282" stroke="#6b6b6b" stroke-width="5"/></g><g fill-rule="nonzero" stroke-width="2.5" stroke-linecap="butt" stroke-linejoin="miter"><path d="M309.34891,7.95434l32.21396,-49.38765l37.04806,24.16524l-32.21396,49.38765z" fill="#5d3500" stroke="#512a00"/><path d="M374.3008,69.21294c-5.05391,7.74821 -30.82089,-11.24852 -56.60971,-28.06973c-16.58975,-10.82095 -38.78619,-26.01934 -44.51417,-35.33907c-3.17619,-5.16782 1.8778,-9.37978 6.97029,-9.1478c1.22995,0.05603 2.41217,0.10812 3.54927,0.15701c34.83962,1.49775 27.3227,-0.01844 52.29643,16.2711c13.30447,8.67807 25.83889,27.59434 32.59438,35.82448c6.33906,7.72281 8.16011,16.55311 5.71352,20.30401z" fill="#ff8700" stroke="#d36e00"/></g><g fill-rule="nonzero" stroke="#d36e00" stroke-width="2.5" stroke-linecap="butt" stroke-linejoin="miter"><path d="M319.36528,225.23794c-25.19955,38.63376 -88.31584,42.10861 -140.97415,7.76131c-52.65835,-34.34733 -74.91807,-93.51016 -49.71852,-132.14393c13.63221,-20.89972 37.61088,-42.19113 69.62192,-41.64586c32.01104,0.54525 40.62463,28.16903 64.79635,43.93546c25.49713,16.63095 59.20716,30.20555 70.09931,50.89404c11.60303,22.03872 -0.82696,51.27166 -13.82491,71.19899z" data-paper-data="{&quot;index&quot;:null}" fill="#ff8700"/><path d="M298.54877,208.34594c-23.56771,36.13197 -76.06237,43.64403 -117.2501,16.77862c-41.18773,-26.86541 -55.47161,-77.9349 -31.90389,-114.0669c23.56771,-36.13197 76.06237,-43.64403 117.25014,-16.77859c41.18773,26.86541 55.47157,77.93487 31.90384,114.06687z" fill="#ff8700"/><path d="M277.62604,198.0128c-23.56771,36.13197 -66.67382,49.76788 -96.28021,30.4566c-29.60638,-19.31128 -34.50168,-64.25689 -10.93395,-100.3889c17.60622,-26.99233 46.11646,-41.43003 71.75667,-38.95587c8.6818,0.83776 43.42008,27.46958 47.03792,38.68747c6.82135,21.15104 3.27437,47.42661 -11.58042,70.20071z" fill="#ff8700"/><path d="M157.66852,143.93498c0.32408,-0.57947 0.80269,-1.16077 1.48353,-1.72273c4.18299,-3.45237 7.63537,0.73061 7.63537,0.73061c6.26473,7.59608 13.17394,14.60296 19.28336,22.33495c3.04205,3.84995 6.12153,9.64123 9.76263,12.90434c2.05431,1.84104 4.77367,0.6295 7.01045,0.29176c4.63915,-0.70051 14.33756,-4.25162 18.6234,-3.07606c10.00998,2.74557 13.29926,18.64188 17.32561,26.92294c2.46361,4.16577 7.52385,2.86103 12.33764,3.0951c5.79221,0.28167 11.78747,0.23272 17.5434,0.93262c3.33664,0.40571 8.20761,-1.16468 9.9362,1.71797c2.05235,3.42262 0.03934,8.29803 -1.80925,11.83486c-1.33515,2.55448 -4.63674,3.42753 -7.01738,5.0525c-5.81306,3.96788 -11.92402,7.17067 -18.25421,10.21572c-6.61252,3.18087 -18.19311,7.63749 -25.7169,5.74233c-8.21323,-2.06882 -16.96973,-14.09782 -21.61454,-20.79911c-9.08916,-2.22004 -18.98924,-1.1966 -28.29572,-2.56667c-2.63396,-0.38774 -5.56953,-0.10084 -7.84962,-1.47534c-7.38364,-4.45096 -7.94071,-12.74732 -8.60044,-20.06958c-1.31128,-14.55372 -6.81065,-27.44058 -7.02956,-42.22996l1.15887,-5.67642c0,0 0.83651,-3.58745 4.08726,-4.15993z" fill="#000000"/><path d="M292.85058,147.06824c2.19933,9.05349 -9.60807,48.52938 -9.60807,48.52938l-37.40959,-23.40545c0,0 46.27498,-28.18122 47.01771,-25.12389z" fill="#000000"/><path d="M208.96665,142.8166l-34.42781,-27.60473c0,0 33.37823,-24.15888 42.6507,-25.06649c3.13128,-0.30653 -8.22289,52.67122 -8.22289,52.67122z" data-paper-data="{&quot;index&quot;:null}" fill="#000000"/></g><path d="M332.91731,98.01524c-12.89878,19.77529 -42.66753,23.20958 -66.4904,7.6707c-23.82286,-15.53888 -32.67858,-44.16666 -19.7798,-63.94194c12.89877,-19.77528 42.66753,-23.20958 66.4904,-7.6707c23.82286,15.53888 32.67858,44.16666 19.7798,63.94194z" fill="#000000" fill-rule="nonzero" stroke="none" stroke-width="2.5" stroke-linecap="butt" stroke-linejoin="miter"/><path d="M311.12289,86.48147l17.51117,-40.90977l56.14168,19.27236c0,0 -25.59114,15.68799 -41.63897,27.2282c-1.21998,0.87731 -28.2795,5.9159 -29.14554,7.93913c-0.77069,1.80049 -2.86836,-13.52994 -2.86836,-13.52994z" fill="#000000" fill-rule="nonzero" stroke="none" stroke-width="0" stroke-linecap="butt" stroke-linejoin="miter"/><path d="M245.62942,52.24639c2.01345,-0.88857 6.74955,-28.00266 7.61317,-29.23238c11.36029,-16.1757 26.76155,-41.94042 26.76155,-41.94042l19.89808,55.92297l-40.71167,17.96691c0,0 -15.3529,-1.92635 -13.56113,-2.7171z" data-paper-data="{&quot;index&quot;:null}" fill="#000000" fill-rule="nonzero" stroke="none" stroke-width="0" stroke-linecap="butt" stroke-linejoin="miter"/><path d="M299.60989,99.04241c-1.19951,-0.23999 -0.95952,-1.4395 -0.95952,-1.4395l0.23823,-0.95914c-1.77008,-4.18476 -3.06954,-8.47137 -5.36853,-12.40503c-0.84265,-1.19756 -1.81741,-2.39179 -2.42883,-3.73104c-0.33022,-0.72333 -0.12601,-1.7107 -0.67188,-2.28887c-0.99054,-1.04918 -4.08447,-0.47581 -5.35037,-0.6663c-6.07468,-0.91411 -12.2737,-0.00178 -18.39814,0.40135c0,0 -1.22066,0.08011 -1.30077,-1.14055c-0.08011,-1.22066 1.14055,-1.30077 1.14055,-1.30077c6.29669,-0.41204 12.66793,-1.34669 18.91642,-0.38026c2.03516,0.31476 5.09021,-0.29212 6.7491,1.38377c0.48064,0.48557 0.85831,2.34904 1.14539,2.98588c0.54893,1.21779 1.49507,2.32797 2.2573,3.41497c2.44804,4.18351 4.22251,8.93546 5.74928,13.54123l-0.27871,1.6247c0,0 -0.23999,1.19952 -1.4395,0.95952z" fill="#282828" fill-rule="nonzero" stroke="none" stroke-width="0.5" stroke-linecap="butt" stroke-linejoin="miter"/><path d="M305.98215,76.0909c-1.47091,2.25508 -6.1789,1.79008 -10.51559,-1.0386c-4.33669,-2.82868 -6.65985,-6.94987 -5.18894,-9.20495c1.47091,-2.25508 6.1789,-1.79008 10.51559,1.0386c4.33669,2.82868 6.65985,6.94987 5.18894,9.20495z" fill="#282828" fill-rule="nonzero" stroke="none" stroke-width="0" stroke-linecap="butt" stroke-linejoin="miter"/><path d="M299.37725,50.38022c-4.45045,6.82305 -13.35507,8.89929 -19.889,4.63742c-6.53394,-4.26187 -8.22294,-13.24798 -3.77248,-20.07104c4.45045,-6.82305 13.35507,-8.89929 19.889,-4.63742c6.53394,4.26187 8.22294,13.24798 3.77248,20.07104z" fill="#ffffff" fill-rule="nonzero" stroke="none" stroke-width="0" stroke-linecap="butt" stroke-linejoin="miter"/><path d="M338.57454,75.10917c-4.45045,6.82305 -13.35507,8.89929 -19.889,4.63742c-6.53394,-4.26187 -8.22294,-13.24798 -3.77248,-20.07104c4.45045,-6.82305 13.35507,-8.89929 19.889,-4.63742c6.53394,4.26187 8.22294,13.24798 3.77248,20.07104z" fill="#ffffff" fill-rule="nonzero" stroke="none" stroke-width="0" stroke-linecap="butt" stroke-linejoin="miter"/><path d="M294.8848,53.15536c-3.43213,5.26185 -10.62061,6.6534 -16.05592,3.10812c-5.43532,-3.54528 -7.05921,-10.68486 -3.62708,-15.9467c3.43213,-5.26185 10.62061,-6.6534 16.05592,-3.10812c5.43532,3.54528 7.05921,10.68486 3.62708,15.9467z" fill="#181818" fill-rule="nonzero" stroke="none" stroke-width="0" stroke-linecap="butt" stroke-linejoin="miter"/><path d="M334.29715,77.06667c-3.43213,5.26185 -10.62061,6.6534 -16.05592,3.10812c-5.43532,-3.54528 -7.05921,-10.68486 -3.62708,-15.9467c3.43213,-5.26185 10.62061,-6.6534 16.05592,-3.10812c5.43532,3.54528 7.05921,10.68486 3.62708,15.9467z" fill="#181818" fill-rule="nonzero" stroke="none" stroke-width="0" stroke-linecap="butt" stroke-linejoin="miter"/><path d="M290.87406,49.5489c-1.01832,1.56121 -4.04694,1.38981 -6.76459,-0.38283c-2.71765,-1.77264 -4.09524,-4.47525 -3.07691,-6.03646c1.01832,-1.56121 4.04694,-1.38981 6.76459,0.38283c2.71765,1.77264 4.09524,4.47525 3.07691,6.03646z" fill="#ffffff" fill-rule="nonzero" stroke="none" stroke-width="0" stroke-linecap="butt" stroke-linejoin="miter"/><path d="M330.70905,73.59184c-0.98061,1.50339 -4.02552,1.25454 -6.801,-0.55582c-2.77548,-1.81036 -4.23051,-4.49667 -3.2499,-6.00005c0.98061,-1.50339 4.02552,-1.25454 6.801,0.55582c2.77548,1.81036 4.23051,4.49667 3.2499,6.00005z" fill="#ffffff" fill-rule="nonzero" stroke="none" stroke-width="0" stroke-linecap="butt" stroke-linejoin="miter"/><path d="M281.40028,25.64951c2.53289,-2.40371 7.33254,-4.18855 9.7186,-4.06272c3.61459,0.19062 7.54656,5.19945 9.94042,7.56831c2.78655,4.1535 4.43365,8.27992 5.44921,13.1772c0.31284,1.50858 1.24003,2.73807 1.02858,4.34573c-0.28634,2.17699 -1.8612,5.13688 -3.14075,6.87987c-0.67205,0.91545 -1.19116,2.25154 -2.29514,2.51783c-0.75548,0.18223 -1.17449,-1.01831 -1.7482,-1.54253c-1.67811,-1.53337 -3.07254,-3.48347 -4.41369,-5.30569c-3.82752,-5.44872 -7.49263,-10.8554 -11.52062,-16.16072c-0.49638,-0.6538 -0.99973,-1.3582 -1.52423,-2.06184l-1.43481,0.52129c-1.66301,-1.25565 -1.9913,-2.59122 -1.50717,-3.86259c-0.35374,-0.30557 -0.72144,-0.58394 -1.1055,-0.82638c0,0 -1.04697,-0.6829 -0.36407,-1.72987c0.6829,-1.04697 1.72987,-0.36407 1.72987,-0.36407c0.41263,0.27588 0.80753,0.57995 1.1875,0.90617z" fill="#000000" fill-rule="nonzero" stroke="none" stroke-width="0.5" stroke-linecap="butt" stroke-linejoin="miter"/><path d="M346.36061,69.77223c0,0 1.04697,0.6829 0.36407,1.72987c-0.6829,1.04697 -1.72987,0.36407 -1.72987,0.36407c-0.37668,-0.25378 -0.77964,-0.47808 -1.20186,-0.67864c-0.96838,0.9555 -2.32299,1.19338 -4.14242,0.17755l-0.10125,-1.5232c-0.85536,-0.1964 -1.7029,-0.37313 -2.5013,-0.56389c-6.47881,-1.54791 -12.90412,-2.72289 -19.43338,-4.02956c-2.2082,-0.49292 -4.55492,-0.98305 -6.63461,-1.90077c-0.711,-0.31374 -1.97858,-0.21332 -2.11632,-0.97816c-0.20127,-1.11767 0.81225,-2.13127 1.37916,-3.11528c1.0794,-1.87354 3.15344,-4.50784 5.03035,-5.64735c1.38605,-0.8415 2.88496,-0.48853 4.39167,-0.81028c4.89118,-1.0445 9.33145,-1.20033 14.25578,-0.32428c3.13279,1.23599 9.30156,2.81555 10.93291,6.0467c1.0769,2.13294 1.37802,7.24485 0.19912,10.53172c0.45169,0.21624 0.88914,0.45509 1.30794,0.72152z" data-paper-data="{&quot;index&quot;:null}" fill="#000000" fill-rule="nonzero" stroke="none" stroke-width="0.5" stroke-linecap="butt" stroke-linejoin="miter"/><path d="M258.93066,96.76756c-4.37502,6.70741 -17.48405,5.90761 -29.27984,-1.7864c-11.79578,-7.694 -17.8115,-19.36866 -13.43648,-26.07606c4.37502,-6.70741 17.48405,-5.90761 29.27984,1.7864c11.79578,7.694 17.8115,19.36866 13.43648,26.07606z" fill="#000000" fill-rule="nonzero" stroke="none" stroke-width="0" stroke-linecap="butt" stroke-linejoin="miter"/><path d="M320.74719,139.27732c-4.37502,6.70741 -17.48405,5.90761 -29.27984,-1.7864c-11.79578,-7.694 -17.8115,-19.36866 -13.43648,-26.07606c4.37502,-6.70741 17.48405,-5.90761 29.27984,1.7864c11.79578,7.694 17.8115,19.36866 13.43648,26.07606z" fill="#000000" fill-rule="nonzero" stroke="none" stroke-width="0" stroke-linecap="butt" stroke-linejoin="miter"/><g fill-rule="nonzero" stroke-linejoin="miter"><path d="M-103.21248,235.33002l105.3014,-184.05298l531.65488,299.49203l-213.17825,127.01517c0,0 -230.03632,-23.23691 -306.34511,-66.89512c-61.92392,-35.42825 -117.43292,-175.55909 -117.43292,-175.55909z" fill="#613700" stroke="none" stroke-width="0" stroke-linecap="butt"/><path d="M42.68707,225.80033l275.57837,151.33894" fill="none" stroke="#512e00" stroke-width="5" stroke-linecap="round"/><path d="M44.32836,149.28047l215.50641,120.7671" fill="none" stroke="#512e00" stroke-width="5" stroke-linecap="round"/></g><path d="M-85.8159,361.4838l254.19476,-157.3437l72.61673,61.55491l-137.09698,171.23584z" fill="#522f00" fill-rule="nonzero" stroke="none" stroke-width="0" stroke-linecap="butt" stroke-linejoin="miter"/><g fill-rule="nonzero" stroke-linecap="butt" stroke-linejoin="miter"><path d="M276.80719,204.83163c-0.53112,0.7313 -31.23442,61.27642 -31.7826,61.98413c-5.04114,6.50814 -91.49663,-57.44279 -87.14283,-64.01534c0.68643,-1.03625 40.14226,-53.62997 40.88253,-54.64924c20.8812,-28.75116 55.27924,-39.37023 76.8302,-23.71835c21.55095,15.65187 22.0939,51.64765 1.21271,80.39881z" fill="#555555" stroke="#2e2e2e" stroke-width="2"/><text transform="translate(197.67296,173.02907) rotate(35.98997) scale(1.14019,1.14019)" font-size="40" xml:space="preserve" fill="#2e2e2e" fill-rule="nonzero" stroke="none" stroke-width="1" stroke-linecap="butt" stroke-linejoin="miter" stroke-miterlimit="10" stroke-dasharray="" stroke-dashoffset="0" font-family="Serif" font-weight="normal" text-anchor="start" style="mix-blend-mode: normal"><tspan x="0" dy="0">RIP</tspan></text></g><g><path d="M211.37576,201.5743c0.97834,2.99214 -4.73938,7.54661 -12.7709,10.17271c-8.03152,2.62609 -15.33547,2.32937 -16.31382,-0.66277c-0.48496,-1.48316 -2.03726,-4.56744 0.23457,-6.39321c2.31138,-1.85754 8.48592,-2.45513 12.53633,-3.77951c8.03152,-2.62609 15.33547,-2.32937 16.31382,0.66277z" data-paper-data="{&quot;index&quot;:null}" fill="#ffab19" fill-rule="nonzero" stroke="#001026" stroke-width="1.2" stroke-linecap="butt" stroke-linejoin="miter"/><g data-paper-data="{&quot;index&quot;:null}" fill-rule="evenodd"><path d="M210.80092,222.28205c-0.008,1.02953 -6.5161,4.81565 -7.66813,8.07031c-0.74664,2.33507 -1.47838,5.25304 -0.74541,8.42523c1.55642,7.19983 7.76919,12.66806 4.07023,14.94133c-3.7482,2.3603 -15.10062,-4.17747 -12.57448,-16.76551c0.84968,-4.34489 2.72088,-7.65224 4.33443,-10.3011c0.39394,-0.69628 4.4009,-6.35705 8.54193,-6.77166c4.14103,-0.41462 4.08723,1.50817 4.04143,2.40142z" fill="#ffab19" stroke="#001026" stroke-width="1.2" stroke-linecap="round" stroke-linejoin="round"/><path d="M205.63872,247.85552c1.21395,2.52514 2.27327,3.69896 0.94028,5.2427c-1.50706,1.44526 -5.65497,0.24744 -8.2088,-2.3464c-2.55383,-2.59384 -3.33259,-4.87277 -3.8239,-6.64438c0.51076,0.51876 2.22858,1.95023 4.19716,1.11078c2.51369,-0.99063 3.55233,-4.65413 3.55233,-4.65413c0,0 1.78084,4.56931 3.34293,7.29142z" fill="#ffffff" stroke="none" stroke-width="1" stroke-linecap="butt" stroke-linejoin="miter"/></g><path d="M190.79363,228.20908c0,0 -6.78478,-11.37886 -7.88687,-13.23977c-0.27624,-0.46644 -0.20554,3.02019 -0.20554,3.02019c0.05064,-0.03659 0.07333,-4.18868 0.12394,-4.22529c2.52705,-1.82801 6.19833,-6.65255 8.5353,-2.5705c2.33696,4.08205 2.83044,4.46274 3.66324,6.27711c0.9509,2.07161 -0.55779,4.37946 -0.55779,4.37946l-3.67227,6.35881z" data-paper-data="{&quot;index&quot;:null}" fill="#ffab19" fill-rule="nonzero" stroke="#000000" stroke-width="1.25" stroke-linecap="butt" stroke-linejoin="miter"/><path d="M185.40319,210.02401c1.90039,-1.37759 16.32801,13.81014 16.32801,13.81014l-5.33465,3.15936c0,0 -2.45278,-0.21671 -3.96298,-2.76673c-1.47985,-2.49877 -4.59271,-8.99928 -7.03039,-14.20277z" data-paper-data="{&quot;index&quot;:null}" fill="#ffab19" fill-rule="nonzero" stroke="none" stroke-width="0" stroke-linecap="butt" stroke-linejoin="miter"/><g data-paper-data="{&quot;index&quot;:null}" fill-rule="evenodd"><path d="M197.97031,225.51423c0,0 -0.99616,-0.83362 -2.7403,-2.17222c-0.43688,-1.25914 -0.94324,-2.48042 -1.06979,-3.33318c-0.39283,-2.64718 0.93086,-6.40679 1.11873,-7.91222l0.32938,0.21794c0.62414,-1.36398 1.83454,-2.85561 3.74153,-4.90825c1.57997,-1.67442 4.89747,-3.82946 4.89747,-3.82946c2.25133,-1.41121 6.81383,-3.01856 7.41811,0.22718c0.37028,2.17092 1.08886,4.06134 2.30069,7.27715c2.44888,5.60741 3.46457,6.51204 -0.00977,9.827c-4.11578,3.65929 -6.06788,11.14591 -15.98607,4.60607z" fill="#ffab19" stroke="#001026" stroke-width="1.2" stroke-linecap="round" stroke-linejoin="round"/><path d="M195.89751,213.17271c0,0 1.39249,-3.47576 5.3215,-6.58268c0,0 2.03859,-2.38832 5.59151,1.2389c3.79089,3.7801 1.02576,6.12191 -0.9364,8.39126c-2.15237,2.16071 -6.37822,5.18131 -9.36432,4.76048c-0.626,-0.08823 -2.16828,-1.74864 -2.54683,-2.02097c-1.80604,-1.24428 1.93453,-5.787 1.93453,-5.787z" fill="#ffffff" stroke="none" stroke-width="1" stroke-linecap="butt" stroke-linejoin="miter"/></g><path d="M238.51348,168.1011c1.97164,1.25005 3.88284,2.71541 5.82129,4.74579c3.34505,3.30767 5.53366,7.59136 5.53366,7.59136l14.26869,2.28576c0.43058,0.12084 0.59905,0.67906 0.25612,0.90797l-13.58804,11.83998c0.0936,-0.99561 -0.75748,16.602 -13.67747,20.26862c-12.91998,3.66662 -27.52731,-2.70881 -38.95796,-18.08639c-11.43066,-15.37759 -7.42771,-26.33096 -2.70747,-29.74407c4.72023,-3.41312 11.38823,-0.19477 11.38823,-0.19477c0,0 3.09919,-3.2642 9.16561,-5.18474c3.62504,-1.16577 11.52269,-0.34284 11.52269,-0.34284l9.11797,-6.17355c0.34293,-0.2289 0.78031,0.03319 0.86796,0.38293z" fill="#ffab19" fill-rule="evenodd" stroke="#001026" stroke-width="1.2" stroke-linecap="butt" stroke-linejoin="miter"/><path d="M206.80371,168.21317c7.57,4.30756 3.92704,9.50938 8.92121,14.71977c5.81533,6.09113 20.44652,7.08516 18.21354,19.51069c-2.16577,12.35149 -20.35993,15.28116 -34.91437,-4.68903c-11.34981,-15.1691 -7.97911,-26.02121 -3.25887,-29.43432c4.72024,-3.41311 11.03851,-0.10712 11.03851,-0.10712z" fill="#ffffff" fill-rule="evenodd" stroke="none" stroke-width="1" stroke-linecap="butt" stroke-linejoin="miter"/><path d="M214.67552,188.30865c7.845,4.71868 5.98233,10.90742 3.65805,15.23151c-0.1675,0.36324 -0.65637,0.46816 -0.97773,0.20985c-1.43228,-1.43129 -5.66605,-5.14547 -10.94717,-8.02118c-4.77814,-2.53365 -7.8097,-3.6012 -9.29748,-3.95689c-0.49592,-0.11857 -0.64979,-0.7401 -0.25879,-1.11042c1.9479,-2.07501 8.53928,-7.29456 17.82312,-2.35289z" data-paper-data="{&quot;index&quot;:null}" fill="#ffffff" fill-rule="evenodd" stroke="#001026" stroke-width="1.2" stroke-linecap="round" stroke-linejoin="round"/><path d="M198.63038,167.54509c0,0 -5.26307,-4.91427 -6.188,-10.88709" fill="none" fill-rule="evenodd" stroke="#001026" stroke-width="1.2" stroke-linecap="round" stroke-linejoin="round"/><path d="M194.36793,171.64407c0,0 -4.16454,-1.2152 -8.49242,-5.82056" fill="none" fill-rule="evenodd" stroke="#001026" stroke-width="1.2" stroke-linecap="round" stroke-linejoin="round"/><path d="M217.76894,181.27701c1.48064,1.34451 3.41227,3.23364 2.53153,4.05479c-1.07561,1.18451 -5.86558,0.21184 -7.06371,-1.14629c-1.11729,-1.14964 -0.34545,-4.23092 0.66974,-5.20014c0.54461,-0.451 2.30776,0.8799 3.86243,2.29164z" fill="#001026" fill-rule="evenodd" stroke="#001026" stroke-width="1.2" stroke-linecap="round" stroke-linejoin="round"/><path d="M239.16752,206.65161c4.67511,0.0579 12.92417,3.76641 12.92417,3.76641" fill="none" fill-rule="evenodd" stroke="#001026" stroke-width="1.2" stroke-linecap="round" stroke-linejoin="round"/><path d="M244.85089,217.35064c0,0 -6.21784,-4.16033 -8.25838,-8.30958" fill="none" fill-rule="evenodd" stroke="#001026" stroke-width="1.2" stroke-linecap="round" stroke-linejoin="round"/><path d="M216.89854,164.68268c5.17207,-1.3819 10.13054,0.149 10.92615,3.43792c0.86283,3.21489 -2.6397,6.9233 -7.81178,8.30519c-5.24611,1.31467 -10.06331,-0.22303 -10.92614,-3.43793c-0.86283,-3.21489 2.63971,-6.9233 7.81178,-8.30519z" fill="#ffffff" fill-rule="evenodd" stroke="#001026" stroke-width="1.2" stroke-linecap="round" stroke-linejoin="round"/><path d="M224.51474,170.44501c0.73947,-0.81435 1.93677,-0.94284 2.67708,-0.27058c0.74032,0.67225 0.72754,1.87634 -0.01194,2.69069c-0.73947,0.81435 -1.93677,0.94284 -2.67708,0.27058c-0.74031,-0.67226 -0.72754,-1.87634 0.01194,-2.6907" fill="#001026" fill-rule="evenodd" stroke="none" stroke-width="1" stroke-linecap="butt" stroke-linejoin="miter"/><path d="M244.39675,187.35641c0.81603,3.71269 -3.16389,7.79807 -8.4168,8.97148c-5.17889,1.24064 -9.37745,-0.68084 -10.54321,-4.30589c-0.72157,-3.2217 2.76054,-7.35387 7.93942,-8.59451c5.17888,-1.24064 10.27179,0.1422 11.0206,3.92892z" fill="#ffffff" fill-rule="evenodd" stroke="#001026" stroke-width="1.2" stroke-linecap="round" stroke-linejoin="round"/><path d="M239.84533,189.4491c0.73947,-0.81435 1.86954,-0.8688 2.67708,-0.27058c0.74031,0.67226 0.72755,1.87634 -0.01194,2.69069c-0.73948,0.81434 -1.93677,0.94284 -2.67708,0.27058c-0.74032,-0.67225 -0.72755,-1.87634 0.01194,-2.69069" fill="#001026" fill-rule="evenodd" stroke="none" stroke-width="1" stroke-linecap="butt" stroke-linejoin="miter"/><g data-paper-data="{&quot;index&quot;:null}" fill="#ffab19" fill-rule="nonzero" stroke-linecap="butt" stroke-linejoin="miter"><path d="M173.75413,225.43418c0,0 3.34527,-4.56847 7.20721,-9.3628c0.7773,-0.96497 2.02066,-1.41803 2.77161,-2.41876c2.74997,1.51452 4.64951,2.46796 7.34261,4.07602c0.0405,0.02419 0.081,0.04838 0.12149,0.07258l-9.68497,13.28756z" stroke="#000000" stroke-width="1.25"/><path d="M168.73402,222.47477c1.50813,-2.06913 5.55283,-1.68953 9.03406,0.84785c3.48123,2.53737 5.08075,6.2717 3.57261,8.34083c-1.50814,2.06913 -5.55282,1.68954 -9.03407,-0.84784c-3.48123,-2.53737 -5.08075,-6.2717 -3.57261,-8.34083z" stroke="#000000" stroke-width="1.25"/><path d="M184.17217,223.47784c0.50507,0.36813 0.0888,0.93925 0.0888,0.93925l-0.05309,0.032c-0.34707,0.86267 -1.43762,3.96052 -2.50456,5.25009c-0.18391,0.32425 -0.37732,0.62739 -0.57667,0.9009l-0.05572,0.02552l0.01646,0.01751l-0.5257,0.53546c-0.2368,0.24893 -0.60064,0.30716 -0.85415,0.12238c-0.23529,-0.17149 -0.3004,-0.49752 -0.17706,-0.78466c-0.05474,-0.01793 -0.10711,-0.04435 -0.15547,-0.07959c-0.27894,-0.20333 -0.3187,-0.62383 -0.08881,-0.93925l0.51802,-0.71071c0.03027,-0.04153 0.06206,-0.08685 0.09524,-0.13548c-0.16589,0.0803 -0.33694,0.14578 -0.51394,0.19434c-0.12979,0.1316 -0.24241,0.22145 -0.32023,0.23859c-0.0189,0.00416 -0.03755,0.00726 -0.05599,0.00936l-0.02261,0.15817l-0.43728,-0.01476c-0.00818,0.00638 -0.01636,0.01274 -0.02456,0.01911l0.12704,0.17479l-0.6857,0.56993c-0.23549,0.204 -0.56475,0.24121 -0.79947,0.07013c-0.23471,-0.17108 -0.30008,-0.49596 -0.17794,-0.78257l0.31933,-0.79409c0.04953,-0.17658 0.18886,-0.47085 0.36966,-0.82594c0.01252,-0.14711 0.068,-0.39316 0.28725,-0.55383c0.12329,-0.23556 0.25283,-0.4826 0.37878,-0.72955c-0.29371,-0.3821 -0.60553,-0.81468 -0.7823,-1.26507l-0.07927,0.10878c-0.22989,0.31541 -0.6424,0.4063 -0.92134,0.20298c-0.22721,-0.16561 -0.29575,-0.47531 -0.18912,-0.75494l0.25901,-0.7249l0.02013,0.00556l0.00014,-0.05653c0.10192,-0.19245 0.20813,-0.38271 0.31737,-0.57143l0.24375,-0.88923c0.02349,-0.09326 0.0657,-0.18516 0.12721,-0.26954c0.2299,-0.31542 0.6424,-0.4063 0.92134,-0.20298c0.12083,0.08807 0.19676,0.21687 0.22537,0.36026l0.09221,0.44216c0.84015,-0.12155 1.81849,0.21272 2.04494,1.05972c0.01806,0.06763 0.03122,0.13595 0.03986,0.20489c0.1865,0.15877 0.36033,0.32182 0.51471,0.47687c1.10707,-1.46307 2.25056,-3.06186 2.59401,-3.68539c0,0 0.34067,-0.61745 0.89953,-0.33378c0.55885,0.28368 0.21821,0.90111 0.21821,0.90111c-0.39388,0.71275 -0.8316,1.37406 -1.29225,2.00976c0.15807,-0.06842 0.35826,-0.08319 0.57477,0.07461zM180.23196,225.69153c0.03366,-0.03184 0.06719,-0.06336 0.10055,-0.09453c-0.01064,-0.01354 -0.02126,-0.02699 -0.03185,-0.04033c-0.02222,0.04487 -0.04515,0.08984 -0.06869,0.13486z" stroke="none" stroke-width="0.5"/><path d="M181.21671,218.23219l3.98868,-5.47237c2.03399,1.14091 4.04726,2.32758 6.04983,3.52034c-2.80429,3.15227 -5.02817,5.60395 -5.02817,5.60395z" stroke="none" stroke-width="0"/></g><g data-paper-data="{&quot;index&quot;:null}" fill="#ffab19" fill-rule="nonzero" stroke-linecap="butt" stroke-linejoin="miter"><path d="M187.77491,236.02273c0,0 8.4482,-12.0572 10.89253,-14.57677c1.06631,-1.09912 3.47609,-0.2341 3.47609,-0.2341l6.4091,1.98908l-13.26107,18.77422z" stroke="#000000" stroke-width="1.25"/><path d="M192.60133,235.71709c3.43953,2.59435 4.94539,6.38738 3.36343,8.47193c-1.58196,2.08455 -5.65268,1.67127 -9.09222,-0.92309c-3.43953,-2.59435 -4.94539,-6.38737 -3.36342,-8.47192c1.58196,-2.08455 5.65268,-1.67127 9.09221,0.92308z" stroke="#000000" stroke-width="1.25"/><path d="M196.46153,236.28555c0.48936,0.38754 0.21492,0.77607 0.21492,0.77607l-0.04101,0.0165c-0.17187,0.63683 -0.65483,2.95126 -1.38393,3.80607c-0.11066,0.22989 -0.2326,0.441 -0.36404,0.62708l-0.04424,0.01079l0.01677,0.01708l-0.37397,0.34029c-0.16733,0.15954 -0.47218,0.14218 -0.7178,-0.05234c-0.22797,-0.18052 -0.33211,-0.456 -0.26816,-0.66657c-0.0498,-0.02421 -0.09881,-0.05488 -0.14567,-0.09198c-0.27027,-0.21403 -0.36649,-0.56148 -0.21492,-0.77607l0.34152,-0.48351c0.01995,-0.02826 0.04067,-0.05929 0.06208,-0.09278c-0.1311,0.03559 -0.26879,0.05829 -0.41412,0.06623c-0.09242,0.08353 -0.1762,0.13628 -0.24071,0.13636c-0.01566,0.00002 -0.03127,-0.00078 -0.04684,-0.00235l0.00382,0.12403l-0.37889,-0.08945c-0.0061,0.00372 -0.01221,0.00743 -0.01834,0.01112l0.1352,0.164l-0.50672,0.33981c-0.1728,0.12341 -0.45097,0.09518 -0.67839,-0.08491c-0.22742,-0.18009 -0.3316,-0.45466 -0.26862,-0.66504l0.15807,-0.58623c0.01664,-0.13415 0.0933,-0.34767 0.19673,-0.60308c-0.01089,-0.11687 0.00064,-0.3062 0.16584,-0.39742c0.07149,-0.16883 0.14667,-0.34586 0.2188,-0.52344c-0.30935,-0.36138 -0.6417,-0.76681 -0.86036,-1.16274l-0.05227,0.074c-0.15157,0.21459 -0.49354,0.21505 -0.76381,0.00102c-0.22014,-0.17433 -0.3248,-0.43718 -0.27416,-0.64464l0.11631,-0.5409l0.01816,0.00807l-0.00821,-0.04573c0.05944,-0.13772 0.1229,-0.27292 0.18919,-0.40633l0.07895,-0.67663c0.00649,-0.07133 0.0293,-0.13824 0.06986,-0.19565c0.15157,-0.21459 0.49353,-0.21504 0.7638,-0.00101c0.11706,0.0927 0.20148,0.21043 0.24725,0.33156l0.1446,0.37426c0.70585,0.05051 1.59793,0.49451 1.91785,1.2203c0.02553,0.05795 0.04695,0.11559 0.06453,0.17293c0.18408,0.16159 0.35785,0.32436 0.5137,0.47725c0.73811,-0.98814 1.48759,-2.07971 1.69157,-2.52359c0,0 0.20249,-0.43944 0.72574,-0.11076c0.52325,0.32868 0.32078,0.76813 0.32078,0.76813c-0.23428,0.50716 -0.5139,0.96492 -0.81706,1.39788c0.1261,-0.02736 0.29639,-0.00384 0.50616,0.16228zM193.46605,237.32046c-0.01116,-0.01284 -0.02229,-0.02561 -0.03337,-0.03828c-0.01252,0.03239 -0.02564,0.06472 -0.0393,0.097c0.0243,-0.01982 0.04854,-0.03939 0.07268,-0.05871z" stroke="none" stroke-width="0.5"/><path d="M192.19054,231.95341c0,0 7.39967,-11.34324 9.3444,-12.77785c1.94474,-1.43461 6.46112,1.11831 6.46112,1.11831c0,0 1.0082,2.02975 -0.1427,3.65913c-2.00288,2.83556 -10.80832,11.84469 -10.80832,11.84469z" stroke="none" stroke-width="0"/></g><path d="M197.02937,222.69964c-0.39353,-0.48556 0.09202,-0.87908 0.09202,-0.87908l0.41874,-0.33843c0.96238,-0.70445 1.97959,-1.3145 3.02866,-1.8805c1.42154,-0.77483 3.39253,-1.93432 5.04502,-1.96466c3.99042,-0.07326 4.28898,4.00169 2.63891,6.61987c0,0 -0.33404,0.52824 -0.86228,0.19419c-0.52824,-0.33404 -0.19419,-0.86228 -0.19419,-0.86228c1.1123,-1.75233 1.44139,-4.78059 -1.56098,-4.70196c-1.43955,0.0377 -3.23192,1.13699 -4.47044,1.81358c-0.99941,0.53877 -1.96986,1.11831 -2.88597,1.7901l-0.37041,0.30118c0,0 -0.48554,0.39353 -0.87908,-0.09202z" data-paper-data="{&quot;index&quot;:null}" fill="#000000" fill-rule="nonzero" stroke="none" stroke-width="0.5" stroke-linecap="butt" stroke-linejoin="miter"/><path d="M201.27106,215.07814c7.38025,-4.11507 14.60589,-5.22209 16.13897,-2.47258c1.53307,2.74949 -3.20701,8.31434 -10.58725,12.4294c-7.38025,4.11506 -14.6059,5.22208 -16.13897,2.47258c-0.75993,-1.36289 -2.87397,-4.09296 -0.99368,-6.31987c1.91302,-2.26568 7.85898,-4.03426 11.58093,-6.10954z" data-paper-data="{&quot;index&quot;:null}" fill="#ffab19" fill-rule="nonzero" stroke="#001026" stroke-width="1.2" stroke-linecap="butt" stroke-linejoin="miter"/><path d="M243.66079,200.07327c0.37756,0.32779 0.04977,0.70535 0.04977,0.70535l-0.04793,0.05521c-1.59851,1.84121 -3.64971,2.85877 -5.89021,3.73023c-2.1728,0.69007 -6.02676,0.02451 -3.49182,-2.9231c1.41801,-1.64885 3.90968,-2.67335 5.84011,-3.53316c0,0 0.45674,-0.20343 0.66017,0.25331c0.20343,0.45674 -0.25331,0.66018 -0.25331,0.66018c-1.75111,0.77993 -3.69418,1.64948 -5.1514,2.93224c-2.2713,1.99937 0.48416,2.16815 2.06348,1.66753c2.07519,-0.80842 3.98693,-1.73702 5.46785,-3.4428l0.04793,-0.05521c0,0 0.32779,-0.37756 0.70535,-0.04977z" fill="#001026" fill-rule="nonzero" stroke="none" stroke-width="0.5" stroke-linecap="butt" stroke-linejoin="miter"/></g><path d="M290.22935,106.66732c-3.40422,4.56976 -12.40763,3.62302 -20.10969,-2.1146c-7.70207,-5.73762 -11.18616,-14.09339 -7.78194,-18.66314c3.40422,-4.56976 12.40763,-3.62302 20.1097,2.1146c7.70207,5.73762 11.18615,14.09339 7.78194,18.66315z" fill="#0f0f0f" fill-rule="nonzero" stroke="none" stroke-width="0" stroke-linecap="butt" stroke-linejoin="miter"/><g fill-rule="nonzero" stroke-width="2.5" stroke-linecap="butt" stroke-linejoin="miter"><path d="M373.08251,261.29658c-7.33149,14.38236 -29.16649,17.94071 -48.76983,7.9478c-19.60336,-9.99292 -29.55166,-29.75297 -22.22017,-44.13534c7.33149,-14.38236 29.16649,-17.94071 48.76983,-7.9478c19.60336,9.99292 29.55166,29.75297 22.22017,44.13534z" data-paper-data="{&quot;index&quot;:null}" fill="#ff8700" stroke="#d36e00"/><path d="M365.20971,256.19297c-6.85672,13.45101 -24.84516,18.01898 -40.1783,10.20283c-15.33314,-7.81615 -22.20464,-25.05659 -15.34791,-38.50761c6.85672,-13.45101 24.84516,-18.01898 40.17831,-10.20282c15.33314,7.81615 22.20463,25.05658 15.3479,38.5076z" fill="#ff8700" stroke="#d36e00"/><path d="M342.0704,217.12234l9.37224,-18.38576l13.79205,7.03057l-9.37224,18.38576z" fill="#5d3500" stroke="#512a00"/><path d="M357.54405,253.37577c-6.85672,13.45101 -21.35005,19.80063 -32.37175,14.18226c-11.0217,-5.61837 -14.39807,-21.07715 -7.54134,-34.52817c6.85672,-13.45101 21.35005,-19.80063 32.37175,-14.18226c11.0217,5.61837 14.39807,21.07715 7.54134,34.52817z" fill="#ff8700" stroke="#d36e00"/><path d="M313.78638,239.02149c0.09121,-0.21371 0.23613,-0.43382 0.45215,-0.65472c1.32718,-1.3571 2.68428,-0.02993 2.68428,-0.02993c2.46283,2.41025 5.12801,4.59148 7.54185,7.05481c1.20192,1.22655 2.48911,3.12729 3.87766,4.12733c0.78342,0.56422 1.68466,0.0414 2.45048,-0.15939c1.58834,-0.41644 4.8312,-2.01318 6.36642,-1.7636c3.58564,0.58289 5.32194,5.99235 7.03131,8.72429c1.01237,1.35799 2.72477,0.7156 4.40867,0.6179c2.02616,-0.11756 4.11068,-0.35773 6.13978,-0.32839c1.17624,0.017 2.81289,-0.71078 3.52172,0.22804c0.8416,1.11468 0.32253,2.88623 -0.18914,4.18585c-0.36956,0.93865 -1.48601,1.36535 -2.25399,2.01944c-1.87525,1.59717 -3.88265,2.93918 -5.97221,4.23445c-2.18276,1.35305 -6.0469,3.33496 -8.7357,2.95547c-2.93519,-0.41426 -6.43013,-4.27442 -8.29593,-6.43358c-3.24564,-0.43428 -6.65275,0.29034 -9.94238,0.15994c-0.93104,-0.0369 -1.94194,0.1722 -2.78656,-0.22126c-2.73515,-1.27411 -3.23779,-4.1405 -3.7399,-6.66407c-0.99799,-5.01586 -3.3914,-9.29578 -4.01802,-14.4343l0.19201,-2.01851c0,0 0.15758,-1.27956 1.26753,-1.59977z" fill="#000000" stroke="#d36e00"/><path d="M360.94606,235.08053c1.10232,3.06874 -1.53738,17.24572 -1.53738,17.24572l-13.88958,-6.75271c0,0 15.05473,-11.5293 15.42698,-10.493z" fill="#000000" stroke="#d36e00"/><path d="M331.59639,236.72303l-13.00822,-8.32503c0,0 10.71639,-9.64953 13.90941,-10.31049c1.07827,-0.22321 -0.90119,18.63552 -0.90119,18.63552z" data-paper-data="{&quot;index&quot;:null}" fill="#000000" stroke="#d36e00"/></g><g fill-rule="nonzero" stroke-width="2.5" stroke-linecap="butt" stroke-linejoin="miter"><path d="M89.45091,236.8745c-10.6969,12.09047 -32.7277,10.07228 -49.20716,-4.50772c-16.47947,-14.58002 -21.16716,-36.20071 -10.47026,-48.29118c10.6969,-12.09047 32.7277,-10.07228 49.20716,4.50773c16.47947,14.58002 21.16716,36.2007 10.47026,48.29117z" data-paper-data="{&quot;index&quot;:null}" fill="#ff8700" stroke="#d36e00"/><path d="M83.1055,229.96336c-10.0042,11.30752 -28.56341,11.2293 -41.45314,-0.17474c-12.88973,-11.40404 -15.22892,-29.81541 -5.22471,-41.12295c10.0042,-11.30752 28.56341,-11.2293 41.45315,0.17475c12.88973,11.40404 15.22891,29.8154 5.2247,41.12293z" fill="#ff8700" stroke="#d36e00"/><path d="M70.47808,186.34582l13.67443,-15.4559l11.59422,10.25785l-13.67443,15.45591z" fill="#5d3500" stroke="#512a00"/><path d="M76.38858,225.31776c-10.0042,11.30752 -25.62526,13.8288 -34.8906,5.63139c-9.26534,-8.1974 -8.66637,-24.00927 1.33784,-35.3168c10.0042,-11.30752 25.62526,-13.8288 34.8906,-5.63139c9.26534,8.1974 8.66637,24.00927 -1.33784,35.3168z" fill="#ff8700" stroke="#d36e00"/><path d="M37.61437,200.47143c0.14179,-0.18409 0.33717,-0.36094 0.60158,-0.52076c1.62453,-0.98186 2.60639,0.64266 2.60639,0.64266c1.78142,2.94981 3.81606,5.72851 5.53677,8.71746c0.85679,1.48827 1.62746,3.65062 2.72162,4.96627c0.61732,0.74229 1.62071,0.4616 2.41241,0.45882c1.64201,-0.00577 5.18125,-0.74033 6.60519,-0.11456c3.32573,1.46152 3.65331,7.13335 4.62475,10.20609c0.64039,1.5681 2.45904,1.37461 4.11383,1.70134c1.99113,0.39315 4.06943,0.68218 6.02665,1.21829c1.13457,0.31077 2.90126,0.01564 3.35264,1.10196c0.53593,1.2898 -0.40989,2.87513 -1.23046,4.00538c-0.59266,0.81632 -1.78036,0.9501 -2.68757,1.39123c-2.21523,1.07716 -4.49457,1.87421 -6.84175,2.60545c-2.45187,0.76386 -6.689,1.71588 -9.19733,0.6757c-2.73817,-1.1355 -5.15609,-5.74734 -6.4223,-8.30467c-3.03373,-1.23256 -6.51379,-1.38348 -9.66615,-2.33283c-0.8922,-0.26868 -1.92325,-0.31917 -2.64256,-0.91145c-2.32935,-1.91795 -2.09881,-4.81892 -1.95352,-7.38786c0.28877,-5.10602 -0.95762,-9.84866 -0.2786,-14.98052l0.69096,-1.90626c0,0 0.47273,-1.19943 1.62749,-1.23173z" fill="#000000" stroke="#d36e00"/><path d="M84.26003,208.45568c0.29943,3.24694 -5.80354,16.31249 -5.80354,16.31249l-11.75818,-10.01323c0,0 17.46061,-7.39572 17.56173,-6.29924z" fill="#000000" stroke="#d36e00"/><path d="M55.43296,202.70234l-10.51144,-11.31501c0,0 12.78993,-6.66124 16.04676,-6.50225c1.09982,0.05368 -5.53532,17.81726 -5.53532,17.81726z" data-paper-data="{&quot;index&quot;:null}" fill="#000000" stroke="#d36e00"/></g><text transform="translate(101.5,62.96301) scale(1.02325,1.02325)" font-size="40" xml:space="preserve" fill="#000000" fill-rule="nonzero" stroke="none" stroke-width="1" stroke-linecap="butt" stroke-linejoin="miter" stroke-miterlimit="10" stroke-dasharray="" stroke-dashoffset="0" font-family="Curly" font-weight="normal" text-anchor="start" style="mix-blend-mode: normal"><tspan x="0" dy="0">Hide</tspan></text><text transform="translate(162.5,115.96301) scale(1.02325,1.02325)" font-size="40" xml:space="preserve" fill="#313131" fill-rule="nonzero" stroke="none" stroke-width="1" stroke-linecap="butt" stroke-linejoin="miter" stroke-miterlimit="10" stroke-dasharray="" stroke-dashoffset="0" font-family="Curly" font-weight="normal" text-anchor="start" style="mix-blend-mode: normal"><tspan x="0" dy="0">And</tspan></text><text transform="translate(256.5,138.75) scale(0.86836,0.86836)" font-size="40" xml:space="preserve" fill="#292929" fill-rule="nonzero" stroke="none" stroke-width="1" stroke-linecap="butt" stroke-linejoin="miter" stroke-miterlimit="10" stroke-dasharray="" stroke-dashoffset="0" font-family="Curly" font-weight="normal" text-anchor="start" style="mix-blend-mode: normal"><tspan x="0" dy="0">Spook</tspan></text><text transform="translate(102.5,63.96301) scale(1.02325,1.02325)" font-size="40" xml:space="preserve" fill="#b10000" fill-rule="nonzero" stroke="none" stroke-width="1" stroke-linecap="butt" stroke-linejoin="miter" stroke-miterlimit="10" stroke-dasharray="" stroke-dashoffset="0" font-family="Curly" font-weight="normal" text-anchor="start" style="mix-blend-mode: normal"><tspan x="0" dy="0">Hide</tspan></text><text transform="translate(162.5,116.96301) scale(1.02325,1.02325)" font-size="40" xml:space="preserve" fill="#b10000" fill-rule="nonzero" stroke="none" stroke-width="1" stroke-linecap="butt" stroke-linejoin="miter" stroke-miterlimit="10" stroke-dasharray="" stroke-dashoffset="0" font-family="Curly" font-weight="normal" text-anchor="start" style="mix-blend-mode: normal"><tspan x="0" dy="0">And</tspan></text><text transform="translate(257.5,139.75) scale(0.86837,0.86837)" font-size="40" xml:space="preserve" fill="#b10701" fill-rule="nonzero" stroke="none" stroke-width="1" stroke-linecap="butt" stroke-linejoin="miter" stroke-miterlimit="10" stroke-dasharray="" stroke-dashoffset="0" font-family="Curly" font-weight="normal" text-anchor="start" style="mix-blend-mode: normal"><tspan x="0" dy="0">Spook</tspan></text></g></g></svg>