<svg version="1.1" xmlns="http://www.w3.org/2000/svg" xmlns:xlink="http://www.w3.org/1999/xlink" width="89.04606" height="108.02935" viewBox="0,0,89.04606,108.02935"><g transform="translate(-193.766,-128.05615)"><g data-paper-data="{&quot;isPaintingLayer&quot;:true}" stroke-miterlimit="10" stroke-dasharray="" stroke-dashoffset="0" style="mix-blend-mode: normal"><path d="M250.29983,199.3656c-6.97249,-4.77348 -11.18318,-10.74892 -9.40481,-13.34652c1.77836,-2.5976 8.87232,-0.83369 15.84481,3.93979c6.97249,4.77348 11.18318,10.74892 9.40481,13.34652c-0.88149,1.28759 -2.38356,4.39665 -5.21502,3.70561c-2.88073,-0.70307 -7.11346,-5.23807 -10.62977,-7.64539z" data-paper-data="{&quot;index&quot;:null}" fill="#ffab19" fill-rule="nonzero" stroke="#001026" stroke-width="1.2" stroke-linecap="butt" stroke-linejoin="miter"/><g fill="#ffab19" fill-rule="nonzero" stroke-linecap="butt" stroke-linejoin="miter"><g><path d="M255.701,229.19842l-24.85767,-23.41412l7.00872,-2.19037c0,0 2.58225,-0.96658 4.39529,0.41495c4.15616,3.16695 20.03592,18.20144 20.03592,18.20144z" stroke="#000000" stroke-width="1.25"/><path d="M266.67162,218.37599c1.8638,1.75557 0.9803,5.7208 -1.97338,8.85657c-2.95367,3.13578 -6.85902,4.25466 -8.72283,2.49909c-1.8638,-1.75557 -0.98029,-5.72079 1.9734,-8.85657c2.95367,-3.13578 6.85902,-4.25466 8.72282,-2.49909z" stroke="#000000" stroke-width="1.25"/><path d="M251.68319,222.20849c0.1837,-0.19503 0.38318,-0.21741 0.55117,-0.17931c-0.56996,-0.53986 -1.12212,-1.10911 -1.64066,-1.73702c0,0 -0.44866,-0.54403 0.04831,-0.92589c0.49697,-0.38186 0.94565,0.16219 0.94565,0.16219c0.45253,0.54951 1.87122,1.91004 3.22908,3.14389c0.12314,-0.18086 0.26393,-0.37316 0.41797,-0.5636c-0.00424,-0.06936 -0.00389,-0.13893 0.0014,-0.20873c0.0664,-0.87424 0.96632,-1.38316 1.81448,-1.41863l0.0091,-0.45158c0.00167,-0.14619 0.05256,-0.2868 0.15508,-0.39563c0.23668,-0.25127 0.65886,-0.23801 0.94297,0.02961c0.07601,0.07159 0.13444,0.15414 0.17472,0.24147l0.40354,0.82904c0.14216,0.16535 0.28164,0.33276 0.41728,0.50311l0.01057,0.05554l0.01875,-0.00918l0.38823,0.66472c0.15636,0.25518 0.14611,0.5722 -0.04666,0.77686c-0.23668,0.25127 -0.65886,0.23801 -0.94297,-0.02961l-0.09798,-0.09229c-0.09069,0.47526 -0.31738,0.95792 -0.53561,1.38762c0.16933,0.21949 0.34218,0.43841 0.5068,0.6472c0.24512,0.1175 0.34501,0.34909 0.38444,0.49136c0.24318,0.31567 0.43438,0.5792 0.51562,0.74361l0.46028,0.72161c0.17289,0.25919 0.16855,0.59053 -0.0306,0.80196c-0.19915,0.21143 -0.52963,0.23557 -0.79869,0.07847l-0.77902,-0.43371l0.09263,-0.19521c-0.00923,-0.00474 -0.01846,-0.00948 -0.02766,-0.01425l-0.42706,0.09513l-0.0514,-0.15129c-0.01851,0.00134 -0.03742,0.00173 -0.05674,0.00113c-0.07965,-0.0025 -0.20689,-0.07003 -0.35873,-0.17544c-0.18292,-0.0151 -0.36311,-0.04791 -0.54096,-0.09624c0.04158,0.04168 0.08117,0.08034 0.11858,0.11558l0.64019,0.60301c0.28412,0.26762 0.32258,0.68825 0.08591,0.93951c-0.04103,0.04356 -0.08763,0.07918 -0.13813,0.1069c0.17418,0.25947 0.1703,0.59193 -0.02933,0.80386c-0.2151,0.22836 -0.58342,0.23822 -0.86207,0.03722l-0.61542,-0.42936l0.01295,-0.02025l-0.05947,-0.01482c-0.24637,-0.23207 -0.49235,-0.49434 -0.73291,-0.77912c-1.28642,-1.07073 -2.92948,-3.91436 -3.42967,-4.69825l-0.05808,-0.02166c0,0 -0.51444,-0.48456 -0.08591,-0.93951zM255.96396,223.65768c-0.03145,-0.03991 -0.06227,-0.07987 -0.09239,-0.11988c-0.00794,0.01507 -0.01589,0.03024 -0.02387,0.04551c0.03853,0.02449 0.07729,0.04929 0.11625,0.07438z" stroke="none" stroke-width="0.5"/></g><path d="M250.74241,221.59119c0,0 -14.9416,-11.32637 -18.69598,-14.86272c-2.15734,-2.03205 -1.83157,-4.47273 -1.83157,-4.47273l4.25105,-4.51315l20.52755,19.33545z" stroke="none" stroke-width="0"/></g><g fill-rule="evenodd"><path d="M224.79437,203.50604c0.71886,0.53221 2.23779,1.7124 -0.71357,4.64659c-2.95136,2.93419 -9.86853,2.43148 -10.6565,2.29325c-3.07066,-0.43712 -6.8135,-1.09369 -10.70844,-3.19831c-11.32539,-6.04777 -9.16046,-18.96802 -4.95628,-20.3626c4.10569,-1.41185 4.3806,6.86006 8.95125,12.63666c1.98379,2.58159 4.70195,3.87062 6.97946,4.77777c3.2452,1.17843 10.30401,-1.44134 11.10408,-0.79336z" fill="#ffab19" stroke="#001026" stroke-width="1.2" stroke-linecap="round" stroke-linejoin="round"/><path d="M201.76688,191.2429c1.10943,2.93584 3.50624,7.21431 3.50624,7.21431c0,0 -3.48885,-1.52575 -5.85099,-0.21416c-1.89905,0.98672 -1.88518,3.22275 -1.80914,3.94677c-1.05583,-1.50506 -2.32076,-3.55444 -2.70099,-7.17458c-0.38023,-3.62014 1.33041,-7.58419 3.404,-7.82961c2.03903,-0.04842 2.27234,1.51541 3.45088,4.05727z" fill="#ffffff" stroke="none" stroke-width="1" stroke-linecap="butt" stroke-linejoin="miter"/></g><g fill-rule="evenodd"><path d="M232.12358,208.85964c-11.59765,-2.57575 -7.57729,-9.18612 -7.8116,-14.6884c-0.03546,-4.80195 1.32097,-4.70159 7.05282,-6.84308c3.1532,-1.36649 5.01113,-2.16532 6.82828,-3.40949c2.75207,-1.82376 4.77123,2.57203 5.32354,5.17106c0,0 0.75963,3.88239 0.65583,6.18222c-0.14801,2.79787 -0.37758,4.70504 -0.92328,6.10226l0.3857,0.08501c-0.9508,1.1822 -2.73085,4.74847 -4.90582,6.30775c-0.70065,0.50231 -1.93025,0.98811 -3.13871,1.55018c-2.17493,-0.32179 -3.46676,-0.45752 -3.46676,-0.45752z" fill="#ffab19" stroke="#001026" stroke-width="1.2" stroke-linecap="round" stroke-linejoin="round"/><path d="M242.43153,201.76344c0,0 -0.66135,5.84728 -2.81158,5.41542c-0.45897,-0.0825 -2.72466,-0.03541 -3.22352,-0.42375c-2.37957,-1.85244 -3.14927,-6.9895 -3.09432,-10.03882c0.26531,-2.98825 0.02411,-6.60374 5.3768,-6.51c5.07731,0.02914 4.7797,3.15506 4.7797,3.15506c0.5012,4.98386 -1.02708,8.40209 -1.02708,8.40209z" fill="#ffffff" stroke="none" stroke-width="1" stroke-linecap="butt" stroke-linejoin="miter"/></g><g fill="#ffab19" fill-rule="nonzero" stroke-linecap="butt" stroke-linejoin="miter"><g><path d="M203.29486,223.92921l22.15775,-25.98381l2.53388,6.892c0,0 1.09294,2.53135 -0.19735,4.41043c-2.95781,4.30749 -17.1896,20.9105 -17.1896,20.9105z" stroke="#000000" stroke-width="1.25"/><path d="M214.64594,234.35189c-1.66137,1.94825 -5.66538,1.26166 -8.94322,-1.53352c-3.27785,-2.79519 -4.58825,-6.64049 -2.92689,-8.58874c1.66137,-1.94825 5.66539,-1.26165 8.94323,1.53354c3.27784,2.79519 4.58825,6.64049 2.92688,8.58873z" stroke="#000000" stroke-width="1.25"/><path d="M210.07781,219.57105c0.20386,0.17383 0.23607,0.37198 0.20633,0.54164c0.51105,-0.59593 1.05235,-1.17553 1.65387,-1.72445c0,0 0.52121,-0.47498 0.92714,0.00253c0.40593,0.4775 -0.11528,0.9525 -0.11528,0.9525c-0.52649,0.47911 -1.81529,1.96328 -2.98056,3.38042c0.18674,0.11406 0.38573,0.24518 0.58356,0.38962c0.06906,-0.00767 0.13857,-0.01075 0.20855,-0.00892c0.87645,0.02313 1.42921,0.89683 1.50651,1.74219l0.45147,-0.01322c0.14609,-0.00555 0.28904,0.03835 0.4028,0.13535c0.26265,0.22397 0.27026,0.6463 0.017,0.94328c-0.06775,0.07947 -0.14731,0.14189 -0.23254,0.18644l-0.80809,0.44401c-0.15812,0.15015 -0.31845,0.29773 -0.48189,0.44163l-0.05494,0.0133l0.01009,0.01828l-0.64473,0.42059c-0.24714,0.16877 -0.56428,0.1742 -0.77821,-0.00822c-0.26265,-0.22397 -0.27026,-0.6463 -0.01699,-0.94329l0.08734,-0.10242c-0.47917,-0.06711 -0.97243,-0.26967 -1.41239,-0.46642c-0.21086,0.17998 -0.42097,0.36343 -0.62138,0.53816c-0.10525,0.25063 -0.33162,0.36182 -0.47178,0.40824c-0.30326,0.25848 -0.55704,0.46245 -0.71723,0.55171l-0.69799,0.49536c-0.25033,0.18548 -0.58149,0.19751 -0.8025,0.00905c-0.221,-0.18846 -0.26143,-0.51736 -0.11782,-0.79384l0.3947,-0.7995l0.19955,0.08287c0.00427,-0.00946 0.00857,-0.01889 0.01288,-0.02833l-0.11611,-0.42185l0.14856,-0.0588c-0.00226,-0.01842 -0.00358,-0.03727 -0.00394,-0.05661c-0.00143,-0.07967 0.05972,-0.2101 0.1575,-0.36696c0.00604,-0.18344 0.02992,-0.36502 0.06941,-0.54506c-0.03958,0.04359 -0.07623,0.08504 -0.10959,0.12415l-0.57065,0.66919c-0.25326,0.29698 -0.67148,0.35618 -0.93413,0.1322c-0.04554,-0.03883 -0.08341,-0.08362 -0.11358,-0.13268c-0.25054,0.18679 -0.58279,0.19932 -0.80432,0.0104c-0.23871,-0.20355 -0.26676,-0.57094 -0.07976,-0.85917l0.39843,-0.63587l0.02085,0.01194l0.01186,-0.06012c0.21961,-0.25753 0.46942,-0.51618 0.74198,-0.77051c1.00588,-1.33774 3.76489,-3.11925 4.52311,-3.65756l0.01877,-0.05907c0,0 0.45856,-0.53774 0.93413,-0.1322zM208.84183,223.91817c0.03831,-0.0334 0.0767,-0.06615 0.11517,-0.0982c-0.01543,-0.00719 -0.03098,-0.01438 -0.04663,-0.02158c-0.02256,0.03969 -0.0454,0.07964 -0.06854,0.11977z" stroke="none" stroke-width="0.5"/></g><path d="M210.64788,218.60092c0,0 10.57454,-15.4828 13.92113,-19.40725c1.92302,-2.25507 4.37681,-2.05025 4.37681,-2.05025l4.7176,4.02296l-18.29796,21.45752z" stroke="none" stroke-width="0"/></g><path d="M218.40018,197.28061c-3.83835,1.85116 -8.70493,5.69806 -11.65863,5.95992c-2.90317,0.25738 -3.92062,-3.0422 -4.59847,-4.44772c-1.3675,-2.83549 3.6939,-8.10976 11.30494,-11.78042c7.61105,-3.67066 14.8896,-4.34769 16.2571,-1.5122c1.3675,2.83549 -3.6939,8.10976 -11.30495,11.78041z" fill="#ffab19" fill-rule="nonzero" stroke="#001026" stroke-width="1.2" stroke-linecap="butt" stroke-linejoin="miter"/><path d="M263.57545,137.23106c-1.2315,0.21427 -1.44577,-1.01723 -1.44577,-1.01723l-0.19529,-1.19272c0.412,-1.38238 -2.93039,-0.37441 -3.88074,-0.18932c0,0 -1.22721,0.23759 -1.46481,-0.98962c-0.23759,-1.22721 0.98962,-1.46481 0.98962,-1.46481c3.07453,-0.59198 6.32272,-1.27912 6.85454,2.56043l0.15968,0.8475c0,0 0.21427,1.2315 -1.01723,1.44577z" fill="#000000" fill-rule="nonzero" stroke="none" stroke-width="0.5" stroke-linecap="butt" stroke-linejoin="miter"/><path d="M277.26703,136.29389c-1.22571,-0.24523 -0.98048,-1.47094 -0.98048,-1.47094l0.21259,-0.78855c0.50516,-0.94276 1.49015,-2.13627 1.7628,-3.17479c0.06945,-0.26453 -0.51878,-0.24677 -0.79082,-0.2186c-1.71185,0.17724 -2.82204,0.69091 -4.34407,1.49665c0,0 -1.10556,0.5833 -1.68886,-0.52225c-0.5833,-1.10556 0.52225,-1.68886 0.52225,-1.68886c2.31787,-1.21917 8.10703,-3.87224 8.79449,0.74599c0.19253,1.29341 -1.45839,3.43397 -2.0521,4.54244l0.03513,0.09844c0,0 -0.24523,1.22571 -1.47094,0.98048z" fill="#000000" fill-rule="nonzero" stroke="none" stroke-width="0.5" stroke-linecap="butt" stroke-linejoin="miter"/><path d="M271.97998,152.05226c-1.19467,0.36779 -1.56245,-0.82688 -1.56245,-0.82688l-0.22983,-0.85821c-0.02521,-0.36678 0.1444,-2.67297 -0.44074,-2.81479c-0.8763,-0.21238 -1.80228,0.07554 -2.70395,0.07561c0,0 -1.25,0 -1.25,-1.25c0,-1.25 1.25,-1.25 1.25,-1.25c4.15248,0.00031 5.34593,0.83708 5.63876,5.06712l0.1251,0.29469c0,0 0.36779,1.19467 -0.82688,1.56245z" fill="#000000" fill-rule="nonzero" stroke="none" stroke-width="0.5" stroke-linecap="butt" stroke-linejoin="miter"/><g fill-rule="evenodd"><path d="M248.34033,128.94513c0.29547,-0.20664 0.79757,-0.11781 0.90646,0.27986l2.83791,10.63938c0,0 6.5032,4.55615 8.47629,7.81297c3.32182,5.42729 3.52213,9.92394 3.52213,9.92394c0,0 7.14506,1.94118 8.47183,7.61301c1.32678,5.67183 -2.83135,16.56724 -21.54419,20.68546c-18.71283,4.11822 -33.92278,-0.64387 -41.27518,-11.88274c-7.3524,-11.23888 3.54162,-25.08519 2.9596,-24.27202l-2.49855,-17.84873c-0.10889,-0.39767 0.38429,-0.70875 0.78865,-0.51772l12.27312,7.62828c0,0 4.46098,-1.7999 9.15536,-2.10464c2.79485,-0.26237 5.19871,-0.11594 7.50705,0.23269z" fill="#ffab19" stroke="#001026" stroke-width="1.2" stroke-linecap="butt" stroke-linejoin="miter"/><path d="M263.7921,158.00789c0,0 6.93842,1.64572 8.2652,7.31755c1.32678,5.67183 -3.24239,16.07628 -21.7575,20.09007c-24.08251,5.53829 -35.9007,-8.60175 -29.43869,-19.34849c6.45979,-10.84671 18.15981,-2.00536 26.54434,-2.79248c7.18706,-0.66039 7.84641,-6.97667 16.38665,-5.26664z" fill="#ffffff" stroke="none" stroke-width="1" stroke-linecap="butt" stroke-linejoin="miter"/><path d="M244.67368,168.02183c10.25012,2.35476 11.80557,10.61736 11.91613,13.46126c0.05248,0.53596 -0.47118,0.90442 -0.92339,0.66884c-1.35664,-0.70678 -4.34571,-1.88809 -9.61481,-3.10734c-5.87316,-1.2907 -11.50513,-1.26163 -13.52501,-1.11981c-0.41201,-0.01563 -0.71238,-0.41535 -0.60073,-0.79945c1.07968,-4.78897 3.73037,-10.68337 12.7478,-9.1035z" data-paper-data="{&quot;index&quot;:null}" fill="#ffffff" stroke="#001026" stroke-width="1.2" stroke-linecap="round" stroke-linejoin="round"/><path d="M282.21206,158.69737c-4.61411,3.90384 -11.81009,4.16434 -11.81009,4.16434" fill="none" stroke="#001026" stroke-width="1.2" stroke-linecap="round" stroke-linejoin="round"/><path d="M281.16208,169.92359c-6.28728,0.64033 -10.22868,-1.17225 -10.22868,-1.17225" fill="none" stroke="#001026" stroke-width="1.2" stroke-linecap="round" stroke-linejoin="round"/><path d="M246.94759,160.68409c2.09948,-0.04682 4.30339,0.10408 4.41897,0.80168c0.13119,1.39742 -1.30601,4.23017 -2.90339,4.36581c-1.7951,0.24008 -6.04979,-2.16566 -6.08546,-3.76526c-0.12673,-1.19747 2.57037,-1.35765 4.56987,-1.40224z" fill="#001026" stroke="#001026" stroke-width="1.2" stroke-linecap="round" stroke-linejoin="round"/><path d="M201.92533,160.1877c0,0 8.66029,2.60757 12.22853,5.62877" fill="none" stroke="#001026" stroke-width="1.2" stroke-linecap="round" stroke-linejoin="round"/><path d="M214.53182,169.30893c-4.26103,1.79545 -11.68371,0.8607 -11.68371,0.8607" fill="none" stroke="#001026" stroke-width="1.2" stroke-linecap="round" stroke-linejoin="round"/><path d="M258.48381,148.72393c2.9996,4.43422 3.21328,9.53073 0.45411,11.39271c-2.75918,1.86198 -7.40485,-0.13494 -10.50443,-4.56694c-2.99961,-4.43422 -3.21328,-9.53073 -0.45411,-11.39271c2.75695,-1.96195 7.50483,0.13272 10.50443,4.56695z" fill="#ffffff" stroke="#001026" stroke-width="1.2" stroke-linecap="round" stroke-linejoin="round"/><path d="M259.33489,151.00552c0.02452,1.09973 -0.75521,2.01734 -1.75496,2.03964c-0.99975,0.0223 -1.81962,-0.85965 -1.84414,-1.95937c-0.02452,-1.09973 0.75521,-2.01734 1.75496,-2.03963c0.99975,-0.0223 1.81962,0.85965 1.84414,1.95937" fill="#001026" stroke="none" stroke-width="1" stroke-linecap="butt" stroke-linejoin="miter"/><path d="M233.7524,152.07613c3.09735,4.33202 3.01779,9.73513 0.36082,11.69486c-3.25682,1.9731 -7.68694,0.67155 -10.78429,-3.66048c-3.19733,-4.32979 -3.52435,-10.02392 -0.47417,-12.29248c3.04795,-2.36854 7.80029,-0.07392 10.89764,4.2581z" fill="#ffffff" stroke="#001026" stroke-width="1.2" stroke-linecap="round" stroke-linejoin="round"/><path d="M234.8012,154.25329c0.02453,1.09973 -0.75521,2.01734 -1.75496,2.03963c-0.99975,0.0223 -1.81961,-0.85965 -1.84414,-1.95937c-0.02453,-1.09973 0.75521,-2.01733 1.75496,-2.03963c1.00198,0.07768 1.81962,0.85965 1.84414,1.95937" fill="#001026" stroke="none" stroke-width="1" stroke-linecap="butt" stroke-linejoin="miter"/></g></g></g></svg>