<svg version="1.1" xmlns="http://www.w3.org/2000/svg" xmlns:xlink="http://www.w3.org/1999/xlink" width="137.06542" height="101.00488" viewBox="0,0,137.06542,101.00488"><defs><linearGradient x1="238.39713" y1="226.74867" x2="238.39713" y2="154.86866" gradientUnits="userSpaceOnUse" id="color-1"><stop offset="0" stop-color="#f48200" stop-opacity="0"/><stop offset="1" stop-color="#f48200"/></linearGradient></defs><g transform="translate(-171.46729,-129.49756)"><g data-paper-data="{&quot;isPaintingLayer&quot;:true}" fill-rule="nonzero" stroke-linecap="butt" stroke-linejoin="miter" stroke-miterlimit="10" stroke-dasharray="" stroke-dashoffset="0" style="mix-blend-mode: normal"><g><path d="M307.28271,190.93262c0,21.16346 -30.12351,38.31982 -67.28271,38.31982c-37.15923,0 -67.28271,-17.15637 -67.28271,-38.31982c0,-21.16345 30.12351,-38.31982 67.28271,-38.31982c37.15923,0 67.28271,17.15636 67.28271,38.31982z" data-paper-data="{&quot;index&quot;:null}" fill="#ff8700" stroke="#d36e00" stroke-width="2.5"/><path d="M226.74193,157.80196v-27.0544h26.14357v27.0544z" fill="#5d3500" stroke="#512a00" stroke-width="2.5"/><text transform="translate(202.04151,203.18003) scale(1.07982,1.07982)" font-size="40" xml:space="preserve" fill="#efc45f" fill-rule="nonzero" stroke="none" stroke-width="1" stroke-linecap="butt" stroke-linejoin="miter" stroke-miterlimit="10" stroke-dasharray="" stroke-dashoffset="0" font-family="Curly" font-weight="normal" text-anchor="start" style="mix-blend-mode: normal"><tspan x="0" dy="0">Play</tspan></text><text transform="translate(201.12038,203.79412) scale(1.07982,1.07982)" font-size="40" xml:space="preserve" fill="#ffd266" fill-rule="nonzero" stroke="none" stroke-width="1" stroke-linecap="butt" stroke-linejoin="miter" stroke-miterlimit="10" stroke-dasharray="" stroke-dashoffset="0" font-family="Curly" font-weight="normal" text-anchor="start" style="mix-blend-mode: normal"><tspan x="0" dy="0">Play</tspan></text></g><path d="M174.21856,190.80866c0,-19.84911 28.73372,-35.94 64.17857,-35.94c35.44485,0 64.17857,16.09089 64.17857,35.94c0,19.84911 -28.73372,35.94 -64.17857,35.94c-35.44485,0 -64.17857,-16.09089 -64.17857,-35.94z" data-paper-data="{&quot;index&quot;:null}" fill="url(#color-1)" stroke="none" stroke-width="none"/></g></g></svg>