<svg version="1.1" xmlns="http://www.w3.org/2000/svg" xmlns:xlink="http://www.w3.org/1999/xlink" width="79.99121" height="120.95858" viewBox="0,0,79.99121,120.95858"><g transform="translate(-195.58824,-116.15291)"><g data-paper-data="{&quot;isPaintingLayer&quot;:true}" stroke-miterlimit="10" stroke-dasharray="" stroke-dashoffset="0" style="mix-blend-mode: normal"><path d="M254.78334,194.39753c1.81839,3.85399 5.62366,8.75317 5.86035,11.70899c0.23263,2.90527 -3.07553,3.89455 -4.48675,4.5604c-2.84705,1.34329 -8.07799,-3.76289 -11.68364,-11.40494c-3.60566,-7.64205 -4.22063,-14.92611 -1.3736,-16.26939c2.84705,-1.34329 8.07799,3.76289 11.68365,11.40494z" fill="#f6ecdb" fill-rule="nonzero" stroke="#001026" stroke-width="1.2" stroke-linecap="butt" stroke-linejoin="miter"/><g fill="#f6ecdb" fill-rule="nonzero" stroke-linecap="butt" stroke-linejoin="miter"><g><path d="M253.36355,229.00465l-17.45453,-29.35071l7.34089,-0.17706c0,0 2.74856,-0.21866 4.1114,1.60848c3.12417,4.1884 14.25345,23.0124 14.25345,23.0124z" stroke="#000000" stroke-width="1.25"/><path d="M266.88882,221.61912c1.30872,2.20069 -0.63188,5.76968 -4.33445,7.97155c-3.70258,2.20187 -7.76503,2.20285 -9.07377,0.00215c-1.30872,-2.20069 0.63188,-5.76967 4.33446,-7.97155c3.70258,-2.20187 7.76504,-2.20284 9.07376,-0.00215z" stroke="#000000" stroke-width="1.25"/><path d="M251.42444,221.17894c0.23028,-0.13694 0.42821,-0.10357 0.57924,-0.02071c-0.39939,-0.67586 -0.77357,-1.37508 -1.0993,-2.12145c0,0 -0.28162,-0.6465 0.30125,-0.87684c0.58286,-0.23035 0.86451,0.41615 0.86451,0.41615c0.28384,0.65284 1.27335,2.35124 2.23923,3.91112c0.16816,-0.13998 0.35644,-0.28612 0.55693,-0.42683c0.01501,-0.06785 0.03449,-0.13465 0.05878,-0.20029c0.30443,-0.82221 1.30964,-1.06383 2.13482,-0.86452l0.13301,-0.43164c0.04183,-0.14009 0.12944,-0.26127 0.25797,-0.33767c0.29669,-0.17643 0.69891,-0.04752 0.89841,0.28797c0.05338,0.08974 0.08684,0.18518 0.10153,0.28023l0.15981,0.90807c0.09117,0.19807 0.17919,0.39742 0.26272,0.59852l-0.00512,0.0563l0.02055,-0.00367l0.19031,0.74589c0.08008,0.28835 -0.01699,0.59032 -0.25864,0.73403c-0.29669,0.17643 -0.69892,0.04752 -0.89841,-0.28797l-0.0688,-0.11568c-0.21798,0.43195 -0.56874,0.83359 -0.89679,1.18664c0.10239,0.25761 0.20832,0.51565 0.30912,0.76168c0.20332,0.18042 0.23562,0.43055 0.23438,0.57818c0.14692,0.3704 0.25822,0.67637 0.29107,0.85678l0.24394,0.8204c0.09488,0.29676 -0.00047,0.61411 -0.25011,0.76257c-0.24964,0.14846 -0.574,0.08072 -0.78945,-0.14435l-0.62959,-0.63135l0.14277,-0.16219c-0.00756,-0.00709 -0.01514,-0.01419 -0.02267,-0.02131l-0.43675,-0.02606l-0.00779,-0.15959c-0.01817,-0.0038 -0.03645,-0.00864 -0.05486,-0.01453c-0.07588,-0.02433 -0.17964,-0.12426 -0.2966,-0.26738c-0.17171,-0.06484 -0.3359,-0.14598 -0.49359,-0.24139c0.0285,0.05151 0.05593,0.09957 0.08219,0.14375l0.44953,0.7559c0.1995,0.33547 0.12071,0.75045 -0.17596,0.92688c-0.05142,0.03059 -0.10604,0.052 -0.16222,0.06475c0.09606,0.29738 0.00083,0.61594 -0.2494,0.76476c-0.26964,0.16035 -0.62645,0.06847 -0.83902,-0.20145l-0.47351,-0.58214l0.01803,-0.0159l-0.0531,-0.03062c-0.173,-0.29091 -0.3373,-0.61075 -0.49021,-0.95074c-0.94209,-1.3834 -1.73916,-4.56939 -2.00433,-5.46066l-0.04988,-0.03681c0,0 -0.36122,-0.60743 0.17596,-0.92688zM255.14112,223.75021c-0.01925,-0.04702 -0.03789,-0.09393 -0.05584,-0.14068c-0.01178,0.0123 -0.0236,0.02469 -0.03547,0.03718c0.03031,0.03414 0.06074,0.06865 0.09129,0.1035z" stroke="none" stroke-width="0.5"/></g><path d="M250.68985,220.32658c0,0 -11.24777,-15.00086 -13.88403,-19.43384c-1.51483,-2.54728 -0.52999,-4.80406 -0.52999,-4.80406l5.3289,-3.16903l14.41401,24.23791z" stroke="none" stroke-width="0"/></g><g fill-rule="evenodd"><path d="M229.51279,204.71275c0.88002,0.15985 2.76409,0.54755 1.41274,4.48377c-1.35135,3.93622 -7.77892,6.54128 -8.54689,6.7654c-2.94784,0.96448 -6.59566,2.02909 -11.01969,1.86182c-12.83207,-0.42189 -16.59813,-12.96927 -13.44264,-16.07779c3.05949,-3.0805 6.96069,4.21885 13.61321,7.38175c2.92023,1.43952 5.92822,1.39503 8.3722,1.20263c3.43194,-0.37656 8.60703,-5.84542 9.61108,-5.61758z" fill="#f6ecdb" stroke="#001026" stroke-width="1.2" stroke-linecap="round" stroke-linejoin="round"/><path d="M203.43665,203.88504c2.29235,2.14362 6.33281,4.92296 6.33281,4.92296c0,0 -3.80397,0.17262 -5.3436,2.39288c-1.26772,1.72421 -0.26739,3.72404 0.12071,4.33998c-1.61214,-0.88374 -3.65236,-2.1634 -5.59286,-5.24308c-1.94051,-3.07968 -2.15722,-7.39164 -0.40541,-8.52793c1.80784,-0.9443 2.70806,0.35556 4.88835,2.1152z" fill="#ffffff" stroke="none" stroke-width="1" stroke-linecap="butt" stroke-linejoin="miter"/></g><g fill-rule="evenodd"><path d="M238.81301,210.08187c-11.85483,0.77658 -9.84741,-6.69542 -11.61384,-11.91171c-1.37935,-4.59972 -0.04912,-4.88339 4.85323,-8.54494c2.64409,-2.19516 4.20383,-3.48252 5.59964,-5.18595c2.13092,-2.52174 5.30073,1.13233 6.55906,3.47254c0,0 1.81689,3.5141 2.36157,5.75091c0.64176,2.72729 0.95569,4.62241 0.82329,6.11656l0.39407,-0.02645c-0.58152,1.40123 -1.29117,5.32339 -2.94219,7.42955c-0.53187,0.67848 -1.57613,1.48932 -2.57872,2.36744c-2.17799,0.30042 -3.45611,0.53205 -3.45611,0.53205z" fill="#f6ecdb" stroke="#001026" stroke-width="1.2" stroke-linecap="round" stroke-linejoin="round"/><path d="M246.72011,200.38199c0,0 1.0033,5.7984 -1.18182,5.98624c-0.46371,0.04939 -2.62546,0.72934 -3.21314,0.49631c-2.80326,-1.1116 -4.98132,-5.8273 -5.78286,-8.7699c-0.58249,-2.94291 -1.82695,-6.34604 3.33765,-7.75565c4.88215,-1.39447 5.47221,1.68964 5.47221,1.68964c1.8774,4.64386 1.36796,8.35336 1.36796,8.35336z" fill="#ffffff" stroke="none" stroke-width="1" stroke-linecap="butt" stroke-linejoin="miter"/></g><g fill-rule="nonzero" stroke-linecap="butt" stroke-linejoin="miter"><g><path d="M243.27863,233.89462l-14.78806,-30.78047l7.32775,0.47341c0,0 2.7571,0.0255 3.95289,1.96608c2.74115,4.44851 12.16057,24.18371 12.16057,24.18371z" fill="#fff5e4" stroke="#000000" stroke-width="1.25"/><path d="M257.40456,227.73526c1.10879,2.30788 -1.1401,5.69109 -5.02302,7.55661c-3.88295,1.8655 -7.92954,1.50687 -9.03833,-0.80101c-1.10879,-2.30788 1.1401,-5.69109 5.02305,-7.5566c3.88294,-1.86549 7.92952,-1.50687 9.03831,0.80102z" fill="#f6ecdb" stroke="#000000" stroke-width="1.25"/><path d="M242.03982,225.92798c0.24148,-0.11603 0.43571,-0.06525 0.57879,0.03062c-0.33799,-0.70855 -0.64882,-1.43817 -0.9072,-2.21043c0,0 -0.2233,-0.66889 0.37768,-0.84674c0.60096,-0.17784 0.82427,0.49105 0.82427,0.49105c0.22494,0.67539 1.06021,2.45472 1.88424,4.09398c0.1799,-0.12457 0.38035,-0.25344 0.59253,-0.37587c0.02095,-0.06625 0.04627,-0.13106 0.07628,-0.19431c0.376,-0.79204 1.39867,-0.94374 2.20295,-0.67217l0.17071,-0.41817c0.05408,-0.13583 0.15207,-0.24875 0.28684,-0.31351c0.31113,-0.14949 0.70038,0.01454 0.86939,0.36637c0.04524,0.09411 0.0701,0.19215 0.07632,0.28812l0.07883,0.91866c0.07327,0.20537 0.14332,0.41172 0.20872,0.61942l-0.01009,0.05562l0.0208,-0.00182l0.12355,0.75981c0.05426,0.29432 -0.06919,0.58649 -0.3226,0.70825c-0.31113,0.14949 -0.70039,-0.01455 -0.86939,-0.36636l-0.05829,-0.12133c-0.25536,0.41097 -0.6403,0.77998 -0.99831,1.10262c0.07919,0.26567 0.16188,0.53206 0.2405,0.78605c0.18657,0.19772 0.19658,0.44972 0.18228,0.59667c0.11356,0.38195 0.19733,0.69657 0.21409,0.87919l0.17036,0.83877c0.06825,0.30399 -0.05483,0.61167 -0.31662,0.73745c-0.2618,0.12578 -0.5789,0.02958 -0.77356,-0.21367l-0.57123,-0.6846l0.15657,-0.14892c-0.00692,-0.00773 -0.0138,-0.01548 -0.02069,-0.02325l-0.43275,-0.06462l0.00639,-0.15964c-0.01775,-0.00539 -0.03552,-0.01181 -0.05336,-0.01932c-0.07343,-0.03095 -0.16793,-0.13967 -0.27176,-0.29259c-0.16529,-0.07979 -0.32166,-0.17514 -0.47029,-0.28414c0.02383,0.05384 0.04689,0.10413 0.06914,0.15046l0.38085,0.79273c0.16902,0.35182 0.05382,0.7582 -0.25731,0.90768c-0.05395,0.02592 -0.11022,0.04241 -0.1673,0.05014c0.06936,0.30471 -0.0537,0.61358 -0.31614,0.73965c-0.28277,0.13585 -0.63005,0.01277 -0.8179,-0.27491l-0.42012,-0.62176l0.01936,-0.01423l-0.05016,-0.03519c-0.14656,-0.30508 -0.28192,-0.6382 -0.40413,-0.9904c-0.81596,-1.46135 -1.3279,-4.7054 -1.51314,-5.61665l-0.04641,-0.04108c0,0 -0.30606,-0.63702 0.25731,-0.90768zM245.51433,228.81814c-0.01502,-0.04854 -0.02943,-0.09691 -0.04317,-0.14507c-0.01282,0.0112 -0.0257,0.02251 -0.03861,0.03391c0.02716,0.0367 0.05444,0.07376 0.08178,0.11116z" fill="#f6ecdb" stroke="none" stroke-width="0.5"/><path d="M245.3962,228.67264c0.01291,-0.01139 0.06056,-0.03834 0.07339,-0.04954c0.01374,0.04816 0.05428,0.19005 0.0693,0.2386c-0.02734,-0.03741 -0.11552,-0.15235 -0.14268,-0.18905z" data-paper-data="{&quot;noHover&quot;:false,&quot;origItem&quot;:[&quot;Path&quot;,{&quot;applyMatrix&quot;:true,&quot;segments&quot;:[[[491.02865,457.63627],[-0.05469,-0.07481],[-0.03004,-0.09709]],[[490.94231,457.34614],[0.02748,0.09632],[-0.02565,0.0224]],[[490.86509,457.41395],[0.02583,-0.02279],[0.05432,0.0734]]],&quot;closed&quot;:true,&quot;fillColor&quot;:[1,0.67059,0.09804]}]}" fill="#f6ecdb" stroke="none" stroke-width="0.5"/></g><path d="M241.38357,225.01395c0,0 -9.87583,-15.93757 -12.10933,-20.58649c-1.28342,-2.67137 -0.10267,-4.83213 -0.10267,-4.83213c0,0 7.14989,0.56505 8.34236,3.0471c2.20992,4.59982 9.45817,19.68662 9.45817,19.68662z" fill="#f6ecdb" stroke="none" stroke-width="0"/></g><path d="M235.31089,202.16737c0.50949,4.23085 2.57466,10.08042 1.86665,12.95995c-0.6959,2.83025 -4.1472,2.72527 -5.69644,2.91182c-3.12544,0.37638 -6.47811,-6.1194 -7.48843,-14.50874c-1.01029,-8.38934 0.70436,-15.49536 3.8298,-15.87175c3.12544,-0.37638 6.47811,6.11939 7.48843,14.50874z" fill="#f6ecdb" fill-rule="nonzero" stroke="#001026" stroke-width="1.2" stroke-linecap="butt" stroke-linejoin="miter"/><path d="M248.52604,130.75532c-1.19994,0.3502 -1.55014,-0.84974 -1.55014,-0.84974l-0.17397,-0.5961c-0.19747,-0.67696 -0.01857,-1.48688 -0.40576,-2.07626c-0.26572,-0.40448 -0.89571,0.36909 -1.32844,0.5858c-1.51744,0.75995 -2.37808,1.82674 -3.26568,3.23417c0,0 -0.66956,1.05554 -1.72511,0.38599c-1.05554,-0.66957 -0.38599,-1.72512 -0.38599,-1.72512c1.32055,-2.07123 5.25253,-6.57984 8.24097,-4.45351c0.4648,0.33071 1.09296,2.74261 1.26987,3.34853l0.17397,0.59611c0,0 0.3502,1.19994 -0.84974,1.55014z" fill="#000000" fill-rule="nonzero" stroke="none" stroke-width="0.5" stroke-linecap="butt" stroke-linejoin="miter"/><path d="M261.62194,126.4723c-1.13353,-0.52689 -0.60663,-1.66043 -0.60663,-1.66043l0.13025,-0.24369c0.34218,-1.18528 1.28113,-5.09641 -0.06692,-6.00906c-0.92185,-0.62411 -3.99412,3.25162 -4.49273,3.79068c0,0 -0.84885,0.91758 -1.76643,0.06874c-0.91759,-0.84884 -0.06874,-1.76642 -0.06874,-1.76642c1.2747,-1.37776 3.16857,-4.04071 5.13495,-4.40994c5.08502,-0.9548 4.5153,5.99836 3.6639,9.01207l-0.26722,0.61143c0,0 -0.5269,1.13353 -1.66043,0.60663z" fill="#000000" fill-rule="nonzero" stroke="none" stroke-width="0.5" stroke-linecap="butt" stroke-linejoin="miter"/><path d="M263.23024,142.8196c-1.19994,0.3502 -1.55014,-0.84974 -1.55014,-0.84974l-0.04967,-0.17019c-0.82687,-2.83325 -0.5355,-4.79352 -3.70447,-3.85406c0,0 -1.19994,0.3502 -1.55014,-0.84974c-0.3502,-1.19994 0.84975,-1.55014 0.84975,-1.55014c4.83748,-1.39291 5.62969,1.52724 6.80475,5.55355l0.04967,0.17019c0,0 0.3502,1.19994 -0.84974,1.55014z" fill="#000000" fill-rule="nonzero" stroke="none" stroke-width="0.5" stroke-linecap="butt" stroke-linejoin="miter"/><path d="M231.99165,128.82436c0.22574,-0.28115 0.73263,-0.33654 0.94857,0.0147l5.70497,9.41826c0,0 7.51922,2.55177 10.32572,5.12539c4.70929,4.27931 6.16135,8.53977 6.16135,8.53977c0,0 7.40276,-0.1383 10.26541,4.93469c2.86266,5.07298 1.92348,16.69701 -14.88623,25.89287c-16.8097,9.19585 -32.74469,8.88565 -42.95131,0.15669c-10.20663,-8.72897 -3.62803,-25.07285 -3.95892,-24.12918l-7.39896,-16.43396c-0.21594,-0.35124 0.17034,-0.78803 0.61202,-0.71793l13.91876,3.88439c0,0 3.77808,-2.9776 8.19909,-4.58531c2.60942,-1.03486 4.95804,-1.56776 7.27161,-1.87979z" fill="#f6ecdb" fill-rule="evenodd" stroke="#001026" stroke-width="1.2" stroke-linecap="butt" stroke-linejoin="miter"/><path d="M254.9668,152.39434c0,0 7.12162,-0.36404 9.98428,4.70895c2.86266,5.07298 1.39135,16.34087 -15.2578,25.38108c-21.56651,12.06341 -36.87286,1.80058 -33.68042,-10.32618c3.16231,-12.2221 16.87076,-7.01267 24.69901,-10.11726c6.71424,-2.64746 5.57762,-8.89551 14.25494,-9.64658z" fill="#ffffff" fill-rule="evenodd" stroke="none" stroke-width="1" stroke-linecap="butt" stroke-linejoin="miter"/><path d="M245.18337,175.90543c-3.79298,2.17131 -6.8496,-6.0789 -6.64651,-6.15407c0.78379,-0.17233 8.38079,-3.21696 8.93354,-3.85231c0.19693,-0.22636 2.53188,6.8416 -2.28702,10.00637z" data-paper-data="{&quot;index&quot;:null}" fill="#ffffff" fill-rule="evenodd" stroke="#001026" stroke-width="1.2" stroke-linecap="round" stroke-linejoin="round"/><path d="M272.84227,147.89571c-3.33564,5.04019 -10.17047,7.30626 -10.17047,7.30626" fill="none" fill-rule="evenodd" stroke="#001026" stroke-width="1.2" stroke-linecap="round" stroke-linejoin="round"/><path d="M274.97945,158.96652c-5.85611,2.37612 -10.14747,1.74034 -10.14747,1.74034" fill="none" fill-rule="evenodd" stroke="#001026" stroke-width="1.2" stroke-linecap="round" stroke-linejoin="round"/><path d="M239.54661,159.68249c2.00229,-0.63313 4.16021,-1.10572 4.4666,-0.46843c0.51744,1.30471 -0.06859,4.42666 -1.564,5.00438c-1.65596,0.73337 -6.41425,-0.38403 -6.89663,-1.90958c-0.45713,-1.11401 2.08708,-2.02339 3.99402,-2.62637z" fill="#001026" fill-rule="evenodd" stroke="#001026" stroke-width="1.2" stroke-linecap="round" stroke-linejoin="round"/><path d="M196.18824,171.81932c0,0 9.04401,0.0769 13.31577,1.97744" fill="none" fill-rule="evenodd" stroke="#001026" stroke-width="1.2" stroke-linecap="round" stroke-linejoin="round"/><path d="M210.84528,177.04348c-3.58739,2.91731 -10.97469,4.09951 -10.97469,4.09951" fill="none" fill-rule="evenodd" stroke="#001026" stroke-width="1.2" stroke-linecap="round" stroke-linejoin="round"/><path d="M248.72631,146.92111c0.33164,1.04882 -0.15979,2.14813 -1.11326,2.44962c-0.95346,0.30149 -1.98759,-0.31545 -2.31922,-1.36426c-0.33164,-1.04882 0.15979,-2.14813 1.11326,-2.44961c0.95346,-0.30149 1.98759,0.31544 2.31922,1.36425" fill="#001026" fill-rule="evenodd" stroke="none" stroke-width="1" stroke-linecap="butt" stroke-linejoin="miter"/><path d="M226.08499,156.91213c0.33165,1.04882 -0.1598,2.14813 -1.11327,2.44961c-0.95346,0.30149 -1.98757,-0.31544 -2.31922,-1.36425c-0.33165,-1.04882 0.1598,-2.14812 1.11326,-2.44962c0.98361,-0.20614 1.98759,0.31545 2.31923,1.36426" fill="#001026" fill-rule="evenodd" stroke="none" stroke-width="1" stroke-linecap="butt" stroke-linejoin="miter"/><path d="M213.05015,160.19627c0.49319,-0.08224 0.57543,0.41095 0.57543,0.41095l0.04947,0.30855c0.14526,1.90237 0.10499,5.85798 2.72031,6.24679c1.54669,0.00613 1.48269,-1.16289 1.2329,-2.45185c-0.56985,-2.94058 -1.06681,-5.36775 -1.06811,-8.38952c0,0 0,-0.5 0.5,-0.5c0.5,0 0.5,0.5 0.5,0.5c-0.00051,1.2552 -0.2004,2.52594 -0.04768,3.77937c0.2897,2.37765 3.23259,8.04602 -1.1996,8.05859c-3.29123,-0.58425 -3.43304,-4.56575 -3.63487,-7.16665l-0.0388,-0.22079c0,0 -0.08224,-0.49319 0.41095,-0.57543z" fill="#000000" fill-rule="nonzero" stroke="none" stroke-width="0.5" stroke-linecap="butt" stroke-linejoin="miter"/></g></g></svg>