<svg version="1.1" xmlns="http://www.w3.org/2000/svg" xmlns:xlink="http://www.w3.org/1999/xlink" width="340.32415" height="313.87439" viewBox="0,0,340.32415,313.87439"><g transform="translate(-67.63658,-126.57919)"><g data-paper-data="{&quot;isPaintingLayer&quot;:true}" fill-rule="nonzero" stroke-linecap="butt" stroke-linejoin="miter" stroke-miterlimit="10" stroke-dasharray="" stroke-dashoffset="0" style="mix-blend-mode: normal"><path d="M67.63658,432.82233l123.00755,-256.58072h98.78125c0,0 118.53535,220.59124 118.53535,254.25484c0,8.60661 -118.53535,9.95713 -118.53535,9.95713z" fill="#613700" stroke="none" stroke-width="0"/><path d="M321.76813,152.33324c0,32.93007 -33.6928,80.03107 -78.85208,80.03107c-45.15928,0 -84.68415,-47.101 -84.68415,-80.03107c0,-32.93007 163.53623,-32.93007 163.53623,0z" fill="#ffffff" stroke="none" stroke-width="0"/><path d="M308.90669,150.00383c0,6.50629 -29.65697,11.78069 -66.2407,11.78069c-36.58373,0 -66.24069,-5.27439 -66.24069,-11.78069c0,-6.50629 29.65697,-11.78069 66.24069,-11.78069c36.58373,0 66.2407,5.27439 66.2407,11.78069z" fill="#c6c6c6" stroke="none" stroke-width="0"/><path d="M278.42565,142.16513c0,6.23825 -4.76169,11.29536 -10.63554,11.29536c-5.87384,0 -10.63554,-5.0571 -10.63554,-11.29535c0,-6.23825 4.76169,-11.29535 10.63554,-11.29535c5.87384,0 10.63554,5.0571 10.63554,11.29534z" fill="#ff8100" stroke="#e47200" stroke-width="2"/><path d="M246.47462,139.66885c0,6.67694 -5.71007,12.08966 -12.7538,12.08966c-7.04373,0 -12.7538,-5.41272 -12.7538,-12.08966c0,-6.67694 5.71007,-12.08966 12.7538,-12.08966c7.04373,0 12.7538,5.41272 12.7538,12.08966z" fill="#9e00ff" stroke="#8000d0" stroke-width="2"/><path d="M226.086,139.75748c0,6.38441 -5.43349,11.56 -12.13603,11.56c-6.70254,0 -12.13603,-5.17559 -12.13603,-11.56c0,-6.38441 5.43349,-11.56 12.13603,-11.56c6.70254,0 12.13603,5.17559 12.13603,11.56z" fill="#06ff00" stroke="#03c500" stroke-width="2"/><path d="M226.2053,149.74017c0,5.67787 -6.12506,10.28069 -13.68069,10.28069c-7.55564,0 -13.68069,-4.60282 -13.68069,-10.28069c0,-5.67787 6.12506,-10.28069 13.68069,-10.28069c7.55564,0 13.68069,4.60282 13.68069,10.28069z" fill="#ff0000" stroke="#c70000" stroke-width="2"/><path d="M240.59223,152.78446c0,6.23825 -4.76169,11.29535 -10.63554,11.29535c-5.87384,0 -10.63554,-5.0571 -10.63554,-11.29535c0,-6.23825 4.76169,-11.29535 10.63554,-11.29535c5.87384,0 10.63554,5.0571 10.63554,11.29535z" fill="#ff8100" stroke="#e47200" stroke-width="2"/><path d="M266.98253,146.1207c0,6.16521 -5.51253,11.16311 -12.31258,11.16311c-6.80005,0 -12.31258,-4.99789 -12.31258,-11.16311c0,-6.16521 5.51253,-11.16311 12.31258,-11.16311c6.80005,0 12.31258,4.99789 12.31258,11.16311z" fill="#fff100" stroke="#e1d600" stroke-width="2"/><path d="M298.84497,151.78887c0,6.38441 -5.43349,11.56 -12.13603,11.56c-6.70255,0 -12.13603,-5.17559 -12.13603,-11.56c0,-6.38441 5.43349,-11.56 12.13603,-11.56c6.70255,0 12.13603,5.17559 12.13603,11.56z" fill="#06ff00" stroke="#03c500" stroke-width="2"/><path d="M263.18732,156.37736c0,6.53077 -4.84081,11.82501 -10.81224,11.82501c-5.97144,0 -10.81224,-5.29424 -10.81224,-11.82501c0,-6.53077 4.84081,-11.82501 10.81224,-11.82501c5.97144,0 10.81224,5.29424 10.81224,11.82501z" fill="#0032ff" stroke="#002ddf" stroke-width="2"/><path d="M203.34529,150.90609c0,6.67694 -5.71007,12.08966 -12.7538,12.08966c-7.04373,0 -12.7538,-5.41273 -12.7538,-12.08966c0,-6.67694 5.71007,-12.08966 12.7538,-12.08966c7.04373,0 12.7538,5.41273 12.7538,12.08966z" fill="#9e00ff" stroke="#8000d0" stroke-width="2"/><path d="M281.24976,152.00465c0,5.67787 -6.12506,10.28069 -13.68069,10.28069c-7.55564,0 -13.68069,-4.60282 -13.68069,-10.28069c0,-5.67787 6.12506,-10.28068 13.68069,-10.28068c7.55564,0 13.68069,4.60281 13.68069,10.28068z" fill="#ff0000" stroke="#c70000" stroke-width="2"/><path d="M312.70221,158.98077c0,9.04062 -37.17917,15.04568 -72.15432,15.04568c-34.97516,0 -63.32812,-7.32887 -63.32812,-16.36948c0,-9.04062 26.85225,3.66225 61.8274,3.66225c34.97516,0 73.65504,-11.37906 73.65504,-2.33845z" fill="#ffffff" stroke="none" stroke-width="0"/></g></g></svg>