<svg version="1.1" xmlns="http://www.w3.org/2000/svg" xmlns:xlink="http://www.w3.org/1999/xlink" width="231.65376" height="310.59589" viewBox="0,0,231.65376,310.59589"><g transform="translate(-118.79206,-129.85769)"><g data-paper-data="{&quot;isPaintingLayer&quot;:true}" fill-rule="nonzero" stroke-linecap="butt" stroke-linejoin="miter" stroke-miterlimit="10" stroke-dasharray="" stroke-dashoffset="0" style="mix-blend-mode: normal"><path d="M118.79206,432.82233l83.72947,-256.58072h67.23898c0,0 80.68531,220.59124 80.68531,254.25483c0,8.6066 -80.68531,9.95713 -80.68531,9.95713z" fill="#613700" stroke="none" stroke-width="0"/><path d="M291.84851,190.85268c0,21.00871 -23.21338,38.03963 -51.84851,38.03963c-28.63515,0 -51.84851,-17.03092 -51.84851,-38.03963c0,-21.00871 23.21338,-38.03963 51.84851,-38.03963c28.63515,0 51.84851,17.03092 51.84851,38.03963z" data-paper-data="{&quot;index&quot;:null}" fill="#ff8700" stroke="#d36e00" stroke-width="2.5"/><path d="M279.70402,189.58841c0,19.64825 -18.15678,35.57632 -40.55431,35.57632c-22.39753,0 -40.55433,-15.92805 -40.55433,-35.57632c0,-19.64825 18.15678,-35.57632 40.55433,-35.57632c22.39753,0 40.55431,15.92805 40.55431,35.57632z" fill="#ff8700" stroke="#d36e00" stroke-width="2.5"/><path d="M229.78324,157.96427v-26.85657h20.14641v26.85657z" fill="#5d3500" stroke="#512a00" stroke-width="2.5"/><path d="M269.15107,190.85268c0,19.64825 -13.05137,35.57632 -29.15107,35.57632c-16.09969,0 -29.15107,-15.92805 -29.15107,-35.57632c0,-19.64825 13.05137,-35.57632 29.15107,-35.57632c16.09969,0 29.15107,15.92805 29.15107,35.57632z" fill="#ff8700" stroke="#d36e00" stroke-width="2.5"/><path d="M209.93261,200.07191c-0.02056,-0.3017 0.01738,-0.64255 0.13727,-1.02635c0.7367,-2.35789 3.09459,-1.6212 3.09459,-1.6212c4.28005,1.33894 8.65936,2.29275 12.91398,3.72218c2.11849,0.71174 4.73432,2.15478 6.93532,2.49358c1.2418,0.19116 1.97774,-0.94769 2.74699,-1.63312c1.59547,-1.4216 4.41165,-5.18957 6.33916,-5.80757c4.50186,-1.4434 9.71218,3.80236 13.30876,5.95959c1.97641,0.97616 3.58216,-0.78072 5.4768,-1.88925c2.27974,-1.33383 4.55467,-2.84431 6.92464,-4.00957c1.37383,-0.67549 2.84129,-2.48662 4.21801,-1.81706c1.6346,0.79499 2.07982,3.1558 2.25468,4.96505c0.12629,1.30673 -0.91598,2.46133 -1.41982,3.6736c-1.23027,2.96017 -2.76457,5.70259 -4.42175,8.43939c-1.73109,2.85887 -5.03998,7.44062 -8.38178,8.5898c-3.64803,1.25448 -9.98171,-1.15553 -13.42113,-2.5562c-4.01981,1.41475 -7.5419,4.26863 -11.43311,6.06171c-1.1013,0.5075 -2.14979,1.34741 -3.36164,1.39041c-3.9243,0.1393 -6.20121,-2.88703 -8.27489,-5.51622c-4.12166,-5.22577 -9.42625,-8.77352 -13.18982,-14.36099l-0.97038,-2.45384c0,0 -0.57355,-1.57672 0.52411,-2.604z" fill="#000000" stroke="#d36e00" stroke-width="2.5"/><path d="M262.28241,167.62966c3.0918,2.90652 8.41028,20.9041 8.41028,20.9041l-20.09528,0.37982c0,0 10.64092,-22.26543 11.68502,-21.28391z" fill="#000000" stroke="#d36e00" stroke-width="2.5"/><path d="M229.22387,186.88067l-20.00268,-1.96412c0,0 6.72187,-17.52184 10.03334,-20.17536c1.11827,-0.8961 9.96933,22.13948 9.96933,22.13948z" data-paper-data="{&quot;index&quot;:null}" fill="#000000" stroke="#d36e00" stroke-width="2.5"/></g></g></svg>