<svg version="1.1" xmlns="http://www.w3.org/2000/svg" xmlns:xlink="http://www.w3.org/1999/xlink" width="230.17242" height="236.5022" viewBox="0,0,230.17242,236.5022"><g transform="translate(-106.04906,-160.45744)"><g data-paper-data="{&quot;isPaintingLayer&quot;:true}" fill-rule="nonzero" stroke-linecap="butt" stroke-linejoin="miter" stroke-miterlimit="10" stroke-dasharray="" stroke-dashoffset="0" style="mix-blend-mode: normal"><g stroke-width="2.5"><path d="M200.87503,220.67251v-58.96507h44.23254v58.96507z" fill="#5d3500" stroke="#512a00"/><path d="M288.74406,236.49647c0,9.25077 -31.96012,7.41667 -62.75,7.41667c-19.80689,0 -46.70129,-0.60337 -56.59048,-5.28001c-5.48359,-2.59321 -3.55159,-8.88215 0.84049,-11.46999c1.06078,-0.62502 2.07944,-1.22726 3.05856,-1.80754c29.99904,-17.7792 22.87473,-14.94246 52.69144,-14.94246c15.88452,0 36.71742,8.99595 46.87196,12.19863c9.52858,3.00526 15.87804,9.40641 15.87804,13.8847z" fill="#ff8700" stroke="#d36e00"/></g><path d="M276.81766,286.22929c0,23.61018 -23.05733,42.75 -51.5,42.75c-28.44267,0 -51.5,-19.13983 -51.5,-42.75c0,-23.61017 23.05733,-42.75 51.5,-42.75c28.44267,0 51.5,19.13983 51.5,42.75z" fill="#000000" stroke="none" stroke-width="2.5"/><path d="M233.76203,306.97569l-7.68302,-43.83174l57.55178,-14.52943c0,0 -12.86379,27.12089 -20.00036,45.55397c-0.54253,1.40131 -20.45421,20.40474 -20.07424,22.57249c0.33814,1.92909 -9.79418,-9.76529 -9.79418,-9.76529z" fill="#000000" stroke="none" stroke-width="0"/><path d="M192.20296,317.08182c1.20097,-1.84424 -9.64524,-27.14175 -9.59371,-28.64355c0.67794,-19.75474 -0.49821,-49.74868 -0.49821,-49.74868l47.21812,35.96889l-24.28334,37.29034c0,0 -13.91161,6.77418 -12.84287,5.13298z" data-paper-data="{&quot;index&quot;:null}" fill="#000000" stroke="none" stroke-width="0"/><path d="M250.08926,309.63989c-1.1606,0.46424 -1.62483,-0.69636 -1.62483,-0.69636l-0.33155,-0.95388c-3.85112,-2.59345 -7.3563,-5.53679 -11.51992,-7.62006c-1.38974,-0.55455 -2.89069,-1.03248 -4.16162,-1.83738c-0.68643,-0.43473 -1.06286,-1.39378 -1.85282,-1.58389c-1.43348,-0.34498 -3.76139,1.87295 -4.95117,2.41661c-5.70943,2.60886 -10.50566,6.85033 -15.52232,10.61436c0,0 -1,0.75 -1.75,-0.25c-0.75,-1 0.25,-1.75 0.25,-1.75c5.15911,-3.86781 10.09029,-8.22452 15.97768,-10.88564c1.91755,-0.86674 4.19346,-3.09166 6.54883,-2.58339c0.68243,0.14727 2.04596,1.53132 2.64718,1.91611c1.14965,0.73582 2.57918,1.15781 3.83838,1.66262c4.43066,2.2139 8.60217,5.29034 12.48008,8.37994l0.66845,1.54612c0,0 0.46424,1.1606 -0.69636,1.62483z" fill="#282828" stroke="none" stroke-width="0.5"/><path d="M239.12503,283.60429c0,2.69239 -4.19733,4.875 -9.375,4.875c-5.17767,0 -9.375,-2.18261 -9.375,-4.875c0,-2.69239 4.19733,-4.875 9.375,-4.875c5.17767,0 9.375,2.18261 9.375,4.875z" fill="#282828" stroke="none" stroke-width="0"/><path d="M221.12503,268.72929c0,8.1462 -6.32398,14.75 -14.125,14.75c-7.80102,0 -14.125,-6.6038 -14.125,-14.75c0,-8.1462 6.32398,-14.75 14.125,-14.75c7.80102,0 14.125,6.6038 14.125,14.75z" fill="#ffffff" stroke="none" stroke-width="0"/><path d="M269.12503,268.47929c0,8.1462 -6.32398,14.75 -14.125,14.75c-7.80102,0 -14.125,-6.6038 -14.125,-14.75c0,-8.1462 6.32398,-14.75 14.125,-14.75c7.80102,0 14.125,6.6038 14.125,14.75z" fill="#ffffff" stroke="none" stroke-width="0"/><path d="M219.37503,273.35429c0,6.28224 -5.26065,11.375 -11.75,11.375c-6.48935,0 -11.75,-5.09276 -11.75,-11.375c0,-6.28224 5.26065,-11.375 11.75,-11.375c6.48935,0 11.75,5.09276 11.75,11.375z" fill="#181818" stroke="none" stroke-width="0"/><path d="M266.37503,271.85429c0,6.28224 -5.26065,11.375 -11.75,11.375c-6.48935,0 -11.75,-5.09276 -11.75,-11.375c0,-6.28224 5.26065,-11.375 11.75,-11.375c6.48935,0 11.75,5.09276 11.75,11.375z" fill="#181818" stroke="none" stroke-width="0"/><path d="M215.12503,269.10429c0,1.86396 -2.63033,3.375 -5.875,3.375c-3.24467,0 -5.875,-1.51104 -5.875,-3.375c0,-1.86396 2.63033,-3.375 5.875,-3.375c3.24467,0 5.875,1.51104 5.875,3.375z" fill="#ffffff" stroke="none" stroke-width="0"/><path d="M261.62503,267.97929c0,1.79493 -2.68629,3.25 -6,3.25c-3.31371,0 -6,-1.45507 -6,-3.25c0,-1.79493 2.68629,-3.25 6,-3.25c3.31371,0 6,1.45507 6,3.25z" fill="#ffffff" stroke="none" stroke-width="0"/><path d="M194.3647,256.3395c0.80828,-3.39706 3.85325,-7.51416 5.9205,-8.71232c3.13163,-1.81507 9.16139,0.23207 12.46059,0.90835c4.6031,1.95651 8.23702,4.51285 11.76312,8.05986c1.0862,1.09264 2.53449,1.61588 3.23568,3.07794c0.94951,1.97982 1.2475,5.31934 1.12802,7.47827c-0.06276,1.13391 0.23238,2.53659 -0.5468,3.36276c-0.53321,0.56537 -1.54005,-0.21126 -2.30697,-0.3369c-2.24326,-0.36752 -4.47658,-1.23907 -6.59541,-2.03261c-6.1826,-2.47265 -12.20619,-4.99881 -18.47835,-7.24184c-0.77294,-0.27642 -1.57936,-0.59142 -2.40309,-0.89422l-0.91697,1.22049c-2.07888,-0.14316 -3.08351,-1.08245 -3.37259,-2.41181c-0.46322,-0.06268 -0.92328,-0.09496 -1.37741,-0.08819c0,0 -1.25,0 -1.25,-1.25c0,-1.25 1.25,-1.25 1.25,-1.25c0.49633,0.00564 0.99321,0.04458 1.48968,0.11023z" fill="#000000" stroke="none" stroke-width="0.5"/><path d="M272.64761,256.22927c0,0 1.25,0 1.25,1.25c0,1.25 -1.25,1.25 -1.25,1.25c-0.45414,-0.00677 -0.91419,0.02551 -1.37741,0.08819c-0.28908,1.32935 -1.29371,2.26865 -3.37259,2.41181l-0.91697,-1.22048c-0.82373,0.3028 -1.63015,0.61781 -2.40309,0.89422c-6.27215,2.24303 -12.29574,4.76919 -18.47835,7.24184c-2.11883,0.79353 -4.35215,1.66508 -6.59542,2.0326c-0.76692,0.12565 -1.77375,0.90227 -2.30697,0.33691c-0.77919,-0.82617 -0.48404,-2.22885 -0.5468,-3.36275c-0.11948,-2.15893 0.17851,-5.49845 1.12802,-7.47827c0.70119,-1.46205 2.14948,-1.9853 3.23568,-3.07794c3.52609,-3.54701 7.16002,-6.10335 11.76312,-8.05987c3.29919,-0.67628 9.32895,-2.72342 12.46058,-0.90834c2.06726,1.19816 5.11222,5.31526 5.9205,8.71232c0.49646,-0.06565 0.99335,-0.10459 1.48968,-0.11023z" data-paper-data="{&quot;index&quot;:null}" fill="#000000" stroke="none" stroke-width="0.5"/><g stroke="#d36e00" stroke-width="2.5"><path d="M334.97148,312.19156c0,46.12575 -50.96623,83.51806 -113.83621,83.51806c-62.87003,0 -113.83621,-37.39231 -113.83621,-83.51806c0,-24.95266 8.45195,-55.8859 35.56148,-72.91756c27.10952,-17.03167 49.41555,1.39951 78.27473,1.39951c30.44162,0 66.0924,-7.04681 86.51798,4.33072c21.75866,12.12008 27.31823,43.39564 27.31823,67.18734z" data-paper-data="{&quot;index&quot;:null}" fill="#ff8700"/><path d="M308.3076,309.41578c0,43.1388 -39.8642,78.10974 -89.03918,78.10974c-49.17499,0 -89.03923,-34.9709 -89.03923,-78.10974c0,-43.1388 39.8642,-78.10974 89.03923,-78.10974c49.17499,0 89.03918,34.9709 89.03918,78.10974z" fill="#ff8700"/><path d="M285.13801,312.19156c0,43.1388 -28.65499,78.10974 -64.00274,78.10974c-35.34775,0 -64.00274,-34.9709 -64.00274,-78.10974c0,-32.22677 15.99182,-59.89522 38.8191,-71.83075c7.72934,-4.04138 51.37482,-0.71355 60.53362,6.70576c17.26868,13.98892 28.65277,37.93447 28.65277,65.12499z" fill="#ff8700"/><path d="M155.12068,332.43289c-0.04513,-0.6624 0.03816,-1.41076 0.3014,-2.2534c1.61746,-5.17688 6.79434,-3.55943 6.79434,-3.55943c9.39709,2.93972 19.01209,5.03385 28.35335,8.17225c4.65126,1.56268 10.39446,4.73092 15.22687,5.4748c2.72644,0.41969 4.34222,-2.08071 6.03117,-3.5856c3.50293,-3.1212 9.68602,-11.39398 13.91797,-12.75082c9.88407,-3.16906 21.32361,8.34828 29.22011,13.0846c4.33931,2.14322 7.86483,-1.71412 12.02462,-4.14795c5.00529,-2.9285 10.00003,-6.24484 15.20342,-8.80322c3.01633,-1.48307 6.2382,-5.45951 9.26088,-3.98944c3.58885,1.74545 4.56635,6.92873 4.95027,10.90102c0.27728,2.86899 -2.01108,5.40397 -3.11729,8.0656c-2.70113,6.4992 -6.06976,12.52034 -9.70818,18.52912c-3.8007,6.27679 -11.06555,16.33628 -18.40266,18.85936c-8.00944,2.75428 -21.91538,-2.53703 -29.46682,-5.61229c-8.82571,3.10616 -16.55864,9.37201 -25.10201,13.30882c-2.41797,1.11423 -4.71999,2.9583 -7.38066,3.05272c-8.61601,0.30584 -13.61509,-6.33864 -18.16798,-12.11116c-9.04932,-11.47345 -20.69584,-19.26273 -28.95897,-31.53034l-2.13052,-5.38754c0,0 -1.25927,-3.46176 1.15072,-5.71722z" fill="#000000"/><path d="M270.05752,261.20417c6.78823,6.38143 18.46522,45.89609 18.46522,45.89609l-44.12026,0.8339c0,0 23.36272,-48.88495 25.65509,-46.72998z" fill="#000000"/><path d="M197.47568,303.47081l-43.91696,-4.31233c0,0 14.75822,-38.47015 22.02876,-44.29611c2.45522,-1.96743 21.8882,48.60844 21.8882,48.60844z" data-paper-data="{&quot;index&quot;:null}" fill="#000000"/></g><g stroke="#d36e00" stroke-width="2.5"><path d="M334.97148,312.19158c0,46.12575 -50.96623,83.51806 -113.83621,83.51806c-62.87003,0 -113.83621,-37.39231 -113.83621,-83.51806c0,-24.95266 8.45195,-55.8859 35.56148,-72.91756c27.10952,-17.03167 49.41555,1.39951 78.27473,1.39951c30.44162,0 66.0924,-7.04681 86.51798,4.33072c21.75866,12.12008 27.31823,43.39564 27.31823,67.18734z" data-paper-data="{&quot;index&quot;:null}" fill="#ff8700"/><path d="M308.30762,309.4158c0,43.1388 -39.8642,78.10974 -89.03918,78.10974c-49.17499,0 -89.03923,-34.9709 -89.03923,-78.10974c0,-43.1388 39.8642,-78.10974 89.03923,-78.10974c49.17499,0 89.03918,34.9709 89.03918,78.10974z" fill="#ff8700"/><path d="M285.13804,312.19158c0,43.1388 -28.65499,78.10974 -64.00274,78.10974c-35.34775,0 -64.00274,-34.9709 -64.00274,-78.10974c0,-32.22677 15.99182,-59.89522 38.8191,-71.83075c7.72934,-4.04138 51.37482,-0.71355 60.53362,6.70576c17.26868,13.98892 28.65277,37.93447 28.65277,65.12499z" fill="#ff8700"/><path d="M155.1207,332.43289c-0.04513,-0.6624 0.03816,-1.41076 0.3014,-2.2534c1.61746,-5.17688 6.79434,-3.55943 6.79434,-3.55943c9.39709,2.93972 19.01209,5.03385 28.35335,8.17225c4.65126,1.56268 10.39446,4.73092 15.22687,5.4748c2.72644,0.41969 4.34222,-2.08071 6.03117,-3.5856c3.50293,-3.1212 9.68602,-11.39398 13.91797,-12.75082c9.88407,-3.16906 21.32361,8.34828 29.22011,13.0846c4.33931,2.14322 7.86483,-1.71412 12.02462,-4.14795c5.00529,-2.9285 10.00003,-6.24484 15.20342,-8.80322c3.01633,-1.48307 6.2382,-5.45951 9.26088,-3.98944c3.58885,1.74545 4.56635,6.92873 4.95027,10.90102c0.27728,2.86899 -2.01108,5.40397 -3.11729,8.0656c-2.70113,6.4992 -6.06976,12.52034 -9.70818,18.52912c-3.8007,6.27679 -11.06555,16.33628 -18.40266,18.85936c-8.00944,2.75428 -21.91538,-2.53703 -29.46682,-5.61229c-8.82571,3.10616 -16.55864,9.37201 -25.10201,13.30882c-2.41797,1.11423 -4.71999,2.9583 -7.38066,3.05272c-8.61601,0.30584 -13.61509,-6.33864 -18.16798,-12.11116c-9.04932,-11.47345 -20.69584,-19.26273 -28.95897,-31.53034l-2.13052,-5.38754c0,0 -1.25927,-3.46176 1.15072,-5.71722z" fill="#000000"/><path d="M270.05753,261.20421c6.78823,6.38143 18.46522,45.89609 18.46522,45.89609l-44.12026,0.8339c0,0 23.36272,-48.88495 25.65509,-46.72998z" fill="#000000"/><path d="M197.47571,303.47085l-43.91696,-4.31233c0,0 14.75822,-38.47015 22.02876,-44.29611c2.45522,-1.96743 21.8882,48.60844 21.8882,48.60844z" data-paper-data="{&quot;index&quot;:null}" fill="#000000"/></g></g></g></svg>