<svg version="1.1" xmlns="http://www.w3.org/2000/svg" xmlns:xlink="http://www.w3.org/1999/xlink" width="157.43444" height="124.11762" viewBox="0,0,157.43444,124.11762"><g transform="translate(-161.42206,-118.08047)"><g data-paper-data="{&quot;isPaintingLayer&quot;:true}" fill-rule="nonzero" stroke-width="2" stroke-linejoin="miter" stroke-miterlimit="10" stroke-dasharray="" stroke-dashoffset="0" style="mix-blend-mode: normal"><g><path d="M292.98798,151.6694c9.99424,27.91374 -10.56666,60.80474 -45.92406,73.46411c-35.3574,12.65937 -72.12217,0.29326 -82.1164,-27.62047c-9.99424,-27.91374 10.56666,-60.80474 45.92406,-73.46411c35.3574,-12.65937 72.12217,-0.29326 82.1164,27.62047z" fill="#f1f1f1" stroke="#000000" stroke-linecap="butt"/><path d="M270.00873,240.91953l-23.84437,-66.5969l47.56921,-17.03169l23.84437,66.5969z" fill="#f1f1f1" stroke="#000000" stroke-linecap="butt"/><path d="M249.16333,217.67343l-14.2877,-39.90528l57.08306,-20.43803l14.2877,39.90528z" fill="#f1f1f1" stroke="#f1f1f1" stroke-linecap="butt"/><path d="M279.31374,236.09721l-7.58923,-22.02931" fill="none" stroke="#000000" stroke-linecap="round"/><path d="M287.60084,233.42824l-7.58923,-22.02931" fill="none" stroke="#000000" stroke-linecap="round"/><path d="M296.5111,230.83431l-7.58923,-22.02931" fill="none" stroke="#000000" stroke-linecap="round"/><path d="M304.89282,228.42962l-7.58923,-22.02931" fill="none" stroke="#000000" stroke-linecap="round"/><path d="M311.33,226.42301l-7.58923,-22.02931" fill="none" stroke="#000000" stroke-linecap="round"/><path d="M260.4987,166.05977c3.57964,9.99786 -2.09664,21.17405 -12.67832,24.96272c-10.58168,3.78867 -22.06169,-1.24488 -25.64133,-11.24274c-3.57964,-9.99786 2.09664,-21.17405 12.67832,-24.96271c10.58168,-3.78867 22.06169,1.24488 25.64132,11.24274z" fill="#000000" stroke="#bfbfbf" stroke-linecap="butt"/></g></g></g></svg>