<svg version="1.1" xmlns="http://www.w3.org/2000/svg" xmlns:xlink="http://www.w3.org/1999/xlink" width="81.48672" height="100.06771" viewBox="0,0,81.48672,100.06771"><g transform="translate(-199.34189,-147.47991)"><g data-paper-data="{&quot;isPaintingLayer&quot;:true}" stroke-miterlimit="10" stroke-dasharray="" stroke-dashoffset="0" style="mix-blend-mode: normal"><g><path d="M243.68529,199.22876c2.70037,1.61805 1.36862,8.80568 -2.97454,16.05404c-4.34316,7.24835 -10.05307,11.81264 -12.75344,10.19459c-1.33854,-0.80204 -4.53272,-2.11338 -4.01415,-4.98144c0.5276,-2.91797 4.79837,-7.41715 6.98869,-11.0726c4.34316,-7.24835 10.05307,-11.81264 12.75344,-10.19459z" data-paper-data="{&quot;index&quot;:null}" fill="#ffab19" fill-rule="nonzero" stroke="#001026" stroke-width="1.2" stroke-linecap="butt" stroke-linejoin="miter"/><g data-paper-data="{&quot;index&quot;:null}" fill-rule="evenodd"><path d="M256.82687,215.24251c0.6689,0.78267 -1.7634,7.90825 -0.49962,11.12117c0.96703,2.25275 2.32745,4.93589 4.96056,6.85076c5.89538,4.41639 14.17166,4.47259 12.86881,8.61416c-1.28298,4.23957 -14.14151,6.74521 -20.48647,-4.4164c-2.20682,-3.83796 -2.96208,-7.56215 -3.4802,-10.62018c-0.159,-0.78404 -0.84435,-7.68551 2.01082,-10.71338c2.85517,-3.02788 4.07509,-1.54067 4.62611,-0.83613z" fill="#ffab19" stroke="#001026" stroke-width="1.2" stroke-linecap="round" stroke-linejoin="round"/><path d="M269.69431,237.93787c2.57212,1.11095 4.14157,1.30285 4.14705,3.34245c-0.19053,2.07935 -4.10798,3.89415 -7.73691,3.60973c-3.62893,-0.28442 -5.71102,-1.49475 -7.24346,-2.51044c0.72578,0.05688 2.96139,0.01165 3.89758,-1.91281c1.2487,-2.39598 -0.36872,-5.84329 -0.36872,-5.84329c0,0 4.34032,2.2829 7.30446,3.31435z" fill="#ffffff" stroke="none" stroke-width="1" stroke-linecap="butt" stroke-linejoin="miter"/></g><path d="M245.60457,232.83459c0,0 -12.58313,-4.14445 -14.63533,-4.82715c-0.51439,-0.17112 1.82478,2.41536 1.82478,2.41536c0.01425,-0.06083 -2.69066,-3.21104 -2.67644,-3.27187c0.70982,-3.03707 0.3192,-9.08702 4.76002,-7.53664c4.44082,1.55038 5.06303,1.51433 6.88137,2.33843c2.07616,0.94093 2.4499,3.67271 2.4499,3.67271l1.39571,7.20916z" data-paper-data="{&quot;index&quot;:null}" fill="#ffab19" fill-rule="nonzero" stroke="#000000" stroke-width="1.25" stroke-linecap="butt" stroke-linejoin="miter"/><path d="M229.61229,222.63651c0.5319,-2.28611 21.38335,-0.27602 21.38335,-0.27602l-1.95709,5.88301c0,0 -1.99422,1.44436 -4.80636,0.50884c-2.75562,-0.91671 -9.36784,-3.78466 -14.6199,-6.11583z" data-paper-data="{&quot;index&quot;:null}" fill="#ffab19" fill-rule="nonzero" stroke="none" stroke-width="0" stroke-linecap="butt" stroke-linejoin="miter"/><g data-paper-data="{&quot;index&quot;:null}" fill-rule="evenodd"><path d="M249.25714,226.09474c0,0 -1.29873,0.02358 -3.49333,0.1562c-1.15537,-0.6644 -2.33838,-1.25465 -2.993,-1.81563c-2.03208,-1.74141 -3.49727,-5.44817 -4.34234,-6.70812l0.3916,-0.05136c-0.4229,-1.43915 -0.48679,-3.35903 -0.39245,-6.15922c0.09535,-2.30019 1.18766,-6.10241 1.18766,-6.10241c0.77486,-2.54157 3.16636,-6.74642 5.75052,-4.69164c1.70283,1.39656 3.48477,2.35297 6.50808,3.98685c5.52533,2.62884 6.88536,2.64608 6.43504,7.427c-0.70895,5.46145 2.72508,12.39453 -9.05178,13.95835z" fill="#ffab19" stroke="#001026" stroke-width="1.2" stroke-linecap="round" stroke-linejoin="round"/><path d="M239.60103,218.13427c0,0 -1.22715,-3.53752 -0.29711,-8.45942c0,0 -0.02635,-3.13994 5.03448,-2.73018c5.34076,0.3692 4.788,3.95032 4.79407,6.95032c-0.20878,3.04266 -1.41956,8.09398 -3.95032,9.73384c-0.53055,0.34377 -2.7837,0.10105 -3.24808,0.14358c-2.17951,0.24442 -2.33305,-5.63814 -2.33305,-5.63814z" fill="#ffffff" stroke="none" stroke-width="1" stroke-linecap="butt" stroke-linejoin="miter"/></g><path d="M242.23313,156.16134c2.30834,-0.34863 4.7122,-0.49506 7.50705,-0.23269c4.69438,0.30474 9.15536,2.10464 9.15536,2.10464l12.27312,-7.62828c0.40436,-0.19103 0.89754,0.12005 0.78865,0.51772l-2.49855,17.84873c-0.58202,-0.81317 10.312,13.03314 2.9596,24.27202c-7.3524,11.23887 -22.56235,16.00096 -41.27518,11.88274c-18.71284,-4.11822 -22.87097,-15.01363 -21.54419,-20.68546c1.32677,-5.67183 8.47183,-7.61301 8.47183,-7.61301c0,0 0.20031,-4.49665 3.52213,-9.92394c1.97309,-3.25682 8.47629,-7.81297 8.47629,-7.81297l2.83791,-10.63938c0.10889,-0.39767 0.61099,-0.4865 0.90646,-0.27986z" fill="#ffab19" fill-rule="evenodd" stroke="#001026" stroke-width="1.2" stroke-linecap="butt" stroke-linejoin="miter"/><path d="M218.36183,177.03437c8.54024,-1.71003 9.19959,4.60625 16.38665,5.26664c8.38453,0.78712 20.08455,-8.05423 26.54434,2.79248c6.46201,10.74674 -5.35618,24.88678 -29.43869,19.34849c-18.51511,-4.01379 -23.08428,-14.41824 -21.7575,-20.09007c1.32678,-5.67183 8.2652,-7.31755 8.2652,-7.31755z" fill="#ffffff" fill-rule="evenodd" stroke="none" stroke-width="1" stroke-linecap="butt" stroke-linejoin="miter"/><path d="M237.48027,187.0483c9.01743,-1.57987 11.66812,4.31453 12.7478,9.1035c0.11165,0.3841 -0.18872,0.78382 -0.60073,0.79945c-2.01988,-0.14182 -7.65185,-0.17089 -13.52501,1.11981c-5.2691,1.21925 -8.25817,2.40056 -9.61481,3.10734c-0.45221,0.23558 -0.97587,-0.13288 -0.92339,-0.66884c0.11056,-2.8439 1.66601,-11.1065 11.91613,-13.46126z" data-paper-data="{&quot;index&quot;:null}" fill="#ffffff" fill-rule="evenodd" stroke="#001026" stroke-width="1.2" stroke-linecap="round" stroke-linejoin="round"/><path d="M211.75198,181.88818c0,0 -7.19598,-0.2605 -11.81009,-4.16434" fill="none" fill-rule="evenodd" stroke="#001026" stroke-width="1.2" stroke-linecap="round" stroke-linejoin="round"/><path d="M211.22053,187.77781c0,0 -3.9414,1.81258 -10.22868,1.17225" fill="none" fill-rule="evenodd" stroke="#001026" stroke-width="1.2" stroke-linecap="round" stroke-linejoin="round"/><path d="M235.20636,179.71055c1.9995,0.04459 4.6966,0.20477 4.56987,1.40224c-0.03567,1.5996 -4.29036,4.00534 -6.08546,3.76526c-1.59738,-0.13564 -3.03458,-2.96839 -2.90339,-4.36581c0.11558,-0.6976 2.31949,-0.8485 4.41897,-0.80168z" fill="#001026" fill-rule="evenodd" stroke="#001026" stroke-width="1.2" stroke-linecap="round" stroke-linejoin="round"/><path d="M268.00008,184.84294c3.56824,-3.0212 12.22853,-5.62877 12.22853,-5.62877" fill="none" fill-rule="evenodd" stroke="#001026" stroke-width="1.2" stroke-linecap="round" stroke-linejoin="round"/><path d="M279.30583,189.1961c0,0 -7.42268,0.93475 -11.68371,-0.8607" fill="none" fill-rule="evenodd" stroke="#001026" stroke-width="1.2" stroke-linecap="round" stroke-linejoin="round"/><path d="M223.67013,167.75041c2.9996,-4.43423 7.74748,-6.5289 10.50443,-4.56695c2.75917,1.86198 2.5455,6.95849 -0.45411,11.39271c-3.09958,4.432 -7.74525,6.42892 -10.50443,4.56694c-2.75917,-1.86198 -2.54549,-6.95849 0.45411,-11.39271z" fill="#ffffff" fill-rule="evenodd" stroke="#001026" stroke-width="1.2" stroke-linecap="round" stroke-linejoin="round"/><path d="M233.199,167.10862c0.02452,-1.09972 0.84439,-1.98167 1.84414,-1.95937c0.99975,0.02229 1.77948,0.9399 1.75496,2.03963c-0.02452,1.09972 -0.84439,1.98167 -1.84414,1.95937c-0.99975,-0.0223 -1.77948,-0.93991 -1.75496,-2.03964" fill="#001026" fill-rule="evenodd" stroke="none" stroke-width="1" stroke-linecap="butt" stroke-linejoin="miter"/><path d="M259.29918,166.8445c3.05018,2.26856 2.72316,7.96269 -0.47417,12.29248c-3.09735,4.33203 -7.52747,5.63358 -10.78429,3.66048c-2.65697,-1.95973 -2.73653,-7.36284 0.36082,-11.69486c3.09735,-4.33202 7.84969,-6.62664 10.89764,-4.2581z" fill="#ffffff" fill-rule="evenodd" stroke="#001026" stroke-width="1.2" stroke-linecap="round" stroke-linejoin="round"/><path d="M257.23423,171.40857c0.02452,-1.09972 0.84216,-1.88169 1.84414,-1.95937c0.99975,0.0223 1.77949,0.9399 1.75496,2.03963c-0.02453,1.09972 -0.84439,1.98167 -1.84414,1.95937c-0.99975,-0.02229 -1.77949,-0.9399 -1.75496,-2.03963" fill="#001026" fill-rule="evenodd" stroke="none" stroke-width="1" stroke-linecap="butt" stroke-linejoin="miter"/><g data-paper-data="{&quot;index&quot;:null}" fill="#ffab19" fill-rule="nonzero" stroke-linecap="butt" stroke-linejoin="miter"><path d="M230.91847,241.91001c0,0 -0.46892,-5.64286 -0.69577,-11.79499c-0.04566,-1.23826 0.59621,-2.3955 0.50721,-3.64348c3.06946,-0.65918 5.1289,-1.18453 8.21674,-1.7358c0.04644,-0.00828 0.09288,-0.01657 0.13932,-0.02484l1.39776,16.38305z" stroke="#000000" stroke-width="1.25"/><path d="M225.18753,242.9664c-0.21766,-2.55115 3.08544,-4.91614 7.37766,-5.28235c4.29222,-0.36621 7.94821,1.40505 8.16587,3.95621c0.21766,2.55116 -3.08543,4.91615 -7.37766,5.28236c-4.29222,0.36621 -7.94821,-1.40505 -8.16587,-3.95621z" stroke="#000000" stroke-width="1.25"/><path d="M237.50283,233.60284c0.62273,-0.05313 0.68281,0.65103 0.68281,0.65103l-0.01911,0.05897c0.30347,0.87896 1.51087,3.93316 1.55062,5.60641c0.0737,0.36542 0.12638,0.72112 0.15516,1.05835l-0.02534,0.0558l0.02391,0.00243l-0.04593,0.74898c-0.01562,0.34322 -0.25219,0.62571 -0.56476,0.65238c-0.2901,0.02476 -0.55301,-0.17875 -0.64811,-0.47644c-0.05309,0.02235 -0.10995,0.03673 -0.16958,0.04182c-0.34393,0.02933 -0.64963,-0.26214 -0.68282,-0.65103l-0.07476,-0.87628c-0.00437,-0.05121 -0.01007,-0.10627 -0.0169,-0.16474c-0.07263,0.16939 -0.15886,0.33097 -0.26068,0.48368c-0.01173,0.18446 -0.03787,0.32614 -0.0854,0.3901c-0.01154,0.01553 -0.02359,0.0301 -0.03614,0.04377l0.08662,0.13426l-0.33988,0.27553c-0.00199,0.01018 -0.004,0.02035 -0.00602,0.03053l0.21052,0.0487l-0.14415,0.8799c-0.04408,0.30843 -0.26832,0.55238 -0.55772,0.57708c-0.28939,0.02469 -0.55174,-0.17779 -0.64741,-0.47428l-0.27946,-0.80898c-0.07836,-0.16581 -0.16607,-0.47936 -0.26233,-0.86603c-0.08699,-0.11929 -0.2064,-0.34146 -0.14617,-0.60653c-0.06133,-0.25871 -0.12547,-0.53017 -0.19226,-0.79922c-0.47229,-0.09598 -0.99134,-0.21821 -1.42009,-0.44242l0.01145,0.13411c0.03318,0.38889 -0.21873,0.72795 -0.56266,0.75729c-0.28014,0.0239 -0.53493,-0.16503 -0.63773,-0.44609l-0.27965,-0.71719l0.01885,-0.009l-0.03695,-0.04278c-0.04921,-0.21214 -0.09373,-0.42544 -0.13497,-0.63956l-0.3989,-0.83128c-0.0434,-0.08582 -0.07178,-0.18289 -0.08065,-0.28693c-0.03318,-0.3889 0.21873,-0.72795 0.56266,-0.75729c0.14898,-0.01271 0.29076,0.03477 0.40636,0.12429l0.3595,0.27343c0.55473,-0.64257 1.51264,-1.03154 2.23892,-0.54041c0.05798,0.03923 0.1127,0.08219 0.16442,0.12859c0.24492,-0.00238 0.48307,0.00679 0.7013,0.02266c-0.12319,-1.83057 -0.30785,-3.78751 -0.45728,-4.48351c0,0 -0.14754,-0.68959 0.46044,-0.84176c0.60798,-0.15216 0.75553,0.53739 0.75553,0.53739c0.16984,0.79643 0.27285,1.58277 0.34176,2.36479c0.07451,-0.15529 0.21599,-0.29769 0.48294,-0.32047zM235.97874,237.85759c0.00455,-0.04611 0.0092,-0.09189 0.01395,-0.1373c-0.01691,-0.00325 -0.03375,-0.00644 -0.05049,-0.00958c0.01264,0.04845 0.02481,0.09744 0.03654,0.14687z" stroke="none" stroke-width="0.5"/><path d="M231.83213,231.57928l-0.57565,-6.74723c2.28387,-0.47192 4.5821,-0.89571 6.87624,-1.30788c-0.05101,4.2188 -0.12303,7.52805 -0.12303,7.52805z" stroke="none" stroke-width="0"/></g><g data-paper-data="{&quot;index&quot;:null}" fill="#ffab19" fill-rule="nonzero" stroke-linecap="butt" stroke-linejoin="miter"><path d="M248.44756,240.71388c0,0 -1.52507,-14.64316 -1.33109,-18.14821c0.08463,-1.52903 2.4714,-2.45564 2.4714,-2.45564l6.14367,-2.6997l2.29433,22.87058z" stroke="#000000" stroke-width="1.25"/><path d="M251.89173,237.31896c4.29808,-0.29584 7.92184,1.58114 8.09386,4.19234c0.17202,2.6112 -3.17281,4.96782 -7.4709,5.26366c-4.29808,0.29584 -7.92183,-1.58114 -8.09385,-4.19234c-0.17202,-2.6112 3.17281,-4.96782 7.47089,-5.26366z" stroke="#000000" stroke-width="1.25"/><path d="M255.17933,235.21754c0.62359,-0.02818 0.67107,0.44513 0.67107,0.44513l-0.02015,0.03934c0.28771,0.59356 1.44032,2.65786 1.45016,3.78133c0.06715,0.24614 0.11347,0.4855 0.13621,0.71218l-0.02633,0.03715l0.02386,0.00191l-0.0593,0.50213c-0.02176,0.23017 -0.26334,0.41692 -0.57634,0.43106c-0.29049,0.01314 -0.54973,-0.12661 -0.63949,-0.32754c-0.05348,0.01437 -0.11059,0.02334 -0.1703,0.02604c-0.3444,0.01557 -0.64484,-0.18372 -0.67107,-0.44513l-0.05909,-0.58901c-0.00346,-0.03442 -0.00816,-0.07143 -0.01395,-0.11076c-0.07566,0.11282 -0.16476,0.22023 -0.26929,0.3215c-0.01503,0.12366 -0.04371,0.21842 -0.09237,0.26078c-0.01181,0.01028 -0.02412,0.01991 -0.03691,0.02893l0.0842,0.09115l-0.34475,0.18085c-0.00217,0.00681 -0.00435,0.01361 -0.00656,0.02042l0.20961,0.03521l-0.15986,0.5888c-0.04958,0.20647 -0.27814,0.36752 -0.56793,0.38062c-0.28979,0.0131 -0.54847,-0.12593 -0.63883,-0.32608l-0.26496,-0.54631c-0.07538,-0.11221 -0.15748,-0.3237 -0.24681,-0.58437c-0.08484,-0.08111 -0.20026,-0.23164 -0.13531,-0.40882c-0.0567,-0.17436 -0.11598,-0.35732 -0.17794,-0.5387c-0.47051,-0.07008 -0.98727,-0.15835 -1.41195,-0.31397l0.00904,0.09015c0.02623,0.26141 -0.2317,0.48594 -0.5761,0.50151c-0.28052,0.01268 -0.53187,-0.11719 -0.62964,-0.30705l-0.26678,-0.4847l0.019,-0.00581l-0.03618,-0.02915c-0.0454,-0.14296 -0.08612,-0.28666 -0.12352,-0.43086l-0.38397,-0.5627c-0.04186,-0.05812 -0.0685,-0.1236 -0.07551,-0.19354c-0.02623,-0.26141 0.2317,-0.48593 0.5761,-0.5015c0.14917,-0.00674 0.2901,0.02681 0.40407,0.08828l0.35455,0.18782c0.56612,-0.4246 1.53083,-0.67416 2.24822,-0.33583c0.05727,0.02702 0.11123,0.05651 0.1621,0.08828c0.24494,0.00134 0.48287,0.01033 0.70079,0.02361c-0.09045,-1.23006 -0.24011,-2.54568 -0.37708,-3.01458c0,0 -0.13519,-0.46458 0.47541,-0.55942c0.6106,-0.09484 0.7458,0.36973 0.7458,0.36973c0.15558,0.53656 0.24453,1.06554 0.29945,1.59122c0.07729,-0.10333 0.22129,-0.19721 0.4886,-0.20929zM253.59584,237.96281c-0.01685,-0.00238 -0.03362,-0.00473 -0.0503,-0.00703c0.01178,0.03266 0.02307,0.06568 0.03391,0.09901c0.00536,-0.0309 0.01083,-0.06157 0.01639,-0.09198z" stroke="none" stroke-width="0.5"/><path d="M249.11412,234.74623c0,0 -1.84878,-13.41664 -1.32077,-15.77488c0.52801,-2.35824 5.61209,-3.39134 5.61209,-3.39134c0,0 2.09199,0.87175 2.29111,2.85664c0.34653,3.45425 -0.39643,16.02995 -0.39643,16.02995z" stroke="none" stroke-width="0"/></g><path d="M246.70142,224.58624c-0.61549,-0.10866 -0.50683,-0.72414 -0.50683,-0.72414l0.09433,-0.53007c0.26489,-1.16287 0.63307,-2.29039 1.05419,-3.40555c0.56547,-1.51703 1.29367,-3.68474 2.52161,-4.79099c2.96523,-2.67137 5.86215,0.20998 6.33258,3.26879c0,0 0.09406,0.61788 -0.52382,0.71194c-0.61788,0.09406 -0.71194,-0.52382 -0.71194,-0.52382c-0.30887,-2.05243 -2.04565,-4.55488 -4.26126,-2.52721c-1.06232,0.97221 -1.6951,2.97736 -2.18678,4.30022c-0.40147,1.06204 -0.75434,2.13587 -1.0057,3.24374l-0.08226,0.47026c0,0 -0.10865,0.61548 -0.72414,0.50683z" data-paper-data="{&quot;index&quot;:null}" fill="#000000" fill-rule="nonzero" stroke="none" stroke-width="0.5" stroke-linecap="butt" stroke-linejoin="miter"/><path d="M244.90789,216.05029c2.87522,-7.94575 7.60573,-13.5187 10.56592,-12.44754c2.96018,1.07115 3.02906,8.38081 0.15383,16.32655c-2.87523,7.94575 -7.60574,13.5187 -10.56593,12.44754c-1.46733,-0.53095 -4.85348,-1.20656 -4.89355,-4.12084c-0.04077,-2.96501 3.2897,-8.19858 4.73971,-12.20572z" data-paper-data="{&quot;index&quot;:null}" fill="#ffab19" fill-rule="nonzero" stroke="#001026" stroke-width="1.2" stroke-linecap="butt" stroke-linejoin="miter"/><path d="M267.0804,176.92977c0.5,0 0.5,0.5 0.5,0.5v0.07311c0,2.43829 -0.88182,4.55141 -2.00236,6.6783c-1.18833,1.94554 -4.53487,3.96955 -4.55309,0.08188c-0.01019,-2.17471 1.19968,-4.58183 2.09371,-6.49665c0,0 0.21153,-0.45305 0.66458,-0.24152c0.45305,0.21153 0.24152,0.66458 0.24152,0.66458c-0.811,1.73694 -1.70818,3.6674 -1.96761,5.59137c-0.40436,2.9988 1.787,1.31981 2.65139,-0.0936c1.03704,-1.97092 1.87186,-3.92543 1.87186,-6.18437v-0.07311c0,0 0,-0.5 0.5,-0.5z" fill="#001026" fill-rule="nonzero" stroke="none" stroke-width="0.5" stroke-linecap="butt" stroke-linejoin="miter"/></g></g></g></svg>