<svg version="1.1" xmlns="http://www.w3.org/2000/svg" xmlns:xlink="http://www.w3.org/1999/xlink" width="482.43107" height="356.76103" viewBox="0,0,482.43107,356.76103"><g transform="translate(1.64289,-0.00399)"><g data-paper-data="{&quot;isPaintingLayer&quot;:true}" fill-rule="nonzero" stroke-linecap="butt" stroke-linejoin="miter" stroke-miterlimit="10" stroke-dasharray="" stroke-dashoffset="0" style="mix-blend-mode: normal"><path d="M-1.64289,356.76501v-356.76102h482.43107v356.76103z" fill="#003484" stroke="none" stroke-width="NaN"/><path d="M267.74943,250.5715c0.99442,0.20384 0.79058,1.19826 0.79058,1.19826l-0.01266,0.06176c-0.1566,0.72885 -0.17392,1.5023 -0.4698,2.18655c-0.30477,0.70482 -2.09127,2.88978 -2.58694,3.51694c-0.91263,0.96657 -1.61758,2.11025 -2.40343,3.18244c-0.7408,1.01073 -2.15837,1.68374 -2.77889,2.75124c-0.20328,0.3497 -0.16895,0.8048 -0.37038,1.15556c-0.36401,0.63386 -0.86807,1.17627 -1.30519,1.7621c-0.73166,0.98055 -2.24403,2.23445 -2.85192,3.32292c-0.3223,0.57708 -0.40306,1.26916 -0.72959,1.84385c-0.83147,1.4634 -2.56296,3.55936 -4.24512,4.12858c-0.4777,0.16165 -1.00804,0.03551 -1.51228,0.04356c-0.5095,0.00812 -3.40357,-0.0122 -3.41092,-0.01311c-0.42481,-0.0522 -0.79637,-0.33315 -1.21812,-0.40604c-1.50118,-0.25944 -2.89104,-0.01633 -4.42786,-0.40054c-0.96425,0 -1.91093,-0.26053 -2.86369,-0.40891c-0.47189,-0.07349 -0.9676,0.04522 -1.43101,-0.07023c-1.16603,-0.29049 -2.22731,-0.98572 -3.41839,-1.14481c-4.33444,-0.57895 -8.17774,1.51564 -12.34082,2.02999c-1.86911,0.23093 -3.85586,-0.04265 -5.74066,0.12268c-3.78081,0.33165 -7.53921,0.62373 -11.31802,1.09604c-4.61139,0.5125 -9.23395,1.22217 -13.8524,1.6286c-1.06572,0.09379 -2.14496,-0.10973 -3.20951,-0.00351c-2.30536,0.23004 -4.56152,1.18994 -6.83388,1.61421c-4.48014,0.83648 -9.04458,0.82809 -13.57886,0.82809c-4.97619,0 -9.92968,-0.16833 -14.89276,-0.4296c-2.69902,-0.14208 -5.37918,-0.6563 -8.07921,-0.79045c-2.70945,-0.13462 -5.48926,0.19086 -8.1889,-0.13049c-3.35498,-0.39936 -6.75869,-1.3352 -10.0944,-1.92785c-2.45263,-0.79097 -5.0077,-1.53824 -7.19106,-2.9638c-1.30872,-0.85449 -3.27435,-2.05918 -2.38637,-4.19425c0.27536,-0.66209 1.25451,-0.72534 1.9448,-0.91946c1.57761,-0.44364 3.55318,-0.03675 5.20845,-0.39208c2.0861,-0.44782 4.00079,-1.55704 5.93535,-2.38612c1.72495,-0.73925 3.55167,-1.29429 5.27851,-2.0302c1.53272,-0.65318 2.87558,-1.66357 4.27311,-2.55375c0.84763,-0.45075 2.60805,-1.33063 3.38419,-1.9558c0.52401,-0.42209 0.91292,-0.99352 1.42651,-1.42823c0.73611,-0.62305 1.6709,-1.1171 2.11679,-1.97222c0.37479,-0.71877 -1.39457,-2.55748 -1.62228,-3.01496c-0.8731,-1.75402 -1.16534,-3.58398 -1.58521,-5.4734c-0.03056,-0.1375 -0.89096,-4.00048 -0.89894,-4.07315c-0.21966,-2.00106 -0.00606,-4.18661 -0.00606,-6.20136c0,-1.82838 -0.32607,-4.07137 0.01705,-5.86982c0.30144,-1.57999 1.24805,-2.6389 2.12207,-3.94639c5.79836,-0.35965 11.65732,-0.12699 17.46584,-0.13418c1.9473,-0.00241 4.04146,0.15995 5.97726,-0.05904c2.6908,-0.30439 4.95263,-1.37971 7.40698,-2.4116c2.20977,-0.92907 4.44202,-1.79619 6.64639,-2.73974c3.28456,-1.08541 6.52562,-1.67174 9.86343,-2.47297c1.2714,-0.3052 2.4371,-0.96487 3.70118,-1.29911c2.76745,-0.73174 5.48079,-0.76007 8.31478,-0.76007c3.37269,0 6.53425,0.05189 9.73134,1.29704c3.03327,1.18136 5.35509,3.16517 7.72105,5.31604c2.25125,2.05044 4.00913,4.45451 6.0354,6.71076c2.60878,2.90486 5.465,5.53827 8.84185,7.50673c1.11071,0.64746 2.12836,1.48132 3.3211,1.96117c1.28164,0.51561 3.18323,0.35325 4.54718,0.35251c2.44367,-0.00133 4.88735,-0.00014 7.33102,0.00029c4.59225,0.00104 9.63898,-0.14705 13.59655,2.65163c0.384,0.27156 0.62754,0.70088 0.93123,1.06001c0.49543,0.5859 1.14594,1.07736 1.46588,1.77477c0.54659,1.19145 0.42757,3.19087 0.42864,4.46127c0.0001,0.1253 0.00136,1.4572 -0.0008,2.59272c0.36416,-0.65301 0.63612,-1.37098 0.8209,-2.32876l0.01266,-0.06176c0,0 0.20384,-0.99442 1.19826,-0.79058z" data-paper-data="{&quot;index&quot;:null}" fill="#828282" stroke="#6b6b6b" stroke-width="5"/><path d="M117.97589,117.23698c1.64992,-0.33821 1.98812,1.31171 1.98812,1.31171l0.02101,0.10247c0.30658,1.58912 0.75781,2.78035 1.36201,3.86381c-0.00358,-1.88403 -0.0015,-4.09387 -0.00133,-4.30177c0.00176,-2.10781 -0.19571,-5.42519 0.71118,-7.40201c0.53084,-1.15712 1.61014,-1.97254 2.43215,-2.94465c0.50387,-0.59586 0.90794,-1.30818 1.54507,-1.75874c6.56628,-4.64349 14.93968,-4.39778 22.55901,-4.39951c4.05447,-0.00071 8.10895,-0.00269 12.16342,-0.00048c2.26302,0.00123 5.41809,0.27061 7.54455,-0.58487c1.97896,-0.79615 3.66742,-2.17967 5.51028,-3.25392c5.60277,-3.26601 10.34173,-7.63529 14.67015,-12.45496c3.36194,-3.74351 6.27856,-7.73227 10.01377,-11.13431c3.92554,-3.56867 7.77783,-6.86015 12.81055,-8.82023c5.30452,-2.06592 10.55008,-2.15201 16.14596,-2.15201c4.70208,0 9.20397,0.04701 13.79565,1.26109c2.09732,0.55455 4.03142,1.64906 6.14089,2.15544c5.538,1.32938 10.91547,2.30221 16.36512,4.10309c3.65744,1.56551 7.36112,3.00422 11.02751,4.5457c4.0722,1.71209 7.82496,3.49623 12.28946,4.00126c3.21184,0.36333 6.68641,0.09395 9.91731,0.09795c9.63734,0.01194 19.35836,-0.37409 28.97884,0.22263c1.45015,2.16935 3.02074,3.92626 3.52088,6.54774c0.56929,2.98393 0.02829,6.70545 0.02829,9.73904c0,3.34281 0.3544,6.96901 -0.01006,10.28912c-0.01324,0.12057 -1.44079,6.52991 -1.49149,6.75805c-0.69664,3.13487 -1.18152,6.17109 -2.63014,9.08131c-0.37782,0.75903 -3.31349,3.80977 -2.69165,5.00233c0.73981,1.41879 2.29079,2.2385 3.51212,3.27225c0.85214,0.72126 1.4974,1.66936 2.36683,2.36968c1.28774,1.03727 4.20858,2.49714 5.61495,3.24501c2.31874,1.47696 4.54678,3.15337 7.08982,4.23711c2.86513,1.221 5.89597,2.1419 8.75796,3.36845c3.20977,1.37559 6.38657,3.21598 9.84777,3.95899c2.74638,0.58956 6.0242,-0.08555 8.64172,0.65053c1.14531,0.32208 2.76989,0.42703 3.22676,1.52555c1.47331,3.54245 -1.788,5.54123 -3.9594,6.95898c-3.62258,2.36525 -7.86188,3.60509 -11.93121,4.91745c-5.53452,0.98332 -11.18186,2.53604 -16.74835,3.19864c-4.47917,0.53317 -9.09134,-0.00686 -13.58679,0.2165c-4.47981,0.22259 -8.92666,1.07577 -13.4048,1.3115c-8.23461,0.43349 -16.4533,0.71278 -24.70966,0.71278c-7.52314,0 -15.09634,0.01393 -22.52966,-1.37394c-3.77025,-0.70394 -7.5136,-2.29659 -11.33859,-2.67826c-1.76627,-0.17624 -3.55692,0.16143 -5.32513,0.00582c-7.66279,-0.67434 -15.33242,-1.85181 -22.98351,-2.70213c-6.2697,-0.78364 -12.50552,-1.26825 -18.77854,-1.81852c-3.12721,-0.27432 -6.42357,0.17961 -9.52474,-0.20355c-6.90726,-0.85341 -13.28396,-4.32868 -20.47554,-3.36811c-1.97621,0.26396 -3.73706,1.41746 -5.6717,1.89944c-0.76888,0.19156 -1.59136,-0.0054 -2.3743,0.11653c-1.5808,0.24619 -3.15151,0.67845 -4.75136,0.67845c-2.54984,0.63746 -4.85587,0.23411 -7.34658,0.66456c-0.69976,0.12093 -1.31624,0.58708 -2.02107,0.67369c-0.01219,0.0015 -4.81395,0.03523 -5.6593,0.02175c-0.83661,-0.01335 -1.71655,0.19593 -2.50913,-0.07227c-2.79099,-0.94443 -5.66384,-4.42199 -7.04339,-6.85002c-0.54177,-0.95352 -0.67576,-2.10179 -1.21051,-3.05927c-1.0086,-1.80596 -3.51788,-3.8864 -4.73183,-5.5133c-0.72527,-0.972 -1.56158,-1.87195 -2.16554,-2.92363c-0.33422,-0.58197 -0.27725,-1.33706 -0.61453,-1.91728c-1.02956,-1.77116 -3.38154,-2.8878 -4.61066,-4.56478c-1.30386,-1.77895 -2.47349,-3.67651 -3.9877,-5.28022c-0.82241,-1.04057 -3.78651,-4.6658 -4.29218,-5.83521c-0.49091,-1.13529 -0.51966,-2.41858 -0.77948,-3.62787l-0.02101,-0.10247c0,0 -0.33821,-1.64992 1.31171,-1.98812z" fill="#828282" stroke="#6b6b6b" stroke-width="5"/></g></g></svg>