<svg version="1.1" xmlns="http://www.w3.org/2000/svg" xmlns:xlink="http://www.w3.org/1999/xlink" width="90.49104" height="112.81818" viewBox="0,0,90.49104,112.81818"><g transform="translate(-192.32102,-124.66823)"><g data-paper-data="{&quot;isPaintingLayer&quot;:true}" stroke-miterlimit="10" stroke-dasharray="" stroke-dashoffset="0" style="mix-blend-mode: normal"><path d="M248.08751,201.2889c-0.66069,4.2099 -0.26478,10.40065 -1.72944,12.97895c-1.43962,2.53421 -4.73219,1.49423 -6.27374,1.25231c-3.10996,-0.48807 -4.56905,-7.65095 -3.25897,-15.99873c1.31008,-8.34778 4.89323,-14.71933 8.00318,-14.23127c3.10996,0.48807 4.56905,7.65095 3.25897,15.99873z" fill="#ffab19" fill-rule="nonzero" stroke="#001026" stroke-width="1.2" stroke-linecap="butt" stroke-linejoin="miter"/><g fill="#ffab19" fill-rule="nonzero" stroke-linecap="butt" stroke-linejoin="miter"><g><path d="M224.54053,228.28614l10.83892,-32.38275l4.9264,5.44524c0,0 1.95994,1.93933 1.46555,4.16449c-1.13326,5.10087 -8.12729,25.82011 -8.12729,25.82011z" stroke="#000000" stroke-width="1.25"/><path d="M238.96473,233.7103c-0.8127,2.42803 -4.78311,3.2879 -8.86817,1.92058c-4.08506,-1.36733 -6.73785,-4.44406 -5.92516,-6.8721c0.8127,-2.42803 4.7831,-3.28789 8.86818,-1.92057c4.08506,1.36733 6.73785,4.44406 5.92515,6.87209z" stroke="#000000" stroke-width="1.25"/><path d="M229.20273,221.70846c0.25407,0.08504 0.358,0.25677 0.39383,0.42526c0.25125,-0.74376 0.53665,-1.48367 0.88939,-2.21766c0,0 0.30588,-0.63538 0.86088,-0.34422c0.555,0.29115 0.24913,0.92655 0.24913,0.92655c-0.30924,0.64119 -0.94983,2.49951 -1.50092,4.2495c0.21582,0.036 0.44943,0.08322 0.6869,0.14324c0.06119,-0.03292 0.12451,-0.06177 0.19009,-0.08622c0.82157,-0.30615 1.66083,0.29758 2.04854,1.05277l0.4138,-0.18103c0.13343,-0.05976 0.28242,-0.0725 0.4242,-0.02502c0.32733,0.10957 0.49226,0.49842 0.36836,0.86855c-0.03314,0.09902 -0.08359,0.18667 -0.146,0.25984l-0.58355,0.71387c-0.09053,0.19837 -0.18407,0.39518 -0.28188,0.58974l-0.04599,0.03287l0.01619,0.01317l-0.44078,0.6311c-0.16615,0.24891 -0.45827,0.3725 -0.72488,0.28326c-0.32733,-0.10957 -0.49226,-0.49842 -0.36836,-0.86855l0.04272,-0.12764c-0.46951,0.11686 -1.00274,0.11336 -1.48435,0.09533c-0.1283,0.24573 -0.25461,0.49443 -0.37518,0.7314c-0.00394,0.2718 -0.17233,0.45956 -0.28497,0.55499c-0.18467,0.3531 -0.34379,0.63715 -0.45901,0.77981l-0.46222,0.72036c-0.16286,0.26561 -0.46551,0.40055 -0.74094,0.30836c-0.27543,-0.09218 -0.43587,-0.38212 -0.40602,-0.69226l0.06725,-0.88908l0.21606,0.00227c0.00043,-0.01036 0.00087,-0.02073 0.00135,-0.03108l-0.26538,-0.34786l0.11581,-0.11008c-0.00898,-0.01625 -0.01725,-0.03325 -0.02481,-0.05104c-0.03111,-0.07336 -0.02314,-0.2172 0.00892,-0.39923c-0.06297,-0.1724 -0.1087,-0.34975 -0.13937,-0.53149c-0.02041,0.05522 -0.03892,0.10737 -0.05524,0.15611l-0.27915,0.83399c-0.12389,0.37012 -0.48967,0.58135 -0.81699,0.4718c-0.05674,-0.01899 -0.10862,-0.04638 -0.15495,-0.08061c-0.16256,0.2669 -0.46604,0.40273 -0.74213,0.31032c-0.29749,-0.09958 -0.46082,-0.42985 -0.39513,-0.76708l0.13186,-0.73872l0.02381,0.00328l-0.01147,-0.06021c0.10743,-0.32096 0.24245,-0.65421 0.40018,-0.99199c0.43293,-1.61676 2.32602,-4.30043 2.82806,-5.08314l-0.00468,-0.06181c0,0 0.22432,-0.67017 0.81699,-0.4718zM229.68127,226.20247c0.02305,-0.04528 0.04641,-0.09002 0.07011,-0.13413c-0.01701,-0.00089 -0.03411,-0.00176 -0.05132,-0.00259c-0.00608,0.04525 -0.01235,0.09083 -0.0188,0.13672z" stroke="none" stroke-width="0.5"/></g><path d="M229.36885,220.59556c0,0 4.0206,-18.31318 5.65765,-23.20412c0.94069,-2.81042 3.29316,-3.53766 3.29316,-3.53766l5.87939,1.96791l-8.95081,26.74178z" stroke="none" stroke-width="0"/></g><g fill-rule="evenodd"><path d="M224.7,201.10001c0.8,0.4 2.5,1.3 0.1,4.7c-2.4,3.4 -9.3,4.1 -10.1,4.1c-3.1,0.1 -6.9,0.1 -11.1,-1.3c-12.2,-4 -12.3,-17.1 -8.4,-19.2c3.8,-2.1 5.5,6 11,10.9c2.4,2.2 5.3,3 7.7,3.5c3.4,0.6 9.9,-3.2 10.8,-2.7z" fill="#ffab19" stroke="#001026" stroke-width="1.2" stroke-linecap="round" stroke-linejoin="round"/><path d="M199.9,193.00001c1.6,2.7 4.7,6.5 4.7,6.5c0,0 -3.7,-0.9 -5.8,0.8c-1.7,1.3 -1.3,3.5 -1.1,4.2c-1.3,-1.3 -2.9,-3.1 -3.9,-6.6c-1,-3.5 0,-7.7 2,-8.3c2,-0.4 2.5,1.1 4.1,3.4z" fill="#ffffff" stroke="none" stroke-width="1" stroke-linecap="butt" stroke-linejoin="miter"/></g><g fill-rule="evenodd"><path d="M232.12358,208.85965c-11.59765,-2.57575 -7.57729,-9.18612 -7.8116,-14.6884c-0.03546,-4.80195 1.32097,-4.70159 7.05282,-6.84308c3.1532,-1.36649 5.01113,-2.16532 6.82828,-3.40949c2.75207,-1.82376 4.77123,2.57203 5.32354,5.17106c0,0 0.75963,3.88239 0.65583,6.18222c-0.14801,2.79787 -0.37758,4.70504 -0.92328,6.10226l0.3857,0.08501c-0.9508,1.1822 -2.73085,4.74847 -4.90582,6.30775c-0.70065,0.50231 -1.93025,0.98811 -3.13871,1.55018c-2.17493,-0.32179 -3.46676,-0.45752 -3.46676,-0.45752z" fill="#ffab19" stroke="#001026" stroke-width="1.2" stroke-linecap="round" stroke-linejoin="round"/><path d="M242.43153,201.76345c0,0 -0.66135,5.84728 -2.81158,5.41542c-0.45897,-0.0825 -2.72466,-0.03541 -3.22352,-0.42375c-2.37957,-1.85244 -3.14927,-6.9895 -3.09432,-10.03882c0.26531,-2.98825 0.02411,-6.60374 5.3768,-6.51c5.07731,0.02914 4.7797,3.15506 4.7797,3.15506c0.5012,4.98386 -1.02708,8.40209 -1.02708,8.40209z" fill="#ffffff" stroke="none" stroke-width="1" stroke-linecap="butt" stroke-linejoin="miter"/></g><g fill="#ffab19" fill-rule="nonzero" stroke-linecap="butt" stroke-linejoin="miter"><g><path d="M229.73904,232.96987l-5.57246,-33.69083l6.90168,2.50738c0,0 2.63954,0.7969 3.24378,2.99478c1.38509,5.03832 4.89833,26.62213 4.89833,26.62213z" stroke="#000000" stroke-width="1.25"/><path d="M245.02487,231.01466c0.41782,2.5261 -2.68884,5.14377 -6.93891,5.84675c-4.25008,0.70295 -8.03415,-0.77499 -8.45197,-3.30109c-0.41782,-2.5261 2.68885,-5.14378 6.93894,-5.84674c4.25007,-0.70295 8.03414,0.77499 8.45195,3.30109z" stroke="#000000" stroke-width="1.25"/><path d="M230.78176,224.9752c0.26431,-0.04373 0.43654,0.05943 0.54703,0.19155c-0.12595,-0.77487 -0.21992,-1.56235 -0.2516,-2.37607c0,0 -0.02696,-0.70466 0.59978,-0.70702c0.62672,-0.00236 0.65369,0.70231 0.65369,0.70231c0.02672,0.71136 0.33005,2.65345 0.66183,4.45792c0.2076,-0.06918 0.43612,-0.13673 0.6741,-0.19481c0.03867,-0.05773 0.08113,-0.11285 0.12766,-0.16516c0.58284,-0.65498 1.60706,-0.5141 2.30305,-0.02808l0.28102,-0.3536c0.08997,-0.11524 0.21568,-0.19619 0.36319,-0.2206c0.34055,-0.05634 0.66826,0.21018 0.73194,0.59526c0.01706,0.10302 0.01346,0.20409 -0.00745,0.29796l-0.1817,0.90396c0.0128,0.21767 0.02223,0.43538 0.02682,0.65309l-0.02527,0.05057l0.02048,0.00408l-0.09427,0.76399c-0.03037,0.29773 -0.23072,0.54362 -0.5081,0.58951c-0.34055,0.05634 -0.66826,-0.21019 -0.73194,-0.59526l-0.02197,-0.1328c-0.36027,0.32297 -0.83317,0.56936 -1.26724,0.77878c0.00159,0.27722 0.00633,0.55611 0.01065,0.82195c0.1237,0.24207 0.06272,0.48678 0.00782,0.62384c0.00201,0.39847 -0.00572,0.72396 -0.0408,0.90396l-0.07145,0.85291c-0.01965,0.31094 -0.224,0.57181 -0.51055,0.61921c-0.28655,0.0474 -0.564,-0.13378 -0.68272,-0.42183l-0.35656,-0.81722l0.19202,-0.09909c-0.00448,-0.00936 -0.00891,-0.01873 -0.01335,-0.02812l-0.39731,-0.18327l0.05086,-0.15146c-0.01553,-0.01015 -0.03079,-0.02129 -0.04581,-0.03349c-0.06182,-0.05028 -0.12208,-0.18112 -0.17891,-0.35701c-0.13631,-0.1229 -0.25971,-0.25824 -0.37185,-0.40452c0.00779,0.05836 0.01584,0.1131 0.02422,0.16381l0.14351,0.86768c0.06368,0.38508 -0.16075,0.74291 -0.5013,0.79924c-0.05905,0.00977 -0.11769,0.00983 -0.17465,0.00126c-0.01879,0.31194 -0.22345,0.57397 -0.5107,0.62147c-0.30951,0.05119 -0.6084,-0.16426 -0.70813,-0.49305l-0.2291,-0.71456l0.02257,-0.00824l-0.0383,-0.04783c-0.05522,-0.33393 -0.09183,-0.69163 -0.11048,-1.06396c-0.37387,-1.63143 0.04354,-4.88899 0.12101,-5.81564l-0.03305,-0.05244c0,0 -0.11533,-0.69725 0.5013,-0.79924zM233.30742,228.72303c-0.00082,-0.05081 -0.0011,-0.10127 -0.0008,-0.15135c-0.01545,0.00716 -0.03097,0.01441 -0.04656,0.02173c0.01579,0.04284 0.03159,0.08605 0.04736,0.12962z" stroke="none" stroke-width="0.5"/></g><path d="M230.40786,223.91392c0,0 -5.0153,-18.06612 -5.85693,-23.15461c-0.48362,-2.92395 1.2552,-4.66738 1.2552,-4.66738c0,0 6.70526,2.54552 7.15461,5.26225c0.83275,5.03474 3.56404,21.54803 3.56404,21.54803z" stroke="none" stroke-width="0"/></g><path d="M234.39546,201.60221c-0.14745,4.25887 0.99322,10.35651 -0.14936,13.09283c-1.12303,2.6895 -4.51709,2.05481 -6.07659,2.0008c-3.14613,-0.10892 -5.45957,-7.04315 -5.16723,-15.48805c0.29237,-8.4449 3.07982,-15.20254 6.22595,-15.09362c3.14613,0.10892 5.45957,7.04315 5.16722,15.48805z" fill="#ffab19" fill-rule="nonzero" stroke="#001026" stroke-width="1.2" stroke-linecap="butt" stroke-linejoin="miter"/><path d="M263.67161,135.431c-1.25,0 -1.25,-1.25 -1.25,-1.25v-0.62097c0.00009,-0.70518 0.39873,-1.43254 0.19217,-2.10679c-0.14176,-0.46273 -0.96324,0.10337 -1.43935,0.19017c-1.66957,0.30439 -2.79462,1.08735 -4.04098,2.18975c0,0 -0.93847,0.82569 -1.76417,-0.11278c-0.82569,-0.93847 0.11278,-1.76417 0.11278,-1.76417c1.84794,-1.61832 6.88558,-4.84481 9.15864,-1.96639c0.35353,0.44768 0.28083,2.93898 0.2809,3.5702v0.62097c0,0 0,1.25 -1.25,1.25z" fill="#000000" fill-rule="nonzero" stroke="none" stroke-width="0.5" stroke-linecap="butt" stroke-linejoin="miter"/><path d="M277.44299,134.98842c-0.94052,-0.82336 -0.11715,-1.76388 -0.11715,-1.76388l0.19331,-0.19744c0.66055,-1.04195 2.65762,-4.5334 1.61924,-5.78717c-0.71009,-0.85738 -4.74514,2.00242 -5.3748,2.3802c0,0 -1.07192,0.64303 -1.71495,-0.42889c-0.64303,-1.07192 0.42889,-1.71495 0.42889,-1.71495c1.60965,-0.96547 4.17372,-2.9912 6.1648,-2.79474c5.14888,0.50804 2.65399,7.02315 0.99237,9.67765l-0.42782,0.51208c0,0 -0.82336,0.94052 -1.76388,0.11715z" fill="#000000" fill-rule="nonzero" stroke="none" stroke-width="0.5" stroke-linecap="butt" stroke-linejoin="miter"/><path d="M274.40706,151.13165c-1.25,0 -1.25,-1.25 -1.25,-1.25v-0.17729c0,-2.95144 0.82889,-4.75158 -2.47637,-4.73756c0,0 -1.25,0 -1.25,-1.25c0,-1.25 1.25,-1.25 1.25,-1.25c5.03399,0.01813 4.97637,3.04328 4.97637,7.23756v0.17729c0,0 0,1.25 -1.25,1.25z" fill="#000000" fill-rule="nonzero" stroke="none" stroke-width="0.5" stroke-linecap="butt" stroke-linejoin="miter"/><g fill-rule="evenodd"><path d="M248.34033,128.94513c0.29547,-0.20664 0.79757,-0.11781 0.90646,0.27986l2.83791,10.63938c0,0 6.5032,4.55615 8.47629,7.81297c3.32182,5.42729 3.52213,9.92394 3.52213,9.92394c0,0 7.14506,1.94118 8.47183,7.61301c1.32678,5.67183 -2.83135,16.56724 -21.54419,20.68546c-18.71283,4.11822 -33.92278,-0.64387 -41.27518,-11.88274c-7.3524,-11.23888 3.54162,-25.08519 2.9596,-24.27202l-2.49855,-17.84873c-0.10889,-0.39767 0.38429,-0.70875 0.78865,-0.51772l12.27312,7.62828c0,0 4.46098,-1.7999 9.15536,-2.10464c2.79485,-0.26237 5.19871,-0.11594 7.50705,0.23269z" fill="#ffab19" stroke="#001026" stroke-width="1.2" stroke-linecap="butt" stroke-linejoin="miter"/><path d="M263.7921,158.00789c0,0 6.93842,1.64572 8.2652,7.31755c1.32678,5.67183 -3.24239,16.07628 -21.7575,20.09007c-24.08251,5.53829 -35.9007,-8.60175 -29.43869,-19.34849c6.45979,-10.84671 18.15981,-2.00536 26.54434,-2.79248c7.18706,-0.66039 7.84641,-6.97667 16.38665,-5.26664z" fill="#ffffff" stroke="none" stroke-width="1" stroke-linecap="butt" stroke-linejoin="miter"/><path d="M244.67368,168.02183c10.25012,2.35476 11.80557,10.61736 11.91613,13.46126c0.05248,0.53596 -0.47118,0.90442 -0.92339,0.66884c-1.35664,-0.70678 -4.34571,-1.88809 -9.61481,-3.10734c-5.87316,-1.2907 -11.50513,-1.26163 -13.52501,-1.11981c-0.41201,-0.01563 -0.71238,-0.41535 -0.60073,-0.79945c1.07968,-4.78897 3.73037,-10.68337 12.7478,-9.1035z" data-paper-data="{&quot;index&quot;:null}" fill="#ffffff" stroke="#001026" stroke-width="1.2" stroke-linecap="round" stroke-linejoin="round"/><path d="M282.21206,158.69737c-4.61411,3.90384 -11.81009,4.16434 -11.81009,4.16434" fill="none" stroke="#001026" stroke-width="1.2" stroke-linecap="round" stroke-linejoin="round"/><path d="M281.16208,169.92359c-6.28728,0.64033 -10.22868,-1.17225 -10.22868,-1.17225" fill="none" stroke="#001026" stroke-width="1.2" stroke-linecap="round" stroke-linejoin="round"/><path d="M246.94759,160.68409c2.09948,-0.04682 4.30339,0.10408 4.41897,0.80168c0.13119,1.39742 -1.30601,4.23017 -2.90339,4.36581c-1.7951,0.24008 -6.04979,-2.16566 -6.08546,-3.76526c-0.12673,-1.19747 2.57037,-1.35765 4.56987,-1.40224z" fill="#001026" stroke="#001026" stroke-width="1.2" stroke-linecap="round" stroke-linejoin="round"/><path d="M201.92533,160.1877c0,0 8.66029,2.60757 12.22853,5.62877" fill="none" stroke="#001026" stroke-width="1.2" stroke-linecap="round" stroke-linejoin="round"/><path d="M214.53182,169.30893c-4.26103,1.79545 -11.68371,0.8607 -11.68371,0.8607" fill="none" stroke="#001026" stroke-width="1.2" stroke-linecap="round" stroke-linejoin="round"/><path d="M258.48381,148.72393c2.9996,4.43422 3.21328,9.53073 0.45411,11.39271c-2.75918,1.86198 -7.40485,-0.13494 -10.50443,-4.56694c-2.99961,-4.43422 -3.21328,-9.53073 -0.45411,-11.39271c2.75695,-1.96195 7.50483,0.13272 10.50443,4.56695z" fill="#ffffff" stroke="#001026" stroke-width="1.2" stroke-linecap="round" stroke-linejoin="round"/><path d="M259.33489,151.00552c0.02452,1.09973 -0.75521,2.01734 -1.75496,2.03964c-0.99975,0.0223 -1.81962,-0.85965 -1.84414,-1.95937c-0.02452,-1.09973 0.75521,-2.01734 1.75496,-2.03963c0.99975,-0.0223 1.81962,0.85965 1.84414,1.95937" fill="#001026" stroke="none" stroke-width="1" stroke-linecap="butt" stroke-linejoin="miter"/><path d="M233.7524,152.07613c3.09735,4.33202 3.01779,9.73513 0.36082,11.69486c-3.25682,1.9731 -7.68694,0.67155 -10.78429,-3.66048c-3.19733,-4.32979 -3.52435,-10.02392 -0.47417,-12.29248c3.04795,-2.36854 7.80029,-0.07392 10.89764,4.2581z" fill="#ffffff" stroke="#001026" stroke-width="1.2" stroke-linecap="round" stroke-linejoin="round"/><path d="M234.8012,154.25329c0.02453,1.09973 -0.75521,2.01734 -1.75496,2.03963c-0.99975,0.0223 -1.81961,-0.85965 -1.84414,-1.95937c-0.02453,-1.09973 0.75521,-2.01733 1.75496,-2.03963c1.00198,0.07768 1.81962,0.85965 1.84414,1.95937" fill="#001026" stroke="none" stroke-width="1" stroke-linecap="butt" stroke-linejoin="miter"/></g></g></g></svg>