<svg version="1.1" xmlns="http://www.w3.org/2000/svg" xmlns:xlink="http://www.w3.org/1999/xlink" width="117.91938" height="111.49955" viewBox="0,0,117.91938,111.49955"><g transform="translate(-176.58407,-124.09859)"><g data-paper-data="{&quot;isPaintingLayer&quot;:true}" stroke-miterlimit="10" stroke-dasharray="" stroke-dashoffset="0" style="mix-blend-mode: normal"><g><path d="M256.84726,188.54337c-9.79247,0.97621 -18.07481,-0.76729 -18.49911,-3.89425c-0.42431,-3.12695 7.17008,-6.45321 16.96255,-7.42943c9.79247,-0.97621 18.07481,0.76729 18.49912,3.89425c0.21034,1.54997 1.26953,4.88137 -1.75171,6.21881c-3.07382,1.36071 -10.27236,0.71829 -15.21081,1.2106z" data-paper-data="{&quot;index&quot;:null}" fill="#ffab19" fill-rule="nonzero" stroke="#001026" stroke-width="1.2" stroke-linecap="butt" stroke-linejoin="miter"/><g data-paper-data="{&quot;index&quot;:null}" fill="#ffab19" fill-rule="nonzero" stroke-linecap="butt" stroke-linejoin="miter"><g><path d="M236.06431,228.73851c0,0 6.97603,-20.7253 9.16195,-25.47135c0.95356,-2.07038 3.68756,-2.42747 3.68756,-2.42747l7.21751,-1.35179l-10.97649,32.33638z" stroke="#000000" stroke-width="1.25"/><path d="M230.39035,227.40957c0.823,-2.42455 4.79705,-3.26753 8.87626,-1.88285c4.07923,1.38467 6.7189,4.47266 5.89589,6.89721c-0.82301,2.42455 -4.79705,3.26754 -8.87626,1.88286c-4.07921,-1.38467 -6.71888,-4.47267 -5.89588,-6.89722z" stroke="#000000" stroke-width="1.25"/><path d="M245.42598,223.76647c0.59183,0.2009 0.36466,0.8701 0.36466,0.8701l-0.04114,0.04637c-0.07422,0.92691 -0.19206,4.20898 -0.82622,5.75791c-0.07894,0.36433 -0.17322,0.71132 -0.282,1.03182l-0.04558,0.04098l0.02093,0.01181l-0.34224,0.66781c-0.15186,0.3082 -0.48181,0.47219 -0.77887,0.37135c-0.2757,-0.09358 -0.43501,-0.38541 -0.40284,-0.69626c-0.0576,-0.00081 -0.11547,-0.01041 -0.17213,-0.02965c-0.32685,-0.11095 -0.49012,-0.50051 -0.36466,-0.8701l0.28269,-0.8328c0.01652,-0.04866 0.03336,-0.10138 0.05054,-0.15769c-0.13442,0.12608 -0.27819,0.23956 -0.43268,0.33867c-0.08469,0.1643 -0.1654,0.28361 -0.23458,0.32316c-0.01678,0.00959 -0.03367,0.01811 -0.05065,0.02561l0.02554,0.15773l-0.42181,0.11623c-0.00589,0.00852 -0.01182,0.01704 -0.01775,0.02555l0.17335,0.12899l-0.4847,0.74836c-0.16398,0.26492 -0.4672,0.39857 -0.74223,0.3052c-0.27504,-0.09337 -0.43425,-0.38398 -0.40308,-0.69398l0.06817,-0.85319c-0.00534,-0.18331 0.03997,-0.50572 0.10674,-0.89857c-0.03188,-0.14415 -0.05225,-0.39554 0.10915,-0.61426c0.0475,-0.26161 0.09752,-0.53601 0.14416,-0.80928c-0.39424,-0.27721 -0.82079,-0.59721 -1.12374,-0.97446l-0.04327,0.12746c-0.12545,0.3696 -0.49212,0.57927 -0.81899,0.46832c-0.26623,-0.09037 -0.42394,-0.36558 -0.40549,-0.66428l0.03122,-0.76915l0.02087,-0.00069l-0.01671,-0.05401c0.03993,-0.21407 0.08462,-0.42733 0.13265,-0.64004l-0.03231,-0.92147c-0.00537,-0.09602 0.00753,-0.19633 0.04109,-0.29521c0.12545,-0.3696 0.49212,-0.57927 0.81899,-0.46831c0.14158,0.04805 0.25247,0.14838 0.32249,0.27672l0.21979,0.39459c0.76577,-0.36638 1.79926,-0.33885 2.26784,0.40218c0.0374,0.05917 0.07033,0.12045 0.09911,0.18371c0.22536,0.09598 0.43988,0.1998 0.63344,0.30181c0.62077,-1.72651 1.23586,-3.59342 1.37789,-4.29097c0,0 0.14119,-0.69091 0.7592,-0.58667c0.61801,0.10424 0.47682,0.79513 0.47682,0.79513c-0.16357,0.79774 -0.38434,1.55945 -0.63461,2.30354c0.13051,-0.11243 0.3172,-0.18619 0.5709,-0.10007zM242.32451,227.05374c0.02265,-0.04043 0.04525,-0.08051 0.0678,-0.12021c-0.01421,-0.00975 -0.02834,-0.01942 -0.04242,-0.029c-0.00785,0.04946 -0.01632,0.0992 -0.02539,0.1492z" stroke="none" stroke-width="0.5"/></g><path d="M240.09646,220.7872l9.06444,-26.70348l5.87097,1.99289c0,0 1.43218,2.00297 0.47955,4.80937c-1.65784,4.88393 -9.54399,21.89412 -9.54399,21.89412z" stroke="none" stroke-width="0"/></g><g data-paper-data="{&quot;index&quot;:null}" fill-rule="evenodd"><path d="M270.58545,190.13322c1.58624,-1.86918 3.38262,-4.28227 3.92428,-7.49267c1.32834,-7.24537 -2.30759,-14.68043 1.98078,-15.35859c4.36726,-0.7396 12.33781,9.65704 5.1705,20.30926c-2.45333,3.68526 -5.45132,6.02021 -7.95851,7.84615c-0.63115,0.49158 -6.50501,4.17909 -10.48765,2.97138c-3.98264,-1.20771 -3.19445,-2.96235 -2.80907,-3.7695c0.40282,-0.94749 7.86593,-1.94348 10.17967,-4.50602z" fill="#ffab19" stroke="#001026" stroke-width="1.2" stroke-linecap="round" stroke-linejoin="round"/><path d="M276.14004,167.80842c1.94657,-0.75555 5.31625,1.94356 6.67792,5.31933c1.36167,3.37578 1.20539,5.77902 0.97856,7.60344c-0.27233,-0.67514 -1.30857,-2.65662 -3.44858,-2.63766c-2.70137,-0.05084 -5.06746,2.93272 -5.06746,2.93272c0,0 0.11079,-4.90283 -0.28594,-8.01612c-0.15095,-2.79772 -0.67816,-4.28836 1.14551,-5.20171z" fill="#ffffff" stroke="none" stroke-width="1" stroke-linecap="butt" stroke-linejoin="miter"/></g><g data-paper-data="{&quot;index&quot;:null}" fill-rule="evenodd"><path d="M256.44259,202.8045c0,0 -1.07736,0.72563 -2.84748,2.02969c-1.33093,0.0702 -2.64476,0.21769 -3.49915,0.10256c-2.6522,-0.35737 -5.89667,-2.67261 -7.2908,-3.27095l0.3008,-0.25594c-1.13715,-0.97821 -2.2342,-2.55507 -3.67686,-4.95688c-1.17009,-1.98265 -2.31961,-5.76796 -2.31961,-5.76796c-0.73087,-2.55457 -1.00866,-7.38394 2.27728,-7.06356c2.1884,0.24684 4.20398,0.08121 7.6298,-0.19039c6.0668,-0.79622 7.2178,-1.5209 9.43814,2.73704c2.37309,4.96975 9.02371,8.92318 -0.01211,16.6364z" fill="#ffab19" stroke="#001026" stroke-width="1.2" stroke-linecap="round" stroke-linejoin="round"/><path d="M239.16372,194.43072c0,0 -1.72863,-2.62141 2.74223,-5.02793c4.6838,-2.5927 6.16609,0.71378 7.80163,3.22874c1.47837,2.66754 3.20734,7.56575 1.9742,10.31771c-0.25852,0.57692 -2.28177,1.59772 -2.64847,1.8858c-1.69669,1.38969 -5.02264,-3.4648 -5.02264,-3.4648c0,0 -2.95267,-2.30253 -4.84695,-6.93953z" fill="#ffffff" stroke="none" stroke-width="1" stroke-linecap="butt" stroke-linejoin="miter"/></g><g data-paper-data="{&quot;index&quot;:null}" fill="#ffab19" fill-rule="nonzero" stroke-linecap="butt" stroke-linejoin="miter"><g><path d="M288.22036,206.79272c0,0 -21.55607,-3.67962 -26.58355,-5.10353c-2.19316,-0.62117 -2.96967,-3.26678 -2.96967,-3.26678l-2.45408,-6.92082l33.64685,5.83216z" stroke="#000000" stroke-width="1.25"/><path d="M287.78684,212.60404c-2.52281,-0.43729 -3.97152,-4.23264 -3.2358,-8.47718c0.73572,-4.24453 3.37727,-7.33092 5.90009,-6.89362c2.52281,0.4373 3.97153,4.23265 3.23581,8.47719c-0.73573,4.24452 -3.37728,7.3309 -5.90009,6.8936z" stroke="#000000" stroke-width="1.25"/><path d="M281.85743,198.31474c0.10674,-0.61582 0.80307,-0.49512 0.80307,-0.49512l0.05218,0.03345c0.92722,-0.07032 4.1879,-0.46259 5.8164,-0.07615c0.37217,0.02151 0.7296,0.06088 1.06307,0.11869l0.04753,0.03867l0.00841,-0.0225l0.71277,0.2346c0.32801,0.10226 0.54116,0.4028 0.48757,0.7119c-0.04972,0.28687 -0.31332,0.48951 -0.62539,0.50589c0.00813,0.05702 0.00762,0.11567 -0.00261,0.17463c-0.05895,0.34012 -0.41851,0.56178 -0.80308,0.49513l-0.86654,-0.1502c-0.05065,-0.00877 -0.10533,-0.01725 -0.16363,-0.02549c0.14541,0.11327 0.27979,0.2377 0.40164,0.37496c0.17544,0.0582 0.30581,0.11947 0.35561,0.18167c0.01208,0.01511 0.02311,0.03045 0.03314,0.04607l0.15185,-0.04968l0.1802,0.3987c0.00935,0.00451 0.01868,0.00902 0.02801,0.01357l0.10057,-0.19124l0.81444,0.36287c0.28712,0.12094 0.46616,0.39979 0.41656,0.68596c-0.04961,0.28618 -0.31206,0.48851 -0.62314,0.50576l-0.85344,0.06488c-0.18026,0.03368 -0.50581,0.03891 -0.90424,0.03382c-0.13748,0.05384 -0.38266,0.11293 -0.62376,-0.01263c-0.26581,-0.00637 -0.54465,-0.01326 -0.82185,-0.01699c-0.21275,0.43245 -0.46279,0.90342 -0.78853,1.26119l0.13263,0.02299c0.38458,0.06665 0.64856,0.39641 0.5896,0.73651c-0.04802,0.27701 -0.29546,0.47546 -0.59341,0.50353l-0.7647,0.08837l-0.00392,-0.02051l-0.05076,0.02487c-0.21767,-0.00627 -0.4353,-0.01737 -0.65287,-0.03186l-0.90533,0.17472c-0.09403,0.02018 -0.19511,0.023 -0.29801,0.00515c-0.38457,-0.06665 -0.64855,-0.3964 -0.58959,-0.73651c0.02554,-0.1473 0.10747,-0.2724 0.2234,-0.36147l0.35575,-0.27828c-0.48064,-0.69971 -0.61362,-1.725 0.04584,-2.30276c0.05266,-0.04612 0.1081,-0.08816 0.16613,-0.12638c0.0599,-0.23751 0.12921,-0.46552 0.19999,-0.67257c-1.80184,-0.34568 -3.74154,-0.66401 -4.45267,-0.6962c0,0 -0.70444,-0.0324 -0.69724,-0.65909c0.00719,-0.62669 0.71162,-0.5943 0.71162,-0.5943c0.81345,0.03796 1.60017,0.138 2.37406,0.26992c-0.13127,-0.11151 -0.2331,-0.28453 -0.18733,-0.5485zM285.58565,200.86924c-0.04344,-0.01609 -0.08654,-0.03222 -0.12925,-0.04834c-0.00744,0.01554 -0.01481,0.031 -0.02208,0.04639c0.05007,0.00008 0.10053,0.00074 0.15134,0.00196z" stroke="none" stroke-width="0.5"/></g><path d="M279.74022,204.04159l-27.78569,-4.81621l1.05887,-6.10891c0,0 1.7568,-1.72531 4.67693,-1.21916c5.08184,0.88085 23.10873,6.03536 23.10873,6.03536z" stroke="none" stroke-width="0"/></g><path d="M239.79556,189.39858c6.24274,-7.17905 13.0493,-10.92773 15.20288,-8.37293c2.15358,2.55481 -1.16134,10.44565 -7.40409,17.6247c-6.24274,7.17903 -13.04931,10.92772 -15.20289,8.37291c-1.0675,-1.26638 -3.7849,-3.59788 -2.47456,-6.74986c1.33315,-3.20684 6.73036,-7.25436 9.87865,-10.87484z" data-paper-data="{&quot;index&quot;:null}" fill="#ffab19" fill-rule="nonzero" stroke="#001026" stroke-width="1.2" stroke-linecap="butt" stroke-linejoin="miter"/><path d="M193.49937,153.48663l-0.25636,-0.82343c-1.33066,-3.64065 1.86051,-4.55683 4.85367,-5.47563c0,0 1.19534,-0.36558 1.56094,0.82976c0.36559,1.19535 -0.82976,1.56094 -0.82976,1.56094c-0.92619,0.28215 -4.35099,0.95912 -3.33889,1.98692l0.38679,1.14504c0,0 0.3882,1.18819 -0.79999,1.5764c-1.1882,0.3882 -1.57639,-0.79999 -1.57639,-0.79999z" data-paper-data="{&quot;index&quot;:null}" fill="#000000" fill-rule="nonzero" stroke="none" stroke-width="0.5" stroke-linecap="butt" stroke-linejoin="miter"/><path d="M182.54327,159.87892c-0.96761,0.79134 -1.75895,-0.17628 -1.75895,-0.17628l-0.01513,-0.10342c-1.04416,-0.70066 -3.50606,-1.81718 -3.94249,-3.04986c-1.55831,-4.4014 4.79899,-4.77265 7.41792,-4.78268c0,0 1.24998,-0.0032 1.25319,1.2468c0.0032,1.24999 -1.2468,1.25319 -1.2468,1.25319c-1.72215,0.00202 -2.94358,0.06889 -4.53868,0.71505c-0.25349,0.10268 -0.78136,0.36282 -0.59598,0.5639c0.72779,0.78942 2.15742,1.38172 3.04566,1.97754l0.55752,0.5968c0,0 0.79134,0.96761 -0.17628,1.75895z" data-paper-data="{&quot;index&quot;:null}" fill="#000000" fill-rule="nonzero" stroke="none" stroke-width="0.5" stroke-linecap="butt" stroke-linejoin="miter"/><path d="M194.6022,171.31834c-1.22764,0.23534 -1.46298,-0.99231 -1.46298,-0.99231l-0.02769,-0.31894c-1.72484,-3.87348 -1.0631,-5.17218 2.60443,-7.11957c0,0 1.10406,-0.58613 1.69019,0.51793c0.58613,1.10406 -0.51793,1.69019 -0.51793,1.69019c-0.79643,0.42273 -1.7493,0.60262 -2.42371,1.20111c-0.45032,0.39963 0.78087,2.35704 0.93059,2.69282l0.19942,0.86579c0,0 0.23535,1.22764 -0.9923,1.46298z" data-paper-data="{&quot;index&quot;:null}" fill="#000000" fill-rule="nonzero" stroke="none" stroke-width="0.5" stroke-linecap="butt" stroke-linejoin="miter"/><path d="M215.92359,143.10987c1.87536,-1.39032 3.92991,-2.64684 6.52148,-3.72562c4.2892,-1.93206 9.07333,-2.43408 9.07333,-2.43408l7.26327,-12.4926c0.26757,-0.35833 0.84904,-0.31482 0.93934,0.08748l6.16252,16.93645c-0.89537,-0.44532 15.21936,6.67615 13.99534,20.05046c-1.22403,13.37429 -12.42523,24.71243 -30.88437,29.84956c-18.45915,5.13714 -27.24072,-2.53645 -28.72839,-8.16822c-1.48768,-5.63177 3.91295,-10.69666 3.91295,-10.69666c0,0 -1.93158,-4.06558 -1.54247,-10.41685c0.21559,-3.80177 3.82313,-10.87537 3.82313,-10.87537l-2.48228,-10.72793c-0.09029,-0.4023 0.31153,-0.71619 0.6694,-0.67223z" fill="#ffab19" fill-rule="evenodd" stroke="#001026" stroke-width="1.2" stroke-linecap="butt" stroke-linejoin="miter"/><path d="M204.62678,172.73932c6.74131,-5.51495 10.28542,-0.24528 16.94304,-3.03204c7.77471,-3.23632 13.96298,-16.53163 24.75466,-9.98032c10.74676,6.46197 6.9387,24.49275 -16.92908,30.89348c-18.23553,5.13665 -27.14994,-1.91055 -28.63761,-7.54232c-1.48767,-5.63177 3.86899,-10.33881 3.86899,-10.33881z" fill="#ffffff" fill-rule="evenodd" stroke="none" stroke-width="1" stroke-linecap="butt" stroke-linejoin="miter"/><path d="M226.20869,172.61938c7.22382,-5.62374 12.32896,-1.66044 15.52815,2.06314c0.27872,0.2869 0.20085,0.7808 -0.15573,0.9878c-1.85056,0.82187 -6.83862,3.43705 -11.42086,7.33102c-4.08221,3.54761 -6.16838,5.99259 -7.03521,7.25299c-0.28895,0.42012 -0.92424,0.34023 -1.1292,-0.15777c-1.23587,-2.56372 -3.7364,-10.591 4.21284,-17.47718z" data-paper-data="{&quot;index&quot;:null}" fill="#ffffff" fill-rule="evenodd" stroke="#001026" stroke-width="1.2" stroke-linecap="round" stroke-linejoin="round"/><path d="M201.0646,180.12584c0,0 -6.47799,3.14414 -12.38393,1.85966" fill="none" fill-rule="evenodd" stroke="#001026" stroke-width="1.2" stroke-linecap="round" stroke-linejoin="round"/><path d="M203.35689,185.57704c0,0 -2.63131,3.4491 -8.48479,5.83167" fill="none" fill-rule="evenodd" stroke="#001026" stroke-width="1.2" stroke-linecap="round" stroke-linejoin="round"/><path d="M220.75955,167.20457c1.78697,-0.89819 4.24428,-2.0214 4.69385,-0.90431c0.71856,1.42957 -1.91133,5.54949 -3.60942,6.17917c-1.47448,0.62921 -4.07218,-1.1989 -4.61157,-2.49468c-0.22502,-0.67035 1.65082,-1.83706 3.52714,-2.78016z" fill="#001026" fill-rule="evenodd" stroke="#001026" stroke-width="1.2" stroke-linecap="round" stroke-linejoin="round"/><path d="M252.13116,156.36059c1.73498,-4.34163 8.16147,-10.70562 8.16147,-10.70562" fill="none" fill-rule="evenodd" stroke="#001026" stroke-width="1.2" stroke-linecap="round" stroke-linejoin="round"/><path d="M264.15817,154.90419c0,0 -6.11776,4.30615 -10.72321,4.71834" fill="none" fill-rule="evenodd" stroke="#001026" stroke-width="1.2" stroke-linecap="round" stroke-linejoin="round"/><path d="M205.07885,162.05019c0.56468,-5.32306 3.7452,-9.39947 7.06804,-8.95933c3.27835,0.3508 5.45826,4.95247 4.89356,10.27552c-0.65318,5.36796 -3.78969,9.31012 -7.06804,8.95933c-3.27835,-0.3508 -5.45826,-4.95248 -4.89356,-10.27553z" fill="#ffffff" fill-rule="evenodd" stroke="#001026" stroke-width="1.2" stroke-linecap="round" stroke-linejoin="round"/><path d="M213.22362,161.28746c-0.494,-0.98282 -0.18341,-2.14624 0.71008,-2.59534c0.89348,-0.4491 2.01245,-0.00424 2.50646,0.97859c0.494,0.98282 0.18341,2.14624 -0.71007,2.59534c-0.89348,0.44909 -2.01245,0.00423 -2.50646,-0.9786" fill="#001026" fill-rule="evenodd" stroke="none" stroke-width="1" stroke-linecap="butt" stroke-linejoin="miter"/><path d="M236.00654,144.5434c3.7578,0.57345 6.13897,5.75613 5.34519,11.07966c-0.70442,5.27863 -4.00701,8.50552 -7.80879,8.28992c-3.26569,-0.48506 -5.86951,-5.22004 -5.16509,-10.49866c0.70442,-5.27862 3.82596,-9.53373 7.62868,-8.87092z" fill="#ffffff" fill-rule="evenodd" stroke="#001026" stroke-width="1.2" stroke-linecap="round" stroke-linejoin="round"/><path d="M236.29836,151.00495c-0.494,-0.98282 -0.1385,-2.05689 0.71008,-2.59534c0.89348,-0.44909 2.01246,-0.00424 2.50646,0.97859c0.494,0.98283 0.18341,2.14625 -0.71008,2.59534c-0.89348,0.4491 -2.01246,0.00424 -2.50646,-0.97859" fill="#001026" fill-rule="evenodd" stroke="none" stroke-width="1" stroke-linecap="butt" stroke-linejoin="miter"/></g></g></g></svg>