<svg version="1.1" xmlns="http://www.w3.org/2000/svg" xmlns:xlink="http://www.w3.org/1999/xlink" width="340.32415" height="323.37311" viewBox="0,0,340.32415,323.37311"><g transform="translate(-67.63658,-117.08046)"><g data-paper-data="{&quot;isPaintingLayer&quot;:true}" fill-rule="nonzero" stroke-linejoin="miter" stroke-miterlimit="10" stroke-dasharray="" stroke-dashoffset="0" style="mix-blend-mode: normal"><path d="M67.63658,432.82233l123.00755,-256.58072h98.78125c0,0 118.53535,220.59124 118.53535,254.25484c0,8.60661 -118.53535,9.95713 -118.53535,9.95713z" fill="#613700" stroke="none" stroke-width="0" stroke-linecap="butt"/><path d="M292.98798,150.66941c9.99424,27.91374 -10.56666,60.80473 -45.92406,73.4641c-35.3574,12.65937 -72.12216,0.29326 -82.1164,-27.62047c-9.99424,-27.91374 10.56666,-60.80474 45.92406,-73.46411c35.3574,-12.65937 72.12217,-0.29326 82.1164,27.62048z" fill="#f1f1f1" stroke="#bfbfbf" stroke-width="2" stroke-linecap="butt"/><path d="M270.00873,239.91953l-23.84437,-66.5969l47.56921,-17.03169l23.84437,66.5969z" fill="#f1f1f1" stroke="#c8c8c8" stroke-width="2" stroke-linecap="butt"/><path d="M249.16333,216.67343l-14.2877,-39.90528l57.08306,-20.43803l14.2877,39.90528z" fill="#f1f1f1" stroke="#f1f1f1" stroke-width="2" stroke-linecap="butt"/><path d="M271.72451,213.0679l7.58923,22.02931" fill="none" stroke="#bfbfbf" stroke-width="2" stroke-linecap="round"/><path d="M280.01162,210.39894l7.58922,22.02931" fill="none" stroke="#bfbfbf" stroke-width="2" stroke-linecap="round"/><path d="M296.5111,229.83432l-7.58922,-22.02931" fill="none" stroke="#bfbfbf" stroke-width="2" stroke-linecap="round"/><path d="M304.89282,227.42963l-7.58922,-22.02931" fill="none" stroke="#bfbfbf" stroke-width="2" stroke-linecap="round"/><path d="M303.74078,203.3937l7.58922,22.02931" fill="none" stroke="#bfbfbf" stroke-width="2" stroke-linecap="round"/><path d="M260.4987,165.05977c3.57963,9.99786 -2.09664,21.17405 -12.67831,24.96272c-10.58167,3.78867 -22.06169,-1.24488 -25.64132,-11.24274c-3.57963,-9.99786 2.09664,-21.17405 12.67831,-24.96272c10.58167,-3.78867 22.06169,1.24488 25.64132,11.24274z" fill="#000000" stroke="#bfbfbf" stroke-width="2" stroke-linecap="butt"/><path d="M288.03013,197.41773c-2.11327,-4.95277 3.53176,-12.1074 3.53176,-12.1074c0,0 5.17068,2.61749 7.28395,7.57026c2.11327,4.95277 -3.44019,10.55514 -4.11496,10.62c-3.59155,0.34524 -4.92171,-1.91343 -6.70074,-6.08286z" data-paper-data="{&quot;index&quot;:null}" fill="#a0a0a0" stroke="#a0a0a0" stroke-width="2" stroke-linecap="butt"/><path d="M307.343,197.03237c-3.30852,2.92829 -8.63779,2.50594 -12.20664,-1.52632c-3.56884,-4.03226 -3.71729,-9.8258 -3.71729,-9.8258c0,0 8.88374,-2.03332 12.45258,1.99894c3.56884,4.03226 6.77987,6.4249 3.47135,9.35319z" data-paper-data="{&quot;index&quot;:null}" fill="#a0a0a0" stroke="#a0a0a0" stroke-width="2" stroke-linecap="butt"/></g></g></svg>