<svg version="1.1" xmlns="http://www.w3.org/2000/svg" xmlns:xlink="http://www.w3.org/1999/xlink" width="488.23342" height="162.42808" viewBox="0,0,488.23342,162.42808"><g transform="translate(3.65069,-251.86814)"><g data-paper-data="{&quot;isPaintingLayer&quot;:true}" fill-rule="nonzero" stroke-linejoin="miter" stroke-miterlimit="10" stroke-dasharray="" stroke-dashoffset="0" style="mix-blend-mode: normal"><path d="M-3.65069,414.29622v-153.50928h488.23342v153.50928z" fill="#613700" stroke="none" stroke-width="0" stroke-linecap="butt"/><g stroke-width="2.5" stroke-linecap="butt"><path d="M409.82982,280.58457c0,9.65829 -10.67184,17.48788 -23.83621,17.48788c-13.16438,0 -23.83621,-7.82959 -23.83621,-17.48788c0,-9.65829 10.67184,-17.48788 23.83621,-17.48788c13.16438,0 23.83621,7.82959 23.83621,17.48788z" data-paper-data="{&quot;index&quot;:null}" fill="#ff8700" stroke="#d36e00"/><path d="M404.24665,280.00336c0,9.03285 -8.34718,16.35543 -18.64395,16.35543c-10.29677,0 -18.64396,-7.32257 -18.64396,-16.35543c0,-9.03285 8.34718,-16.35543 18.64396,-16.35543c10.29677,0 18.64395,7.32257 18.64395,16.35543z" fill="#ff8700" stroke="#d36e00"/><path d="M381.29666,265.46486v-12.34672h9.26187v12.34672z" fill="#5d3500" stroke="#512a00"/><path d="M399.39515,280.58457c0,9.03285 -6.00008,16.35543 -13.40156,16.35543c-7.40148,0 -13.40156,-7.32257 -13.40156,-16.35543c0,-9.03285 6.00008,-16.35543 13.40156,-16.35543c7.40148,0 13.40156,7.32257 13.40156,16.35543z" fill="#ff8700" stroke="#d36e00"/><path d="M372.17076,284.82291c-0.00945,-0.1387 0.00799,-0.2954 0.06311,-0.47184c0.33868,-1.08399 1.42267,-0.74531 1.42267,-0.74531c1.96766,0.61555 3.98095,1.05404 5.93692,1.71119c0.97393,0.32721 2.1765,0.99061 3.18836,1.14637c0.57089,0.08788 0.90922,-0.43568 1.26287,-0.75079c0.73348,-0.65355 2.02816,-2.38579 2.91429,-2.6699c2.06963,-0.66357 4.46496,1.74805 6.11841,2.73979c0.90861,0.44877 1.64682,-0.35892 2.51784,-0.86854c1.04806,-0.6132 2.09391,-1.30761 3.18345,-1.84331c0.63159,-0.31054 1.30622,-1.14317 1.93914,-0.83535c0.75147,0.36548 0.95615,1.45081 1.03654,2.28257c0.05806,0.60074 -0.4211,1.13154 -0.65273,1.68886c-0.56559,1.36087 -1.27095,2.62164 -2.0328,3.87982c-0.79583,1.3143 -2.31702,3.42066 -3.85334,3.94897c-1.6771,0.57672 -4.58887,-0.53123 -6.17007,-1.17516c-1.84802,0.6504 -3.46722,1.96241 -5.25612,2.78674c-0.5063,0.23331 -0.98832,0.61944 -1.54544,0.63921c-1.80411,0.06404 -2.85087,-1.32725 -3.8042,-2.53596c-1.89484,-2.40243 -4.33351,-4.03343 -6.06373,-6.60215l-0.44611,-1.1281c0,0 -0.26368,-0.72486 0.24095,-1.19713z" fill="#000000" stroke="#d36e00"/><path d="M396.23746,269.90831c1.42139,1.33621 3.86644,9.6102 3.86644,9.6102l-9.23836,0.17461c0,0 4.89193,-10.23604 5.37193,-9.78481z" fill="#000000" stroke="#d36e00"/><path d="M381.03952,278.75854l-9.19579,-0.90296c0,0 3.09023,-8.05528 4.61261,-9.27518c0.5141,-0.41196 4.58318,10.17814 4.58318,10.17814z" data-paper-data="{&quot;index&quot;:null}" fill="#000000" stroke="#d36e00"/></g><path d="M82.99189,300.26248l207.27035,0.26517" fill="none" stroke="#512e00" stroke-width="5" stroke-linecap="round"/><path d="M31.83721,325.43806l161.15057,-1.59058" fill="none" stroke="#512e00" stroke-width="5" stroke-linecap="round"/></g></g></svg>