<svg version="1.1" xmlns="http://www.w3.org/2000/svg" xmlns:xlink="http://www.w3.org/1999/xlink" width="230.17242" height="320.50221" viewBox="0,0,230.17242,320.50221"><g transform="translate(-106.04906,-76.45745)"><g data-paper-data="{&quot;isPaintingLayer&quot;:true}" fill-rule="nonzero" stroke-linecap="butt" stroke-linejoin="miter" stroke-miterlimit="10" stroke-dasharray="" stroke-dashoffset="0" style="mix-blend-mode: normal"><path d="M255.73155,239.61496l30.7863,-58.9445l29.25065,15.27741l-30.7863,58.9445z" data-paper-data="{&quot;index&quot;:null}" fill="#000000" stroke="none" stroke-width="0"/><path d="M164.01782,256.39238l-30.7863,-58.9445l29.25065,-15.27741l30.7863,58.9445z" fill="#000000" stroke="none" stroke-width="0"/><g stroke-width="2.5"><path d="M207.87505,136.67252v-58.96507h44.23254v58.96507z" fill="#5d3500" stroke="#512a00"/><path d="M295.74406,152.4965c0,9.25077 -31.96012,7.41667 -62.75,7.41667c-19.80689,0 -46.70129,-0.60337 -56.59048,-5.28001c-5.48359,-2.59321 -3.55159,-8.88215 0.84049,-11.46999c1.06078,-0.62502 2.07944,-1.22726 3.05856,-1.80754c29.99904,-17.7792 22.87473,-14.94246 52.69144,-14.94246c15.88452,0 36.71742,8.99595 46.87196,12.19863c9.52858,3.00526 15.87804,9.40641 15.87804,13.8847z" fill="#ff8700" stroke="#d36e00"/></g><g stroke="#d36e00" stroke-width="2.5"><path d="M334.97148,312.1916c0,46.12575 -50.96623,83.51806 -113.83621,83.51806c-62.87003,0 -113.83621,-37.39231 -113.83621,-83.51806c0,-24.95266 8.45195,-55.8859 35.56148,-72.91756c27.10952,-17.03167 49.41555,1.39951 78.27473,1.39951c30.44162,0 66.0924,-7.04681 86.51798,4.33072c21.75866,12.12008 27.31823,43.39564 27.31823,67.18734z" data-paper-data="{&quot;index&quot;:null}" fill="#ff8700"/><path d="M308.30762,309.4158c0,43.1388 -39.8642,78.10974 -89.03918,78.10974c-49.17499,0 -89.03923,-34.9709 -89.03923,-78.10974c0,-43.1388 39.8642,-78.10974 89.03923,-78.10974c49.17499,0 89.03918,34.9709 89.03918,78.10974z" fill="#ff8700"/><path d="M285.13804,312.1916c0,43.1388 -28.65499,78.10974 -64.00274,78.10974c-35.34775,0 -64.00274,-34.9709 -64.00274,-78.10974c0,-32.22677 15.99182,-59.89522 38.8191,-71.83075c7.72934,-4.04138 51.37482,-0.71355 60.53362,6.70576c17.26868,13.98892 28.65277,37.93447 28.65277,65.12499z" fill="#ff8700"/><path d="M155.1207,332.43291c-0.04513,-0.6624 0.03816,-1.41076 0.3014,-2.2534c1.61746,-5.17688 6.79434,-3.55943 6.79434,-3.55943c9.39709,2.93972 19.01209,5.03385 28.35335,8.17225c4.65126,1.56268 10.39446,4.73092 15.22687,5.4748c2.72644,0.41969 4.34222,-2.08071 6.03117,-3.5856c3.50293,-3.1212 9.68602,-11.39398 13.91797,-12.75082c9.88407,-3.16906 21.32361,8.34828 29.22011,13.0846c4.33931,2.14322 7.86483,-1.71412 12.02462,-4.14795c5.00529,-2.9285 10.00003,-6.24484 15.20342,-8.80322c3.01633,-1.48307 6.2382,-5.45951 9.26088,-3.98944c3.58885,1.74545 4.56635,6.92873 4.95027,10.90102c0.27728,2.86899 -2.01108,5.40397 -3.11729,8.0656c-2.70113,6.4992 -6.06976,12.52034 -9.70818,18.52912c-3.8007,6.27679 -11.06555,16.33628 -18.40266,18.85936c-8.00944,2.75428 -21.91538,-2.53703 -29.46682,-5.61229c-8.82571,3.10616 -16.55864,9.37201 -25.10201,13.30882c-2.41797,1.11423 -4.71999,2.9583 -7.38066,3.05272c-8.61601,0.30584 -13.61509,-6.33864 -18.16798,-12.11116c-9.04932,-11.47345 -20.69584,-19.26273 -28.95897,-31.53034l-2.13052,-5.38754c0,0 -1.25927,-3.46176 1.15072,-5.71722z" fill="#000000"/><path d="M270.05753,261.20421c6.78823,6.38143 18.46522,45.89609 18.46522,45.89609l-44.12026,0.8339c0,0 23.36272,-48.88495 25.65509,-46.72998z" fill="#000000"/><path d="M197.47573,303.47087l-43.91696,-4.31233c0,0 14.75822,-38.47015 22.02876,-44.29611c2.45522,-1.96743 21.8882,48.60844 21.8882,48.60844z" data-paper-data="{&quot;index&quot;:null}" fill="#000000"/></g><path d="M277.15101,197.2293c0,23.61018 -23.05733,42.75 -51.5,42.75c-28.44267,0 -51.5,-19.13983 -51.5,-42.75c0,-23.61017 23.05733,-42.75 51.5,-42.75c28.44267,0 51.5,19.13983 51.5,42.75z" fill="#000000" stroke="none" stroke-width="2.5"/><path d="M255.45804,203.37334l-19.52815,-39.98627l51.27185,-29.90835c0,0 -4.8447,29.62345 -6.5939,49.31226c-0.13297,1.49677 -13.99896,25.27365 -13.03317,27.25122c0.85946,1.75985 -12.11665,-6.66886 -12.11665,-6.66886z" fill="#000000" stroke="none" stroke-width="0"/><path d="M178.70297,208.58185c1.20097,-1.84424 -9.64524,-27.14175 -9.59371,-28.64355c0.67794,-19.75474 -0.49821,-49.74868 -0.49821,-49.74868l47.21812,35.96889l-24.28334,37.29034c0,0 -13.91161,6.77418 -12.84287,5.13298z" data-paper-data="{&quot;index&quot;:null}" fill="#000000" stroke="none" stroke-width="0"/><path d="M239.12505,195.6043c0,2.69239 -4.19733,4.875 -9.375,4.875c-5.17767,0 -9.375,-2.18261 -9.375,-4.875c0,-2.69239 4.19733,-4.875 9.375,-4.875c5.17767,0 9.375,2.18261 9.375,4.875z" fill="#282828" stroke="none" stroke-width="0"/><path d="M221.12505,180.7293c0,8.1462 -6.32398,14.75 -14.125,14.75c-7.80102,0 -14.125,-6.6038 -14.125,-14.75c0,-8.1462 6.32398,-14.75 14.125,-14.75c7.80102,0 14.125,6.6038 14.125,14.75z" fill="#ffffff" stroke="none" stroke-width="0"/><path d="M269.12505,180.4793c0,8.1462 -6.32398,14.75 -14.125,14.75c-7.80102,0 -14.125,-6.6038 -14.125,-14.75c0,-8.1462 6.32398,-14.75 14.125,-14.75c7.80102,0 14.125,6.6038 14.125,14.75z" fill="#ffffff" stroke="none" stroke-width="0"/><path d="M215.70839,183.52096c0,6.28224 -5.26065,11.375 -11.75,11.375c-6.48935,0 -11.75,-5.09276 -11.75,-11.375c0,-6.28224 5.26065,-11.375 11.75,-11.375c6.48935,0 11.75,5.09276 11.75,11.375z" fill="#181818" stroke="none" stroke-width="0"/><path d="M263.87505,183.02096c0,6.28224 -5.26065,11.375 -11.75,11.375c-6.48935,0 -11.75,-5.09276 -11.75,-11.375c0,-6.28224 5.26065,-11.375 11.75,-11.375c6.48935,0 11.75,5.09276 11.75,11.375z" fill="#181818" stroke="none" stroke-width="0"/><path d="M209.45839,179.1043c0,1.86396 -2.63033,3.375 -5.875,3.375c-3.24467,0 -5.875,-1.51104 -5.875,-3.375c0,-1.86396 2.63033,-3.375 5.875,-3.375c3.24467,0 5.875,1.51104 5.875,3.375z" fill="#ffffff" stroke="none" stroke-width="0"/><path d="M256.95838,178.64596c0,1.79493 -2.68629,3.25 -6,3.25c-3.31371,0 -6,-1.45507 -6,-3.25c0,-1.79493 2.68629,-3.25 6,-3.25c3.31371,0 6,1.45507 6,3.25z" fill="#ffffff" stroke="none" stroke-width="0"/><path d="M171.66672,183.35484c0,12.84062 -11.41674,23.25 -25.5,23.25c-14.08326,0 -25.5,-10.40938 -25.5,-23.25c0,-12.84062 11.41674,-23.25 25.5,-23.25c14.08326,0 25.5,10.40938 25.5,23.25z" fill="#000000" stroke="none" stroke-width="0"/><path d="M333.66668,184.18819c0,13.66905 -11.41674,24.75 -25.5,24.75c-14.08326,0 -25.5,-11.08095 -25.5,-24.75c0,-13.66905 11.41674,-24.75 25.5,-24.75c14.08326,0 25.5,11.08095 25.5,24.75z" fill="#000000" stroke="none" stroke-width="0"/><path d="M240.22649,217.90641c0,6.83452 -4.25329,12.375 -9.5,12.375c-5.24671,0 -9.5,-5.54048 -9.5,-12.375c0,-6.83452 4.25329,-12.375 9.5,-12.375c5.24671,0 9.5,5.54048 9.5,12.375z" fill="#282828" stroke="none" stroke-width="0"/></g></g></svg>