<svg version="1.1" xmlns="http://www.w3.org/2000/svg" xmlns:xlink="http://www.w3.org/1999/xlink" width="92.44073" height="112.40495" viewBox="0,0,92.44073,112.40495"><g transform="translate(-193.766,-123.27651)"><g data-paper-data="{&quot;isPaintingLayer&quot;:true}" stroke-miterlimit="10" stroke-dasharray="" stroke-dashoffset="0" style="mix-blend-mode: normal"><path d="M251.39022,199.20142c-7.93777,-2.89717 -13.49763,-7.64308 -12.41828,-10.6003c1.07934,-2.95721 8.38915,-3.00587 16.32691,-0.1087c7.93777,2.89717 13.49763,7.64308 12.41828,10.6003c-0.535,1.46584 -1.21995,4.85012 -4.13434,4.88213c-2.96511,0.03257 -8.18945,-3.31235 -12.19255,-4.77343z" data-paper-data="{&quot;index&quot;:null}" fill="#ffab19" fill-rule="nonzero" stroke="#001026" stroke-width="1.2" stroke-linecap="butt" stroke-linejoin="miter"/><g fill="#ffab19" fill-rule="nonzero" stroke-linecap="butt" stroke-linejoin="miter"><g><path d="M258.33773,227.65221l-26.83706,-21.11627l6.78674,-2.80358c0,0 2.48631,-1.19188 4.41477,0.02334c4.42076,2.7857 21.57183,16.35196 21.57183,16.35196z" stroke="#000000" stroke-width="1.25"/><path d="M268.30486,215.89909c2.01221,1.58328 1.48401,5.61126 -1.17979,8.99673c-2.6638,3.38548 -6.45447,4.84645 -8.4667,3.26317c-2.01221,-1.58328 -1.484,-5.61125 1.17981,-8.99673c2.6638,-3.38548 6.45447,-4.84645 8.46669,-3.26317z" stroke="#000000" stroke-width="1.25"/><path d="M253.71558,221.04633c0.16567,-0.21056 0.36238,-0.25055 0.53309,-0.22751c-0.61561,-0.48716 -1.2161,-1.00518 -1.78831,-1.5846c0,0 -0.49516,-0.50208 -0.03403,-0.92652c0.46113,-0.42445 0.95631,0.07765 0.95631,0.07765c0.4995,0.50719 2.03331,1.73648 3.49529,2.84499c0.10661,-0.19107 0.22978,-0.39511 0.36632,-0.59846c-0.01038,-0.06871 -0.0162,-0.13804 -0.01713,-0.20803c-0.01143,-0.87668 0.83979,-1.46344 1.68146,-1.57403l-0.031,-0.45061c-0.01131,-0.14576 0.02691,-0.29033 0.11937,-0.40783c0.21345,-0.27128 0.63514,-0.29553 0.94188,-0.05417c0.08206,0.06456 0.14759,0.1416 0.19546,0.22502l0.47551,0.78997c0.15627,0.15208 0.31005,0.30646 0.46027,0.4641l0.01546,0.05438l0.01786,-0.01081l0.44568,0.62765c0.17838,0.2403 0.1963,0.55698 0.02245,0.77794c-0.21345,0.27128 -0.63514,0.29553 -0.94188,0.05417l-0.10578,-0.08323c-0.04816,0.48143 -0.23114,0.9823 -0.41038,1.42967c0.18814,0.2036 0.37973,0.40632 0.56222,0.59968c0.25458,0.09529 0.37462,0.3171 0.42652,0.45531c0.27023,0.29285 0.48406,0.53838 0.57956,0.69493l0.52249,0.67793c0.1952,0.24283 0.22028,0.57325 0.04067,0.80151c-0.17961,0.22827 -0.50664,0.28163 -0.78858,0.14902l-0.81443,-0.36288l0.07494,-0.20266c-0.00961,-0.0039 -0.01923,-0.0078 -0.02882,-0.01174l-0.41694,0.13265l-0.06462,-0.14613c-0.01832,0.00298 -0.03712,0.00504 -0.05642,0.00616c-0.07956,0.00458 -0.21229,-0.0514 -0.37288,-0.14292c-0.18354,0.00119 -0.36593,-0.0155 -0.54737,-0.04786c0.04511,0.03783 0.08798,0.07282 0.12837,0.1046l0.69117,0.54383c0.30674,0.24136 0.38237,0.65691 0.16893,0.92818c-0.037,0.04703 -0.08026,0.08664 -0.1281,0.11873c0.19651,0.24299 0.22215,0.57449 0.04211,0.80329c-0.19399,0.24654 -0.55998,0.28904 -0.85537,0.11356l-0.65109,-0.37306l0.0111,-0.02132l-0.06055,-0.00949c-0.26599,-0.2093 -0.53427,-0.44871 -0.79915,-0.71102c-1.37635,-0.95237 -3.26523,-3.639 -3.833,-4.37542l-0.05977,-0.01642c0,0 -0.5554,-0.43701 -0.16893,-0.92818zM258.10805,222.10999c-0.03487,-0.03696 -0.06911,-0.07403 -0.10266,-0.11121c-0.00657,0.01572 -0.01314,0.03153 -0.01974,0.04745c0.04055,0.02097 0.08136,0.04224 0.12239,0.06377z" stroke="none" stroke-width="0.5"/></g><path d="M252.72374,220.51493c0,0 -15.88761,-9.956 -19.94095,-13.1453c-2.32913,-1.83263 -2.22119,-4.29258 -2.22119,-4.29258l3.83385,-4.87253l22.16214,17.43788z" stroke="none" stroke-width="0"/></g><g fill-rule="evenodd"><path d="M224.79437,203.50604c0.71886,0.53221 2.23779,1.7124 -0.71357,4.64659c-2.95136,2.93419 -9.86853,2.43148 -10.6565,2.29325c-3.07066,-0.43712 -6.8135,-1.09369 -10.70844,-3.19831c-11.32539,-6.04777 -9.16046,-18.96802 -4.95628,-20.3626c4.10569,-1.41185 4.3806,6.86006 8.95125,12.63666c1.98379,2.58159 4.70195,3.87062 6.97946,4.77777c3.2452,1.17843 10.30401,-1.44134 11.10408,-0.79336z" fill="#ffab19" stroke="#001026" stroke-width="1.2" stroke-linecap="round" stroke-linejoin="round"/><path d="M201.76688,191.2429c1.10943,2.93584 3.50624,7.21431 3.50624,7.21431c0,0 -3.48885,-1.52575 -5.85099,-0.21416c-1.89905,0.98672 -1.88518,3.22275 -1.80914,3.94677c-1.05583,-1.50506 -2.32076,-3.55444 -2.70099,-7.17458c-0.38023,-3.62014 1.33041,-7.58419 3.404,-7.82961c2.03903,-0.04842 2.27234,1.51541 3.45088,4.05727z" fill="#ffffff" stroke="none" stroke-width="1" stroke-linecap="butt" stroke-linejoin="miter"/></g><g fill-rule="evenodd"><path d="M232.12358,208.85964c-11.59765,-2.57575 -7.57729,-9.18612 -7.8116,-14.6884c-0.03546,-4.80195 1.32097,-4.70159 7.05282,-6.84308c3.1532,-1.36649 5.01113,-2.16532 6.82828,-3.40949c2.75207,-1.82376 4.77123,2.57203 5.32354,5.17106c0,0 0.75963,3.88239 0.65583,6.18222c-0.14801,2.79787 -0.37758,4.70504 -0.92328,6.10226l0.3857,0.08501c-0.9508,1.1822 -2.73085,4.74847 -4.90582,6.30775c-0.70065,0.50231 -1.93025,0.98811 -3.13871,1.55018c-2.17493,-0.32179 -3.46676,-0.45752 -3.46676,-0.45752z" fill="#ffab19" stroke="#001026" stroke-width="1.2" stroke-linecap="round" stroke-linejoin="round"/><path d="M242.43153,201.76344c0,0 -0.66135,5.84728 -2.81158,5.41542c-0.45897,-0.0825 -2.72466,-0.03541 -3.22352,-0.42375c-2.37957,-1.85244 -3.14927,-6.9895 -3.09432,-10.03882c0.26531,-2.98825 0.02411,-6.60374 5.3768,-6.51c5.07731,0.02914 4.7797,3.15506 4.7797,3.15506c0.5012,4.98386 -1.02708,8.40209 -1.02708,8.40209z" fill="#ffffff" stroke="none" stroke-width="1" stroke-linecap="butt" stroke-linejoin="miter"/></g><g fill="#ffab19" fill-rule="nonzero" stroke-linecap="butt" stroke-linejoin="miter"><g><path d="M202.84402,222.99849l23.74743,-24.53943l2.09559,7.03766c0,0 0.93164,2.59505 -0.47423,4.3893c-3.22276,4.11302 -18.47017,19.78849 -18.47017,19.78849z" stroke="#000000" stroke-width="1.25"/><path d="M213.51741,234.11416c-1.78056,1.83995 -5.73349,0.903 -8.82912,-2.09272c-3.09564,-2.99573 -4.16171,-6.9158 -2.38116,-8.75575c1.78056,-1.83995 5.7335,-0.90299 8.82913,2.09274c3.09563,2.99573 4.16171,6.9158 2.38115,8.75574z" stroke="#000000" stroke-width="1.25"/><path d="M209.88753,219.07537c0.19253,0.1863 0.21222,0.38609 0.17187,0.55354c0.5475,-0.56262 1.12417,-1.10705 1.75901,-1.61707c0,0 0.55004,-0.44127 0.92515,0.06081c0.37511,0.50207 -0.17493,0.94337 -0.17493,0.94337c-0.55557,0.44506 -1.93512,1.84528 -3.18718,3.18636c0.1792,0.12557 0.36955,0.26894 0.55791,0.42554c0.06941,-0.00331 0.13897,-0.00202 0.2087,0.00421c0.87326,0.07818 1.37,0.98491 1.394,1.83345l0.45141,0.01519c0.14615,0.00365 0.28606,0.05645 0.39349,0.1604c0.24805,0.24004 0.22909,0.66201 -0.04233,0.94248c-0.07261,0.07505 -0.15594,0.13235 -0.2438,0.17145l-0.8344,0.39233c-0.16725,0.13991 -0.33654,0.27712 -0.5087,0.41046l-0.05567,0.00982l0.00892,0.01888l-0.6699,0.37923c-0.25726,0.1529 -0.57412,0.13838 -0.77615,-0.05713c-0.24805,-0.24004 -0.22909,-0.66201 0.04234,-0.94249l0.09361,-0.09673c-0.474,-0.0971 -0.95355,-0.33027 -1.38027,-0.55429c-0.22176,0.16637 -0.44298,0.33625 -0.65398,0.49803c-0.1208,0.24352 -0.35371,0.34026 -0.49651,0.37777c-0.31891,0.2389 -0.58501,0.42652 -0.7505,0.50553l-0.72775,0.4505c-0.2615,0.16938 -0.59276,0.16056 -0.80148,-0.04142c-0.20872,-0.20198 -0.22839,-0.53277 -0.06768,-0.79968l0.44418,-0.77311l0.19395,0.09525c0.00486,-0.00917 0.00974,-0.01831 0.01464,-0.02746l-0.08936,-0.42831l0.15196,-0.04934c-0.0011,-0.01853 -0.00123,-0.03742 -0.00037,-0.05675c0.00358,-0.0796 0.07281,-0.20593 0.18026,-0.35633c0.01756,-0.1827 0.05281,-0.36242 0.10354,-0.53962c-0.04224,0.04102 -0.08143,0.08008 -0.11718,0.11701l-0.61159,0.63199c-0.27143,0.28047 -0.69254,0.31326 -0.94059,0.07321c-0.04301,-0.04162 -0.07799,-0.0887 -0.10501,-0.13956c-0.26179,0.17067 -0.59417,0.16229 -0.80338,-0.04019c-0.22544,-0.21815 -0.23034,-0.58658 -0.02559,-0.86248l0.43762,-0.60956l0.02006,0.01323l0.01562,-0.05926c0.23537,-0.24321 0.50094,-0.48565 0.78895,-0.72234c1.08799,-1.27186 3.95354,-2.87639 4.7441,-3.36597l0.02245,-0.05777c0,0 0.49146,-0.50785 0.94059,-0.07321zM208.38071,223.33619c0.04033,-0.03093 0.08071,-0.0612 0.12112,-0.09077c-0.01495,-0.00815 -0.03001,-0.0163 -0.04518,-0.02447c-0.02501,0.03819 -0.05032,0.07663 -0.07593,0.11522z" stroke="none" stroke-width="0.5"/></g><path d="M210.51747,218.143c0,0 11.52697,-14.78739 15.11366,-18.49369c2.06098,-2.12972 4.49704,-1.77104 4.49704,-1.77104l4.45536,4.31158l-19.61072,20.26475z" stroke="none" stroke-width="0"/></g><path d="M218.35468,196.71972c-3.86027,1.805 -8.77263,5.59327 -11.72926,5.81969c-2.90605,0.22255 -3.88386,-3.08899 -4.54481,-4.50254c-1.3334,-2.85168 3.79088,-8.06488 11.44538,-11.64402c7.65452,-3.57913 14.94066,-4.16884 16.27406,-1.31715c1.3334,2.85168 -3.79088,8.06488 -11.44539,11.64401z" fill="#ffab19" fill-rule="nonzero" stroke="#001026" stroke-width="1.2" stroke-linecap="butt" stroke-linejoin="miter"/><path d="M266.67543,132.44486c-1.23545,-0.19013 -1.04532,-1.42559 -1.04532,-1.42559l0.1608,-0.84365c0.00918,-0.02335 1.15198,-2.41004 0.99266,-2.51628c-1.7861,-1.19104 -6.02328,0.54321 -7.61012,1.3416c0,0 -1.11808,0.55892 -1.677,-0.55917c-0.55892,-1.11808 0.55917,-1.677 0.55917,-1.677c2.6475,-1.31583 11.26218,-3.9801 11.20802,1.45516c-0.01026,1.03006 -0.76944,1.91118 -1.14594,2.87003l-0.01668,0.30957c0,0 -0.19013,1.23545 -1.42559,1.04532z" fill="#000000" fill-rule="nonzero" stroke="none" stroke-width="0.5" stroke-linecap="butt" stroke-linejoin="miter"/><path d="M278.13282,131.82332c-0.48082,-1.15382 0.673,-1.63465 0.673,-1.63465l1.0012,-0.41512c1.43538,-0.68008 2.05026,-1.18694 2.95859,-2.53091c0.32093,-0.47485 1.4288,-1.09303 0.96177,-1.42523c-0.50729,-0.36084 -1.24133,0.13802 -1.86365,0.12154c-2.20113,-0.05831 -4.23879,0.15613 -6.34351,0.7906c0,0 -1.19731,0.35909 -1.5564,-0.83823c-0.35909,-1.19731 0.83823,-1.5564 0.83823,-1.5564c2.59829,-0.77563 5.94129,-1.4475 8.64752,-0.79493c0.79404,0.19147 1.85508,0.14106 2.30909,0.82005c1.92743,2.88253 -2.86572,6.68196 -4.86306,7.66407l-1.12812,0.47221c0,0 -1.15382,0.48082 -1.63465,-0.673z" fill="#000000" fill-rule="nonzero" stroke="none" stroke-width="0.5" stroke-linecap="butt" stroke-linejoin="miter"/><path d="M277.24118,152.06695c-1.20954,-0.31546 -0.89408,-1.525 -0.89408,-1.525l0.26783,-1.02685c0.13798,-0.5171 1.50049,-4.60635 0.46924,-4.81852c-1.6452,-0.33848 -4.24649,1.035 -5.70228,1.70753c0,0 -1.13499,0.52374 -1.65873,-0.61124c-0.52374,-1.13499 0.61124,-1.65873 0.61124,-1.65873c1.89093,-0.87165 5.6031,-2.71912 7.6947,-1.7521c3.03823,1.40468 1.62731,5.43034 1.00135,7.77743l-0.26428,1.0134c0,0 -0.31546,1.20954 -1.525,0.89408z" fill="#000000" fill-rule="nonzero" stroke="none" stroke-width="0.5" stroke-linecap="butt" stroke-linejoin="miter"/><g fill-rule="evenodd"><path d="M248.34033,128.94513c0.29547,-0.20664 0.79757,-0.11781 0.90646,0.27986l2.83791,10.63938c0,0 6.5032,4.55615 8.47629,7.81297c3.32182,5.42729 3.52213,9.92394 3.52213,9.92394c0,0 7.14506,1.94118 8.47183,7.61301c1.32678,5.67183 -2.83135,16.56724 -21.54419,20.68546c-18.71283,4.11822 -33.92278,-0.64387 -41.27518,-11.88274c-7.3524,-11.23888 3.54162,-25.08519 2.9596,-24.27202l-2.49855,-17.84873c-0.10889,-0.39767 0.38429,-0.70875 0.78865,-0.51772l12.27312,7.62828c0,0 4.46098,-1.7999 9.15536,-2.10464c2.79485,-0.26237 5.19871,-0.11594 7.50705,0.23269z" fill="#ffab19" stroke="#001026" stroke-width="1.2" stroke-linecap="butt" stroke-linejoin="miter"/><path d="M263.7921,158.00789c0,0 6.93842,1.64572 8.2652,7.31755c1.32678,5.67183 -3.24239,16.07628 -21.7575,20.09007c-24.08251,5.53829 -35.9007,-8.60175 -29.43869,-19.34849c6.45979,-10.84671 18.15981,-2.00536 26.54434,-2.79248c7.18706,-0.66039 7.84641,-6.97667 16.38665,-5.26664z" fill="#ffffff" stroke="none" stroke-width="1" stroke-linecap="butt" stroke-linejoin="miter"/><path d="M244.67368,168.02183c10.25012,2.35476 11.80557,10.61736 11.91613,13.46126c0.05248,0.53596 -0.47118,0.90442 -0.92339,0.66884c-1.35664,-0.70678 -4.34571,-1.88809 -9.61481,-3.10734c-5.87316,-1.2907 -11.50513,-1.26163 -13.52501,-1.11981c-0.41201,-0.01563 -0.71238,-0.41535 -0.60073,-0.79945c1.07968,-4.78897 3.73037,-10.68337 12.7478,-9.1035z" data-paper-data="{&quot;index&quot;:null}" fill="#ffffff" stroke="#001026" stroke-width="1.2" stroke-linecap="round" stroke-linejoin="round"/><path d="M282.21206,158.69737c-4.61411,3.90384 -11.81009,4.16434 -11.81009,4.16434" fill="none" stroke="#001026" stroke-width="1.2" stroke-linecap="round" stroke-linejoin="round"/><path d="M281.16208,169.92359c-6.28728,0.64033 -10.22868,-1.17225 -10.22868,-1.17225" fill="none" stroke="#001026" stroke-width="1.2" stroke-linecap="round" stroke-linejoin="round"/><path d="M246.94759,160.68409c2.09948,-0.04682 4.30339,0.10408 4.41897,0.80168c0.13119,1.39742 -1.30601,4.23017 -2.90339,4.36581c-1.7951,0.24008 -6.04979,-2.16566 -6.08546,-3.76526c-0.12673,-1.19747 2.57037,-1.35765 4.56987,-1.40224z" fill="#001026" stroke="#001026" stroke-width="1.2" stroke-linecap="round" stroke-linejoin="round"/><path d="M201.92533,160.1877c0,0 8.66029,2.60757 12.22853,5.62877" fill="none" stroke="#001026" stroke-width="1.2" stroke-linecap="round" stroke-linejoin="round"/><path d="M214.53182,169.30893c-4.26103,1.79545 -11.68371,0.8607 -11.68371,0.8607" fill="none" stroke="#001026" stroke-width="1.2" stroke-linecap="round" stroke-linejoin="round"/><path d="M258.48381,148.72393c2.9996,4.43422 3.21328,9.53073 0.45411,11.39271c-2.75918,1.86198 -7.40485,-0.13494 -10.50443,-4.56694c-2.99961,-4.43422 -3.21328,-9.53073 -0.45411,-11.39271c2.75695,-1.96195 7.50483,0.13272 10.50443,4.56695z" fill="#ffffff" stroke="#001026" stroke-width="1.2" stroke-linecap="round" stroke-linejoin="round"/><path d="M259.33489,151.00552c0.02452,1.09973 -0.75521,2.01734 -1.75496,2.03964c-0.99975,0.0223 -1.81962,-0.85965 -1.84414,-1.95937c-0.02452,-1.09973 0.75521,-2.01734 1.75496,-2.03963c0.99975,-0.0223 1.81962,0.85965 1.84414,1.95937" fill="#001026" stroke="none" stroke-width="1" stroke-linecap="butt" stroke-linejoin="miter"/><path d="M233.7524,152.07613c3.09735,4.33202 3.01779,9.73513 0.36082,11.69486c-3.25682,1.9731 -7.68694,0.67155 -10.78429,-3.66048c-3.19733,-4.32979 -3.52435,-10.02392 -0.47417,-12.29248c3.04795,-2.36854 7.80029,-0.07392 10.89764,4.2581z" fill="#ffffff" stroke="#001026" stroke-width="1.2" stroke-linecap="round" stroke-linejoin="round"/><path d="M234.8012,154.25329c0.02453,1.09973 -0.75521,2.01734 -1.75496,2.03963c-0.99975,0.0223 -1.81961,-0.85965 -1.84414,-1.95937c-0.02453,-1.09973 0.75521,-2.01733 1.75496,-2.03963c1.00198,0.07768 1.81962,0.85965 1.84414,1.95937" fill="#001026" stroke="none" stroke-width="1" stroke-linecap="butt" stroke-linejoin="miter"/></g></g></g></svg>