<svg version="1.1" xmlns="http://www.w3.org/2000/svg" xmlns:xlink="http://www.w3.org/1999/xlink" width="91.81606" height="105.94551" viewBox="0,0,91.81606,105.94551"><g transform="translate(-193.53849,-126.84451)"><g data-paper-data="{&quot;isPaintingLayer&quot;:true}" stroke-miterlimit="10" stroke-dasharray="" stroke-dashoffset="0" style="mix-blend-mode: normal"><path d="M234.06634,198.80752c-3.35764,2.6241 -7.29624,7.41678 -10.12695,8.29995c-2.78229,0.86808 -4.47727,-2.1402 -5.43814,-3.36967c-1.93851,-2.48039 1.88734,-8.70926 8.54522,-13.91257c6.65788,-5.20331 13.6266,-7.41068 15.56509,-4.93029c1.93851,2.48039 -1.88733,8.70926 -8.54521,13.91257z" fill="#ffab19" fill-rule="nonzero" stroke="#001026" stroke-width="1.2" stroke-linecap="butt" stroke-linejoin="miter"/><g fill="#ffab19" fill-rule="nonzero" stroke-linecap="butt" stroke-linejoin="miter"><g><path d="M209.54324,219.49485l25.58128,-22.6213l1.54278,7.17913c0,0 0.72733,2.65958 -0.81364,4.33921c-3.53241,3.85035 -19.95102,18.29447 -19.95102,18.29447z" stroke="#000000" stroke-width="1.25"/><path d="M219.32125,231.40577c-1.91806,1.69612 -5.78632,0.45506 -8.63997,-2.772c-2.85365,-3.22706 -3.61213,-7.21811 -1.69405,-8.91423c1.91806,-1.69612 5.7863,-0.45504 8.63997,2.77202c2.85365,3.22706 3.61213,7.2181 1.69406,8.91421z" stroke="#000000" stroke-width="1.25"/><path d="M216.87012,216.13053c0.17748,0.20071 0.1816,0.40139 0.12835,0.56521c0.58953,-0.5184 1.20674,-1.0164 1.87926,-1.4756c0,0 0.58266,-0.39723 0.91764,0.13246c0.335,0.52969 -0.24766,0.92694 -0.24766,0.92694c-0.58845,0.40059 -2.07256,1.68945 -3.425,2.92924c0.16889,0.13911 0.34758,0.29682 0.52319,0.46759c0.06945,0.0021 0.13871,0.00878 0.20773,0.0204c0.86456,0.14577 1.28938,1.08829 1.24743,1.93616l0.44888,0.05019c0.14542,0.01497 0.28082,0.07846 0.37985,0.19047c0.22865,0.25859 0.17701,0.6778 -0.11539,0.93636c-0.07823,0.06918 -0.16574,0.11985 -0.25638,0.15199l-0.86235,0.32633c-0.1776,0.12651 -0.35703,0.25016 -0.53903,0.36972l-0.05627,0.00546l0.00744,0.0195l-0.69732,0.32605c-0.26837,0.13245 -0.58314,0.09339 -0.76939,-0.11724c-0.22865,-0.25859 -0.17701,-0.6778 0.11539,-0.93636l0.10083,-0.08916c-0.46503,-0.13362 -0.92503,-0.40332 -1.33306,-0.6598c-0.234,0.14863 -0.46775,0.30082 -0.69067,0.44572c-0.13934,0.2334 -0.37906,0.31177 -0.52432,0.33808c-0.33652,0.21341 -0.61636,0.3798 -0.78749,0.44573l-0.76052,0.39264c-0.27386,0.14856 -0.60344,0.11405 -0.79584,-0.10353c-0.19242,-0.21757 -0.18634,-0.54888 -0.00538,-0.80251l0.50288,-0.73628l0.18596,0.11002c0.00555,-0.00875 0.01112,-0.01752 0.01671,-0.02625l-0.05584,-0.43396l0.15536,-0.0374c0.00035,-0.01855 0.00169,-0.03741 0.00403,-0.05662c0.00974,-0.07908 0.08859,-0.19965 0.20739,-0.34126c0.03169,-0.18078 0.08078,-0.35724 0.14511,-0.52995c-0.04528,0.03761 -0.08741,0.07352 -0.1259,0.10756l-0.65883,0.58259c-0.29239,0.25856 -0.71479,0.25853 -0.94343,-0.00003c-0.03965,-0.04484 -0.07086,-0.09449 -0.09387,-0.1473c-0.27425,0.14982 -0.60497,0.11567 -0.79785,-0.10242c-0.20781,-0.23502 -0.18408,-0.6027 0.04147,-0.86187l0.48364,-0.57375l0.01899,0.01475l0.02018,-0.05787c0.25355,-0.22421 0.53714,-0.44527 0.84266,-0.65888c1.18347,-1.18352 4.16496,-2.5607 4.99117,-2.9874l0.02685,-0.05587c0,0 0.52942,-0.46815 0.94343,0.00003zM215.03698,220.26147c0.04261,-0.02768 0.08521,-0.05474 0.12779,-0.08107c-0.0143,-0.00927 -0.02865,-0.01859 -0.04315,-0.02791c-0.02789,0.03614 -0.05612,0.07248 -0.08465,0.10899z" stroke="none" stroke-width="0.5"/></g><path d="M217.57056,215.2499c0,0 12.64046,-13.84763 16.50411,-17.26426c2.22013,-1.96325 4.62098,-1.41648 4.62098,-1.41648l4.10711,4.64451l-21.1251,18.68074z" stroke="none" stroke-width="0"/></g><g fill-rule="evenodd"><path d="M226.15298,202.07283c0.81577,0.36677 2.55133,1.19612 0.29315,4.69191c-2.25819,3.4958 -9.12357,4.47888 -9.9229,4.51177c-3.09327,0.22736 -6.89005,0.38359 -11.14406,-0.84255c-12.35414,-3.49504 -12.99263,-16.57986 -9.18226,-18.83842c3.71045,-2.25445 5.74203,5.76881 11.43883,10.43854c2.48842,2.09947 5.41886,2.77957 7.83738,3.18047c3.42179,0.45971 9.76007,-3.60431 10.67986,-3.14173z" fill="#ffab19" stroke="#001026" stroke-width="1.2" stroke-linecap="round" stroke-linejoin="round"/><path d="M201.04093,194.99927c1.70965,2.63194 4.96326,6.30127 4.96326,6.30127c0,0 -3.73387,-0.74712 -5.76221,1.03778c-1.64512,1.36879 -1.15501,3.55049 -0.9264,4.24167c-1.35235,-1.24545 -3.025,-2.97815 -4.16805,-6.43408c-1.14305,-3.45593 -0.31657,-7.69349 1.65707,-8.37521c1.98186,-0.48189 2.54311,0.99629 4.23632,3.22856z" fill="#ffffff" stroke="none" stroke-width="1" stroke-linecap="butt" stroke-linejoin="miter"/></g><g fill-rule="evenodd"><path d="M232.12359,208.85965c-11.59765,-2.57575 -7.57729,-9.18612 -7.8116,-14.6884c-0.03546,-4.80195 1.32097,-4.70159 7.05282,-6.84308c3.1532,-1.36649 5.01113,-2.16532 6.82828,-3.40949c2.75207,-1.82376 4.77123,2.57203 5.32354,5.17106c0,0 0.75963,3.88239 0.65583,6.18222c-0.14801,2.79787 -0.37758,4.70504 -0.92328,6.10226l0.3857,0.08501c-0.9508,1.1822 -2.73085,4.74847 -4.90582,6.30775c-0.70065,0.50231 -1.93025,0.98811 -3.13871,1.55018c-2.17493,-0.32179 -3.46676,-0.45752 -3.46676,-0.45752z" fill="#ffab19" stroke="#001026" stroke-width="1.2" stroke-linecap="round" stroke-linejoin="round"/><path d="M242.43154,201.76345c0,0 -0.66135,5.84728 -2.81158,5.41542c-0.45897,-0.0825 -2.72466,-0.03541 -3.22352,-0.42375c-2.37957,-1.85244 -3.14927,-6.9895 -3.09432,-10.03882c0.26531,-2.98825 0.02411,-6.60374 5.3768,-6.51c5.07731,0.02914 4.7797,3.15506 4.7797,3.15506c0.5012,4.98386 -1.02708,8.40209 -1.02708,8.40209z" fill="#ffffff" stroke="none" stroke-width="1" stroke-linecap="butt" stroke-linejoin="miter"/></g><g fill="#ffab19" fill-rule="nonzero" stroke-linecap="butt" stroke-linejoin="miter"><g><path d="M248.42877,228.8233l-23.0386,-25.20608l7.15281,-1.66055c0,0 2.64724,-0.7709 4.35201,0.74222c3.90787,3.46866 18.61986,19.6477 18.61986,19.6477z" stroke="#000000" stroke-width="1.25"/><path d="M260.17739,218.8509c1.72742,1.88992 0.55008,5.77804 -2.62964,8.68436c-3.17974,2.9063 -7.15775,3.73024 -8.88517,1.84032c-1.72742,-1.88992 -0.55008,-5.77805 2.62967,-8.68436c3.17973,-2.90629 7.15775,-3.73024 8.88516,-1.84031z" stroke="#000000" stroke-width="1.25"/><path d="M244.9445,221.55269c0.19773,-0.18075 0.39836,-0.18818 0.56302,-0.13764c-0.52802,-0.58093 -1.03609,-1.18987 -1.50627,-1.85477c0,0 -0.40676,-0.57604 0.11738,-0.91969c0.5241,-0.34364 0.93088,0.23239 0.93088,0.23239c0.41021,0.58179 1.72327,2.04453 2.98512,3.37641c0.13632,-0.17118 0.29107,-0.35239 0.4589,-0.5308c0.00095,-0.06947 0.00649,-0.13883 0.01698,-0.20805c0.13153,-0.86683 1.06699,-1.3071 1.91541,-1.27908l0.04282,-0.44964c0.01259,-0.14566 0.07387,-0.28204 0.1842,-0.38294c0.2548,-0.2329 0.67479,-0.18812 0.93812,0.09999c0.07046,0.07707 0.12254,0.16376 0.1562,0.25387l0.34048,0.85688c0.1294,0.1755 0.25599,0.35289 0.37853,0.53289l0.00638,0.05618l0.0194,-0.00774l0.33747,0.69186c0.13685,0.26615 0.10295,0.58152 -0.10457,0.77121c-0.2548,0.2329 -0.67481,0.18811 -0.93812,-0.1l-0.09081,-0.09934c-0.12594,0.46716 -0.38807,0.93152 -0.6378,1.34372c0.15247,0.23152 0.30848,0.46276 0.45703,0.68325c0.23567,0.13549 0.31794,0.37389 0.34664,0.51872c0.21892,0.33295 0.38989,0.61004 0.45861,0.78006l0.40507,0.75397c0.15304,0.27139 0.12395,0.60148 -0.09043,0.79744c-0.21439,0.19595 -0.54575,0.19533 -0.80232,0.01856l-0.74443,-0.49071l0.10695,-0.18775c-0.00886,-0.0054 -0.01768,-0.01085 -0.02653,-0.01629l-0.43299,0.06295l-0.03994,-0.1547c-0.01855,-0.00004 -0.03741,-0.00107 -0.05667,-0.0031c-0.07924,-0.00845 -0.20108,-0.08529 -0.3446,-0.20176c-0.18127,-0.02872 -0.3585,-0.07492 -0.53227,-0.13641c0.03834,0.04468 0.07494,0.08619 0.1096,0.12411l0.59334,0.64917c0.26332,0.2881 0.27025,0.71043 0.01545,0.9433c-0.04417,0.04039 -0.0933,0.07241 -0.14573,0.09627c0.15431,0.27175 0.12558,0.603 -0.08932,0.7994c-0.23156,0.21165 -0.59959,0.19398 -0.86244,-0.02729l-0.58163,-0.47414l0.01443,-0.01922l-0.0582,-0.01922c-0.22834,-0.24984 -0.45402,-0.52975 -0.67266,-0.83171c-1.20283,-1.16386 -2.62881,-4.12232 -3.06903,-4.94139l-0.05629,-0.02594c0,0 -0.47679,-0.52165 -0.01545,-0.94331zM249.10501,223.31771c-0.02839,-0.04215 -0.05614,-0.0843 -0.08318,-0.12644c-0.00905,0.01442 -0.01811,0.02898 -0.02718,0.0436c0.03659,0.02731 0.07339,0.05492 0.11037,0.08284z" stroke="none" stroke-width="0.5"/></g><path d="M244.05247,220.86681c0,0 -14.05348,-12.41119 -17.53311,-16.21819c-1.99947,-2.18758 -1.49222,-4.59709 -1.49222,-4.59709c0,0 7.00894,-1.52149 8.8667,0.51106c3.44288,3.76679 14.73505,16.12136 14.73505,16.12136z" stroke="none" stroke-width="0"/></g><path d="M242.29436,190.17836c3.67039,2.16518 9.57158,4.07783 11.42893,6.38935c1.82558,2.27197 -0.35422,4.94984 -1.14707,6.29383c-1.59948,2.7114 -8.79608,1.429 -16.07407,-2.8643c-7.27798,-4.29334 -11.88133,-9.97179 -10.28186,-12.68319c1.59948,-2.7114 8.79607,-1.429 16.07407,2.86431z" fill="#ffab19" fill-rule="nonzero" stroke="#001026" stroke-width="1.2" stroke-linecap="butt" stroke-linejoin="miter"/><g fill-rule="evenodd"><path d="M248.34033,128.94513c0.29547,-0.20664 0.79757,-0.11781 0.90646,0.27986l2.83791,10.63938c0,0 6.5032,4.55615 8.47629,7.81297c3.32182,5.42729 3.52213,9.92394 3.52213,9.92394c0,0 7.14506,1.94118 8.47183,7.61301c1.32678,5.67183 -2.83135,16.56724 -21.54419,20.68546c-18.71283,4.11822 -33.92278,-0.64387 -41.27518,-11.88274c-7.3524,-11.23888 3.54162,-25.08519 2.9596,-24.27202l-2.49855,-17.84873c-0.10889,-0.39767 0.38429,-0.70875 0.78865,-0.51772l12.27312,7.62828c0,0 4.46098,-1.7999 9.15536,-2.10464c2.79485,-0.26237 5.19871,-0.11594 7.50705,0.23269z" fill="#ffab19" stroke="#001026" stroke-width="1.2" stroke-linecap="butt" stroke-linejoin="miter"/><path d="M263.7921,158.00789c0,0 6.93842,1.64572 8.2652,7.31755c1.32678,5.67183 -3.24239,16.07628 -21.7575,20.09007c-24.08251,5.53829 -35.9007,-8.60175 -29.43869,-19.34849c6.45979,-10.84671 18.15981,-2.00536 26.54434,-2.79248c7.18706,-0.66039 7.84641,-6.97667 16.38665,-5.26664z" fill="#ffffff" stroke="none" stroke-width="1" stroke-linecap="butt" stroke-linejoin="miter"/><path d="M244.67368,168.02183c10.25012,2.35476 11.80557,10.61736 11.91613,13.46126c0.05248,0.53596 -0.47118,0.90442 -0.92339,0.66884c-1.35664,-0.70678 -4.34571,-1.88809 -9.61481,-3.10734c-5.87316,-1.2907 -11.50513,-1.26163 -13.52501,-1.11981c-0.41201,-0.01563 -0.71238,-0.41535 -0.60073,-0.79945c1.07968,-4.78897 3.73037,-10.68337 12.7478,-9.1035z" data-paper-data="{&quot;index&quot;:null}" fill="#ffffff" stroke="#001026" stroke-width="1.2" stroke-linecap="round" stroke-linejoin="round"/><path d="M282.21206,158.69737c-4.61411,3.90384 -11.81009,4.16434 -11.81009,4.16434" fill="none" stroke="#001026" stroke-width="1.2" stroke-linecap="round" stroke-linejoin="round"/><path d="M281.16208,169.92359c-6.28728,0.64033 -10.22868,-1.17225 -10.22868,-1.17225" fill="none" stroke="#001026" stroke-width="1.2" stroke-linecap="round" stroke-linejoin="round"/><path d="M246.94759,160.68409c2.09948,-0.04682 4.30339,0.10408 4.41897,0.80168c0.13119,1.39742 -1.30601,4.23017 -2.90339,4.36581c-1.7951,0.24008 -6.04979,-2.16566 -6.08546,-3.76526c-0.12673,-1.19747 2.57037,-1.35765 4.56987,-1.40224z" fill="#001026" stroke="#001026" stroke-width="1.2" stroke-linecap="round" stroke-linejoin="round"/><path d="M201.92533,160.1877c0,0 8.66029,2.60757 12.22853,5.62877" fill="none" stroke="#001026" stroke-width="1.2" stroke-linecap="round" stroke-linejoin="round"/><path d="M214.53182,169.30893c-4.26103,1.79545 -11.68371,0.8607 -11.68371,0.8607" fill="none" stroke="#001026" stroke-width="1.2" stroke-linecap="round" stroke-linejoin="round"/><path d="M258.48381,148.72393c2.9996,4.43422 3.21328,9.53073 0.45411,11.39271c-2.75918,1.86198 -7.40485,-0.13494 -10.50443,-4.56694c-2.99961,-4.43422 -3.21328,-9.53073 -0.45411,-11.39271c2.75695,-1.96195 7.50483,0.13272 10.50443,4.56695z" fill="#ffffff" stroke="#001026" stroke-width="1.2" stroke-linecap="round" stroke-linejoin="round"/><path d="M259.33489,151.00552c0.02452,1.09973 -0.75521,2.01734 -1.75496,2.03964c-0.99975,0.0223 -1.81962,-0.85965 -1.84414,-1.95937c-0.02452,-1.09973 0.75521,-2.01734 1.75496,-2.03963c0.99975,-0.0223 1.81962,0.85965 1.84414,1.95937" fill="#001026" stroke="none" stroke-width="1" stroke-linecap="butt" stroke-linejoin="miter"/><path d="M233.7524,152.07613c3.09735,4.33202 3.01779,9.73513 0.36082,11.69486c-3.25682,1.9731 -7.68694,0.67155 -10.78429,-3.66048c-3.19733,-4.32979 -3.52435,-10.02392 -0.47417,-12.29248c3.04795,-2.36854 7.80029,-0.07392 10.89764,4.2581z" fill="#ffffff" stroke="#001026" stroke-width="1.2" stroke-linecap="round" stroke-linejoin="round"/><path d="M234.8012,154.25329c0.02453,1.09973 -0.75521,2.01734 -1.75496,2.03963c-0.99975,0.0223 -1.81961,-0.85965 -1.84414,-1.95937c-0.02453,-1.09973 0.75521,-2.01733 1.75496,-2.03963c1.00198,0.07768 1.81962,0.85965 1.84414,1.95937" fill="#001026" stroke="none" stroke-width="1" stroke-linecap="butt" stroke-linejoin="miter"/></g><path d="M268.7732,139.32928c-1.25,0 -1.25,-1.25 -1.25,-1.25l0.0026,-0.12487c0.19029,-2.86424 2.34928,-6.0875 -1.83701,-4.92346c-0.50065,0.13921 -0.98748,0.3359 -1.44954,0.57365c-0.479,0.24647 -0.90697,0.58151 -1.36046,0.87227c0,0 -1.05465,0.67098 -1.72563,-0.38367c-0.67098,-1.05465 0.38367,-1.72563 0.38367,-1.72563c1.98321,-1.25321 7.12878,-3.91478 8.94161,-0.80912c0.96503,1.65326 -0.34478,4.74503 -0.45784,6.55698l0.0026,-0.03614c0,0 0,1.25 -1.25,1.25z" fill="#000000" fill-rule="nonzero" stroke="none" stroke-width="0.5" stroke-linecap="butt" stroke-linejoin="miter"/><path d="M281.3449,136.93537c-1.11799,-0.5591 -0.55889,-1.67709 -0.55889,-1.67709l0.33067,-0.65833c0.21312,-0.47869 1.12106,-3.61812 1.67641,-4.9619c-0.28004,0.18507 -0.61416,0.36432 -0.81547,0.46573c-1.76224,0.88774 -3.49216,1.67775 -5.31835,2.43343c0,0 -1.15506,0.47785 -1.63291,-0.6772c-0.47785,-1.15506 0.6772,-1.63291 0.6772,-1.63291c2.02384,-0.83708 4.45547,-2.5593 6.57045,-2.99084c0.80254,-0.16375 1.83542,-0.69491 2.45227,-0.15604c1.74424,1.52373 -0.62279,6.95274 -1.32511,8.53516l-0.37918,0.7611c0,0 -0.5591,1.11799 -1.67709,0.55889z" fill="#000000" fill-rule="nonzero" stroke="none" stroke-width="0.5" stroke-linecap="butt" stroke-linejoin="miter"/><path d="M281.54921,151.83666c-1.25,0 -1.25,-1.25 -1.25,-1.25l0.00065,-0.26183c0.02011,-0.56036 0.72924,-1.34636 0.2652,-1.66113c-0.56389,-0.38252 -3.04864,0.86961 -3.59548,1.21356c0,0 -1.0646,0.65507 -1.71968,-0.40953c-0.65507,-1.0646 0.40953,-1.71968 0.40953,-1.71968c1.44865,-0.87619 4.99286,-2.41348 6.60775,-0.91542c0.75944,0.7045 0.55832,2.64239 0.53138,3.57252l0.00065,0.1815c0,0 0,1.25 -1.25,1.25z" fill="#000000" fill-rule="nonzero" stroke="none" stroke-width="0.5" stroke-linecap="butt" stroke-linejoin="miter"/></g></g></svg>