<svg version="1.1" xmlns="http://www.w3.org/2000/svg" xmlns:xlink="http://www.w3.org/1999/xlink" width="81.48672" height="100.11565" viewBox="0,0,81.48672,100.11565"><g transform="translate(-199.34189,-147.47991)"><g data-paper-data="{&quot;isPaintingLayer&quot;:true}" stroke-miterlimit="10" stroke-dasharray="" stroke-dashoffset="0" style="mix-blend-mode: normal"><path d="M249.23865,209.42335c2.19032,3.65545 6.46109,8.15463 6.98869,11.0726c0.51857,2.86806 -2.67561,4.1794 -4.01415,4.98144c-2.70037,1.61805 -8.41028,-2.94624 -12.75344,-10.19459c-4.34316,-7.24836 -5.67491,-14.43599 -2.97454,-16.05404c2.70037,-1.61805 8.41028,2.94624 12.75344,10.19459z" fill="#ffab19" fill-rule="nonzero" stroke="#001026" stroke-width="1.2" stroke-linecap="butt" stroke-linejoin="miter"/><g fill-rule="evenodd"><path d="M223.34362,215.24251c0.55102,-0.70454 1.77094,-2.19175 4.62611,0.83613c2.85517,3.02787 2.16982,9.92934 2.01082,10.71338c-0.51812,3.05803 -1.27338,6.78222 -3.4802,10.62018c-6.34496,11.16161 -19.20349,8.65597 -20.48647,4.4164c-1.30285,-4.14157 6.97343,-4.19777 12.86881,-8.61416c2.63311,-1.91487 3.99353,-4.59801 4.96056,-6.85076c1.26378,-3.21292 -1.16852,-10.3385 -0.49962,-11.12117z" fill="#ffab19" stroke="#001026" stroke-width="1.2" stroke-linecap="round" stroke-linejoin="round"/><path d="M210.47619,237.93786c2.96414,-1.03145 7.30446,-3.31435 7.30446,-3.31435c0,0 -1.61742,3.44731 -0.36872,5.84329c0.93619,1.92446 3.1718,1.96969 3.89758,1.91281c-1.53244,1.01569 -3.61453,2.22602 -7.24346,2.51044c-3.62893,0.28442 -7.54638,-1.53038 -7.73691,-3.60973c0.00548,-2.0396 1.57493,-2.2315 4.14705,-3.34245z" fill="#ffffff" stroke="none" stroke-width="1" stroke-linecap="butt" stroke-linejoin="miter"/></g><path d="M234.56592,232.83459l1.39571,-7.20916c0,0 0.37374,-2.73178 2.4499,-3.67271c1.81834,-0.8241 2.44055,-0.78805 6.88137,-2.33843c4.44082,-1.55038 4.0502,4.49957 4.76002,7.53664c0.01422,0.06083 -2.69069,3.21104 -2.67644,3.27187c0,0 2.33917,-2.58648 1.82478,-2.41536c-2.0522,0.6827 -14.63533,4.82715 -14.63533,4.82715z" fill="#ffab19" fill-rule="nonzero" stroke="#000000" stroke-width="1.25" stroke-linecap="butt" stroke-linejoin="miter"/><path d="M235.93831,228.75234c-2.81214,0.93552 -4.80636,-0.50884 -4.80636,-0.50884l-1.95709,-5.88301c0,0 20.85145,-2.01009 21.38335,0.27602c-5.25206,2.33117 -11.86428,5.19912 -14.6199,6.11583z" fill="#ffab19" fill-rule="nonzero" stroke="none" stroke-width="0" stroke-linecap="butt" stroke-linejoin="miter"/><g fill-rule="evenodd"><path d="M230.91336,226.09476c-11.77686,-1.56382 -8.34283,-8.4969 -9.05178,-13.95835c-0.45032,-4.78092 0.90971,-4.79816 6.43504,-7.427c3.02331,-1.63388 4.80525,-2.59029 6.50808,-3.98685c2.58416,-2.05478 4.97566,2.15007 5.75052,4.69164c0,0 1.09231,3.80222 1.18766,6.10241c0.09434,2.80019 0.03045,4.72007 -0.39245,6.15922l0.3916,0.05136c-0.84507,1.25995 -2.31026,4.96671 -4.34234,6.70812c-0.65462,0.56098 -1.83763,1.15123 -2.993,1.81563c-2.1946,-0.13262 -3.49333,-0.1562 -3.49333,-0.1562z" fill="#ffab19" stroke="#001026" stroke-width="1.2" stroke-linecap="round" stroke-linejoin="round"/><path d="M240.56948,218.13427c0,0 -0.15354,5.88256 -2.33305,5.63814c-0.46438,-0.04253 -2.71753,0.20019 -3.24808,-0.14358c-2.53076,-1.63986 -3.74154,-6.69118 -3.95032,-9.73384c0.00607,-3 -0.54669,-6.58112 4.79407,-6.95032c5.06083,-0.40976 5.03448,2.73018 5.03448,2.73018c0.93004,4.9219 -0.29711,8.45942 -0.29711,8.45942z" fill="#ffffff" stroke="none" stroke-width="1" stroke-linecap="butt" stroke-linejoin="miter"/></g><g fill-rule="evenodd"><path d="M246.35689,147.9716c0.29547,-0.20664 0.79757,-0.11781 0.90646,0.27986l2.83791,10.63938c0,0 6.5032,4.55615 8.47629,7.81297c3.32182,5.42729 3.52213,9.92394 3.52213,9.92394c0,0 7.14506,1.94118 8.47183,7.61301c1.32678,5.67183 -2.83135,16.56724 -21.54419,20.68546c-18.71283,4.11822 -33.92278,-0.64387 -41.27518,-11.88274c-7.3524,-11.23888 3.54162,-25.08519 2.9596,-24.27202l-2.49855,-17.84873c-0.10889,-0.39767 0.38429,-0.70875 0.78865,-0.51772l12.27312,7.62828c0,0 4.46098,-1.7999 9.15536,-2.10464c2.79485,-0.26237 5.19871,-0.11594 7.50705,0.23269z" fill="#ffab19" stroke="#001026" stroke-width="1.2" stroke-linecap="butt" stroke-linejoin="miter"/><path d="M261.80867,177.03436c0,0 6.93842,1.64572 8.2652,7.31755c1.32678,5.67183 -3.24239,16.07628 -21.7575,20.09007c-24.08251,5.53829 -35.9007,-8.60175 -29.43869,-19.34849c6.45979,-10.84671 18.15981,-2.00536 26.54434,-2.79248c7.18706,-0.66039 7.84641,-6.97667 16.38665,-5.26664z" fill="#ffffff" stroke="none" stroke-width="1" stroke-linecap="butt" stroke-linejoin="miter"/><path d="M242.69024,187.0483c10.25012,2.35476 11.80557,10.61736 11.91613,13.46126c0.05248,0.53596 -0.47118,0.90442 -0.92339,0.66884c-1.35664,-0.70678 -4.34571,-1.88809 -9.61481,-3.10734c-5.87316,-1.2907 -11.50513,-1.26163 -13.52501,-1.11981c-0.41201,-0.01563 -0.71238,-0.41535 -0.60073,-0.79945c1.07968,-4.78897 3.73037,-10.68337 12.7478,-9.1035z" data-paper-data="{&quot;index&quot;:null}" fill="#ffffff" stroke="#001026" stroke-width="1.2" stroke-linecap="round" stroke-linejoin="round"/><path d="M280.22861,177.72384c-4.61411,3.90384 -11.81009,4.16434 -11.81009,4.16434" fill="none" stroke="#001026" stroke-width="1.2" stroke-linecap="round" stroke-linejoin="round"/><path d="M279.17865,188.95006c-6.28728,0.64033 -10.22868,-1.17225 -10.22868,-1.17225" fill="none" stroke="#001026" stroke-width="1.2" stroke-linecap="round" stroke-linejoin="round"/><path d="M244.96415,179.71056c2.09948,-0.04682 4.30339,0.10408 4.41897,0.80168c0.13119,1.39742 -1.30601,4.23017 -2.90339,4.36581c-1.7951,0.24008 -6.04979,-2.16566 -6.08546,-3.76526c-0.12673,-1.19747 2.57037,-1.35765 4.56987,-1.40224z" fill="#001026" stroke="#001026" stroke-width="1.2" stroke-linecap="round" stroke-linejoin="round"/><path d="M199.94189,179.21417c0,0 8.66029,2.60757 12.22853,5.62877" fill="none" stroke="#001026" stroke-width="1.2" stroke-linecap="round" stroke-linejoin="round"/><path d="M212.54838,188.3354c-4.26103,1.79545 -11.68371,0.8607 -11.68371,0.8607" fill="none" stroke="#001026" stroke-width="1.2" stroke-linecap="round" stroke-linejoin="round"/><path d="M256.50037,167.7504c2.9996,4.43422 3.21328,9.53073 0.45411,11.39271c-2.75918,1.86198 -7.40485,-0.13494 -10.50443,-4.56694c-2.99961,-4.43422 -3.21328,-9.53073 -0.45411,-11.39271c2.75695,-1.96195 7.50483,0.13272 10.50443,4.56695z" fill="#ffffff" stroke="#001026" stroke-width="1.2" stroke-linecap="round" stroke-linejoin="round"/><path d="M257.35145,170.03199c0.02452,1.09973 -0.75521,2.01734 -1.75496,2.03964c-0.99975,0.0223 -1.81962,-0.85965 -1.84414,-1.95937c-0.02452,-1.09973 0.75521,-2.01734 1.75496,-2.03963c0.99975,-0.0223 1.81962,0.85965 1.84414,1.95937" fill="#001026" stroke="none" stroke-width="1" stroke-linecap="butt" stroke-linejoin="miter"/><path d="M231.76896,171.1026c3.09735,4.33202 3.01779,9.73513 0.36082,11.69486c-3.25682,1.9731 -7.68694,0.67155 -10.78429,-3.66048c-3.19733,-4.32979 -3.52435,-10.02392 -0.47417,-12.29248c3.04795,-2.36854 7.80029,-0.07392 10.89764,4.2581z" fill="#ffffff" stroke="#001026" stroke-width="1.2" stroke-linecap="round" stroke-linejoin="round"/><path d="M232.81776,173.27976c0.02453,1.09973 -0.75521,2.01734 -1.75496,2.03963c-0.99975,0.0223 -1.81961,-0.85965 -1.84414,-1.95937c-0.02453,-1.09973 0.75521,-2.01733 1.75496,-2.03963c1.00198,0.07768 1.81962,0.85965 1.84414,1.95937" fill="#001026" stroke="none" stroke-width="1" stroke-linecap="butt" stroke-linejoin="miter"/></g><g fill="#ffab19" fill-rule="nonzero" stroke-linecap="butt" stroke-linejoin="miter"><path d="M239.68677,241.09395l1.39776,-16.38305c0.04644,0.00827 0.09288,0.01656 0.13932,0.02484c3.08784,0.55127 5.14728,1.07662 8.21674,1.7358c-0.089,1.24798 0.55287,2.40522 0.50721,3.64348c-0.22685,6.15213 -0.69577,11.79499 -0.69577,11.79499z" stroke="#000000" stroke-width="1.25"/><path d="M254.98297,242.96641c-0.21766,2.55116 -3.87365,4.32242 -8.16587,3.95621c-4.29223,-0.36621 -7.59532,-2.7312 -7.37766,-5.28236c0.21766,-2.55116 3.87365,-4.32242 8.16587,-3.95621c4.29222,0.36621 7.59532,2.7312 7.37766,5.28235z" stroke="#000000" stroke-width="1.25"/><path d="M242.66771,233.60289c0.26695,0.02278 0.40843,0.16518 0.48294,0.32047c0.06891,-0.78202 0.17192,-1.56836 0.34176,-2.36479c0,0 0.14755,-0.68955 0.75553,-0.53739c0.60798,0.15217 0.46044,0.84176 0.46044,0.84176c-0.14943,0.696 -0.33409,2.65294 -0.45728,4.48351c0.21823,-0.01587 0.45638,-0.02504 0.7013,-0.02266c0.05172,-0.0464 0.10644,-0.08936 0.16442,-0.12859c0.72628,-0.49113 1.68419,-0.10216 2.23892,0.54041l0.3595,-0.27343c0.1156,-0.08952 0.25738,-0.137 0.40636,-0.12429c0.34393,0.02934 0.59584,0.36839 0.56266,0.75729c-0.00887,0.10404 -0.03725,0.20111 -0.08065,0.28693l-0.3989,0.83128c-0.04124,0.21412 -0.08576,0.42742 -0.13497,0.63956l-0.03695,0.04278l0.01885,0.009l-0.27965,0.71719c-0.1028,0.28106 -0.35759,0.46999 -0.63773,0.44609c-0.34393,-0.02934 -0.59584,-0.3684 -0.56266,-0.75729l0.01145,-0.13411c-0.42875,0.22421 -0.9478,0.34644 -1.42009,0.44242c-0.06679,0.26905 -0.13093,0.54051 -0.19226,0.79922c0.06023,0.26507 -0.05918,0.48724 -0.14617,0.60653c-0.09626,0.38667 -0.18397,0.70022 -0.26233,0.86603l-0.27946,0.80898c-0.09567,0.29649 -0.35802,0.49897 -0.64741,0.47428c-0.2894,-0.0247 -0.51364,-0.26865 -0.55772,-0.57708l-0.14415,-0.8799l0.21052,-0.0487c-0.00202,-0.01018 -0.00403,-0.02035 -0.00602,-0.03053l-0.33988,-0.27553l0.08662,-0.13426c-0.01255,-0.01367 -0.0246,-0.02824 -0.03614,-0.04377c-0.04753,-0.06396 -0.07367,-0.20564 -0.0854,-0.3901c-0.10182,-0.15271 -0.18805,-0.31429 -0.26068,-0.48368c-0.00683,0.05847 -0.01253,0.11353 -0.0169,0.16474l-0.07476,0.87628c-0.03319,0.38889 -0.33889,0.68036 -0.68282,0.65103c-0.05963,-0.00509 -0.11649,-0.01947 -0.16958,-0.04182c-0.0951,0.29769 -0.35801,0.5012 -0.64811,0.47644c-0.31257,-0.02667 -0.54914,-0.30916 -0.56476,-0.65238l-0.04593,-0.74898l0.02391,-0.00243l-0.02534,-0.0558c0.02878,-0.33723 0.08146,-0.69293 0.15516,-1.05835c0.03975,-1.67325 1.24715,-4.72745 1.55062,-5.60641l-0.01911,-0.05897c0,0 0.06008,-0.70416 0.68281,-0.65103zM244.19176,237.85758c0.01173,-0.04943 0.0239,-0.09842 0.03654,-0.14687c-0.01674,0.00314 -0.03358,0.00633 -0.05049,0.00958c0.00475,0.04541 0.0094,0.09119 0.01395,0.1373z" stroke="none" stroke-width="0.5"/><path d="M242.16081,231.05222c0,0 -0.07202,-3.30925 -0.12303,-7.52805c2.29414,0.41217 4.59237,0.83596 6.87624,1.30788l-0.57565,6.74723z" stroke="none" stroke-width="0"/></g><g fill="#ffab19" fill-rule="nonzero" stroke-linecap="butt" stroke-linejoin="miter"><path d="M222.14463,240.28091l2.29433,-22.87058l6.14367,2.6997c0,0 2.38677,0.92661 2.4714,2.45564c0.19398,3.50505 -1.33109,18.14821 -1.33109,18.14821z" stroke="#000000" stroke-width="1.25"/><path d="M235.74966,242.58262c-0.17202,2.6112 -3.79577,4.48818 -8.09385,4.19234c-4.29809,-0.29584 -7.64292,-2.65246 -7.4709,-5.26366c0.17202,-2.6112 3.79578,-4.48818 8.09386,-4.19234c4.29808,0.29584 7.64291,2.65246 7.47089,5.26366z" stroke="#000000" stroke-width="1.25"/><path d="M224.9912,235.21755c0.26731,0.01208 0.41131,0.10596 0.4886,0.20929c0.05492,-0.52568 0.14387,-1.05466 0.29945,-1.59122c0,0 0.1352,-0.46457 0.7458,-0.36973c0.6106,0.09484 0.47541,0.55942 0.47541,0.55942c-0.13697,0.4689 -0.28663,1.78452 -0.37708,3.01458c0.21792,-0.01328 0.45585,-0.02227 0.70079,-0.02361c0.05087,-0.03177 0.10483,-0.06126 0.1621,-0.08828c0.71739,-0.33833 1.6821,-0.08877 2.24822,0.33583l0.35455,-0.18782c0.11397,-0.06147 0.2549,-0.09502 0.40407,-0.08828c0.3444,0.01557 0.60233,0.24009 0.5761,0.5015c-0.00701,0.06994 -0.03365,0.13542 -0.07551,0.19354l-0.38397,0.5627c-0.0374,0.1442 -0.07812,0.2879 -0.12352,0.43086l-0.03618,0.02915l0.019,0.00581l-0.26678,0.4847c-0.09777,0.18986 -0.34912,0.31973 -0.62964,0.30705c-0.3444,-0.01557 -0.60233,-0.2401 -0.5761,-0.50151l0.00904,-0.09015c-0.42468,0.15562 -0.94144,0.24389 -1.41195,0.31397c-0.06196,0.18138 -0.12124,0.36434 -0.17794,0.5387c0.06495,0.17718 -0.05047,0.32771 -0.13531,0.40882c-0.08933,0.26067 -0.17143,0.47216 -0.24681,0.58437l-0.26496,0.54631c-0.09036,0.20015 -0.34904,0.33918 -0.63883,0.32608c-0.28979,-0.0131 -0.51835,-0.17415 -0.56793,-0.38062l-0.15986,-0.5888l0.20961,-0.03521c-0.00221,-0.00681 -0.00439,-0.01361 -0.00656,-0.02042l-0.34475,-0.18085l0.0842,-0.09115c-0.01279,-0.00902 -0.0251,-0.01865 -0.03691,-0.02893c-0.04866,-0.04236 -0.07734,-0.13712 -0.09237,-0.26078c-0.10453,-0.10127 -0.19363,-0.20868 -0.26929,-0.3215c-0.00579,0.03933 -0.01049,0.07634 -0.01395,0.11076l-0.05909,0.58901c-0.02623,0.26141 -0.32667,0.4607 -0.67107,0.44513c-0.05971,-0.0027 -0.11682,-0.01167 -0.1703,-0.02604c-0.08976,0.20093 -0.349,0.34068 -0.63949,0.32754c-0.313,-0.01414 -0.55458,-0.20089 -0.57634,-0.43106l-0.0593,-0.50213l0.02386,-0.00191l-0.02633,-0.03715c0.02274,-0.22668 0.06906,-0.46604 0.13621,-0.71218c0.00984,-1.12347 1.16245,-3.18777 1.45016,-3.78133l-0.02015,-0.03934c0,0 0.04748,-0.47331 0.67107,-0.44513zM226.59105,238.05479c0.01084,-0.03333 0.02213,-0.06635 0.03391,-0.09901c-0.01668,0.0023 -0.03345,0.00465 -0.0503,0.00703c0.00556,0.03041 0.01103,0.06108 0.01639,0.09198z" stroke="none" stroke-width="0.5"/><path d="M224.87038,234.4666c0,0 -0.74296,-12.5757 -0.39643,-16.02995c0.19912,-1.98489 2.29111,-2.85664 2.29111,-2.85664c0,0 5.08408,1.0331 5.61209,3.39134c0.52801,2.35824 -1.32077,15.77488 -1.32077,15.77488z" stroke="none" stroke-width="0"/></g><path d="M233.4691,224.58624c-0.61549,0.10865 -0.72414,-0.50683 -0.72414,-0.50683l-0.08226,-0.47026c-0.25136,-1.10787 -0.60423,-2.1817 -1.0057,-3.24374c-0.49168,-1.32286 -1.12446,-3.32801 -2.18678,-4.30022c-2.21561,-2.02767 -3.95239,0.47478 -4.26126,2.52721c0,0 -0.09406,0.61788 -0.71194,0.52382c-0.61788,-0.09406 -0.52382,-0.71194 -0.52382,-0.71194c0.47043,-3.05881 3.36735,-5.94016 6.33258,-3.26879c1.22794,1.10625 1.95614,3.27396 2.52161,4.79099c0.42112,1.11516 0.7893,2.24268 1.05419,3.40555l0.09433,0.53007c0,0 0.10866,0.61548 -0.50683,0.72414z" fill="#000000" fill-rule="nonzero" stroke="none" stroke-width="0.5" stroke-linecap="butt" stroke-linejoin="miter"/><path d="M235.26263,216.05028c1.45001,4.00714 4.78048,9.24071 4.73971,12.20572c-0.04007,2.91428 -3.42622,3.58989 -4.89355,4.12084c-2.96019,1.07116 -7.6907,-4.50179 -10.56593,-12.44754c-2.87523,-7.94574 -2.80635,-15.2554 0.15383,-16.32655c2.96019,-1.07116 7.6907,4.50179 10.56592,12.44754z" fill="#ffab19" fill-rule="nonzero" stroke="#001026" stroke-width="1.2" stroke-linecap="butt" stroke-linejoin="miter"/></g></g></svg>