<svg version="1.1" xmlns="http://www.w3.org/2000/svg" xmlns:xlink="http://www.w3.org/1999/xlink" width="137.17242" height="129.49391" viewBox="0,0,137.17242,129.49391"><g transform="translate(-171.41379,-115.25305)"><g data-paper-data="{&quot;isPaintingLayer&quot;:true}" fill-rule="nonzero" stroke-width="2.5" stroke-linecap="butt" stroke-linejoin="miter" stroke-miterlimit="10" stroke-dasharray="" stroke-dashoffset="0" style="mix-blend-mode: normal"><g><path d="M307.33621,194.09449c0,27.28423 -30.14746,49.40247 -67.33621,49.40247c-37.18878,0 -67.33621,-22.11824 -67.33621,-49.40247c0,-27.28423 30.14746,-49.40247 67.33621,-49.40247c37.18878,0 67.33621,22.11824 67.33621,49.40247z" data-paper-data="{&quot;index&quot;:null}" fill="#ff8700" stroke="#d36e00"/><path d="M291.56404,192.45257c0,25.51739 -23.5804,46.20335 -52.66831,46.20335c-29.08791,0 -52.66834,-20.68593 -52.66834,-46.20335c0,-25.51739 23.5804,-46.20335 52.66834,-46.20335c29.08791,0 52.66831,20.68593 52.66831,46.20335z" fill="#ff8700" stroke="#d36e00"/><path d="M226.73139,151.38197v-34.87892h26.16436v34.87892z" fill="#5d3500" stroke="#512a00"/><path d="M277.8588,194.09449c0,25.51739 -16.94995,46.20335 -37.8588,46.20335c-20.90884,0 -37.8588,-20.68593 -37.8588,-46.20335c0,-25.51739 16.94995,-46.20335 37.8588,-46.20335c20.90884,0 37.8588,20.68593 37.8588,46.20335z" fill="#ff8700" stroke="#d36e00"/><path d="M200.95116,206.06761c-0.0267,-0.39182 0.02257,-0.83449 0.17828,-1.33293c0.95676,-3.06222 4.01898,-2.10547 4.01898,-2.10547c5.55855,1.7389 11.246,2.97762 16.77153,4.83403c2.75131,0.92435 6.14851,2.79843 9.00697,3.23844c1.61274,0.24826 2.56851,-1.23078 3.56755,-2.12095c2.07205,-1.84625 5.72946,-6.73975 8.23274,-7.54235c5.84661,-1.87456 12.61331,4.93816 17.28423,7.73978c2.56678,1.26775 4.65219,-1.01393 7.11278,-2.45359c2.96072,-1.73226 5.9152,-3.69394 8.9931,-5.20727c1.78421,-0.87726 3.69001,-3.2294 5.47798,-2.35983c2.12287,1.03246 2.70108,4.09847 2.92818,6.44816c0.16402,1.69706 -1.18959,3.19655 -1.84393,4.77095c-1.59777,3.8444 -3.59038,7.40601 -5.74257,10.96032c-2.24818,3.71284 -6.54548,9.66321 -10.88551,11.15566c-4.73773,1.62921 -12.96335,-1.5007 -17.43017,-3.31977c-5.22057,1.83735 -9.79474,5.54372 -14.8483,7.87241c-1.43027,0.65909 -2.79196,1.74989 -4.3658,1.80574c-5.09653,0.18091 -8.05358,-3.74942 -10.74669,-7.16397c-5.35284,-6.78676 -12.24197,-11.39426 -17.12976,-18.65077l-1.26024,-3.18683c0,0 -0.74488,-2.0477 0.68067,-3.38184z" fill="#000000" stroke="#d36e00"/><path d="M268.93841,163.93451c4.01536,3.77473 10.92252,27.14838 10.92252,27.14838l-26.09795,0.49327c0,0 13.81948,-28.91635 15.17546,-27.64164z" fill="#000000" stroke="#d36e00"/><path d="M226.00492,188.93601l-25.97769,-2.55082c0,0 8.72976,-22.7558 13.03041,-26.20196c1.45231,-1.16377 12.94728,28.75278 12.94728,28.75278z" data-paper-data="{&quot;index&quot;:null}" fill="#000000" stroke="#d36e00"/></g></g></g></svg>