<svg version="1.1" xmlns="http://www.w3.org/2000/svg" xmlns:xlink="http://www.w3.org/1999/xlink" width="202.65376" height="334.86314" viewBox="0,0,202.65376,334.86314"><g transform="translate(-136.79206,-105.59044)"><g data-paper-data="{&quot;isPaintingLayer&quot;:true}" fill-rule="nonzero" stroke-linecap="butt" stroke-linejoin="miter" stroke-miterlimit="10" stroke-dasharray="" stroke-dashoffset="0" style="mix-blend-mode: normal"><path d="M136.79206,432.82233l73.24764,-256.58072h58.82155c0,0 70.58457,220.59124 70.58457,254.25484c0,8.60661 -70.58457,9.95713 -70.58457,9.95713z" fill="#613700" stroke="none" stroke-width="0"/><path d="M276.35833,181.41236c0,26.22245 -16.27819,47.47994 -36.35833,47.47994c-20.08015,0 -36.35833,-21.25749 -36.35833,-47.47994c0,-26.22245 16.27818,-47.47994 36.35833,-47.47994c20.08015,0 36.35833,21.25749 36.35833,47.47994z" data-paper-data="{&quot;index&quot;:null}" fill="#ff8700" stroke="#d36e00" stroke-width="2.5"/><path d="M267.84211,179.83434c0,24.52437 -12.73229,44.40531 -28.43837,44.40531c-15.70608,0 -28.43838,-19.88092 -28.43838,-44.40531c0,-24.52437 12.73229,-44.40531 28.43838,-44.40531c15.70608,0 28.43837,19.88092 28.43837,44.40531z" fill="#ff8700" stroke="#d36e00" stroke-width="2.5"/><path d="M232.83559,140.36202v-33.52158h14.1275v33.52158z" fill="#5d3500" stroke="#512a00" stroke-width="2.5"/><path d="M260.44194,181.41236c0,24.52437 -9.15216,44.40531 -20.44194,44.40531c-11.28977,0 -20.44194,-19.88092 -20.44194,-44.40531c0,-24.52437 9.15216,-44.40531 20.44194,-44.40531c11.28977,0 20.44194,19.88092 20.44194,44.40531z" fill="#ff8700" stroke="#d36e00" stroke-width="2.5"/><path d="M218.9155,192.91953c-0.01442,-0.37657 0.01219,-0.80201 0.09626,-1.28106c0.5166,-2.94305 2.17006,-2.02353 2.17006,-2.02353c3.00135,1.67123 6.0723,2.86174 9.05582,4.64592c1.48558,0.88837 3.3199,2.68953 4.86334,3.11241c0.8708,0.2386 1.38687,-1.18288 1.9263,-2.03841c1.11881,-1.7744 3.09363,-6.47747 4.44528,-7.24884c3.15689,-1.80161 6.81058,4.74599 9.33265,7.43858c1.38594,1.21841 2.51196,-0.97447 3.84056,-2.35811c1.59865,-1.66485 3.19393,-3.55018 4.85585,-5.00463c0.96339,-0.84313 1.99243,-3.10373 2.95784,-2.268c1.14625,0.99228 1.45846,3.93898 1.58107,6.19723c0.08856,1.63102 -0.64232,3.07216 -0.99563,4.58528c-0.86271,3.6948 -1.93863,7.1178 -3.10071,10.5338c-1.21391,3.56836 -3.53424,9.28716 -5.87766,10.72154c-2.55815,1.5658 -6.99958,-1.4423 -9.41145,-3.19057c-2.81886,1.76585 -5.2887,5.32798 -8.01738,7.56605c-0.77228,0.63345 -1.50752,1.6818 -2.35732,1.73547c-2.75188,0.17387 -4.34855,-3.60351 -5.80269,-6.88518c-2.89028,-6.52265 -6.61008,-10.95085 -9.24925,-17.92496l-0.68048,-3.06281c0,0 -0.40219,-1.96802 0.36753,-3.25024z" fill="#000000" stroke="#d36e00" stroke-width="2.5"/><path d="M255.62535,152.42607c2.1681,3.62783 5.89764,26.09188 5.89764,26.09188l-14.09164,0.47408c0,0 7.46185,-27.79105 8.19402,-26.56595z" fill="#000000" stroke="#d36e00" stroke-width="2.5"/><path d="M232.44333,176.45461l-14.02671,-2.45156c0,0 4.71366,-21.87024 7.0358,-25.18229c0.78418,-1.11849 6.99091,27.63385 6.99091,27.63385z" data-paper-data="{&quot;index&quot;:null}" fill="#000000" stroke="#d36e00" stroke-width="2.5"/></g></g></svg>