<svg version="1.1" xmlns="http://www.w3.org/2000/svg" xmlns:xlink="http://www.w3.org/1999/xlink" width="285.32043" height="360.62494" viewBox="0,0,285.32043,360.62494"><g transform="translate(-91.79206,-105.59043)"><g data-paper-data="{&quot;isPaintingLayer&quot;:true}" fill-rule="nonzero" stroke-linecap="butt" stroke-linejoin="miter" stroke-miterlimit="10" stroke-dasharray="" stroke-dashoffset="0" style="mix-blend-mode: normal"><path d="M91.79206,432.82233l73.24764,-256.58072h58.82155c0,0 0.58457,202.59124 0.58457,236.25484c0,8.60661 -0.58457,27.95713 -0.58457,27.95713z" fill="#613700" stroke="none" stroke-width="0"/><path d="M231.35833,181.41236c0,26.22245 -16.27819,47.47994 -36.35833,47.47994c-20.08015,0 -36.35833,-21.25749 -36.35833,-47.47994c0,-26.22245 16.27818,-47.47994 36.35833,-47.47994c20.08015,0 36.35833,21.25749 36.35833,47.47994z" data-paper-data="{&quot;index&quot;:null}" fill="#ff8700" stroke="#d36e00" stroke-width="2.5"/><path d="M222.84211,179.83434c0,24.52437 -12.73229,44.40531 -28.43837,44.40531c-15.70608,0 -28.43838,-19.88092 -28.43838,-44.40531c0,-24.52437 12.73229,-44.40531 28.43838,-44.40531c15.70608,0 28.43837,19.88092 28.43837,44.40531z" fill="#ff8700" stroke="#d36e00" stroke-width="2.5"/><path d="M187.83559,140.36202v-33.52158h14.1275v33.52158z" fill="#5d3500" stroke="#512a00" stroke-width="2.5"/><path d="M215.44194,181.41236c0,24.52437 -9.15216,44.40531 -20.44194,44.40531c-11.28977,0 -20.44194,-19.88092 -20.44194,-44.40531c0,-24.52437 9.15216,-44.40531 20.44194,-44.40531c11.28977,0 20.44194,19.88092 20.44194,44.40531z" fill="#ff8700" stroke="#d36e00" stroke-width="2.5"/><path d="M173.9155,192.91953c-0.01442,-0.37657 0.01219,-0.80201 0.09626,-1.28106c0.5166,-2.94305 2.17006,-2.02353 2.17006,-2.02353c3.00135,1.67123 6.0723,2.86174 9.05582,4.64592c1.48558,0.88837 3.3199,2.68953 4.86334,3.11241c0.8708,0.2386 1.38687,-1.18288 1.9263,-2.03841c1.11881,-1.7744 3.09363,-6.47747 4.44528,-7.24884c3.15689,-1.80161 6.81058,4.74599 9.33265,7.43858c1.38594,1.21841 2.51196,-0.97447 3.84056,-2.35811c1.59865,-1.66485 3.19393,-3.55018 4.85585,-5.00463c0.96339,-0.84313 1.99243,-3.10373 2.95784,-2.268c1.14625,0.99228 1.45846,3.93898 1.58107,6.19723c0.08856,1.63102 -0.64232,3.07216 -0.99563,4.58528c-0.86271,3.6948 -1.93863,7.1178 -3.10071,10.5338c-1.21391,3.56836 -3.53424,9.28716 -5.87766,10.72154c-2.55815,1.5658 -6.99958,-1.4423 -9.41145,-3.19057c-2.81886,1.76585 -5.2887,5.32798 -8.01738,7.56605c-0.77228,0.63345 -1.50752,1.6818 -2.35732,1.73547c-2.75188,0.17387 -4.34855,-3.60351 -5.80269,-6.88518c-2.89028,-6.52265 -6.61008,-10.95085 -9.24925,-17.92496l-0.68048,-3.06281c0,0 -0.40219,-1.96802 0.36753,-3.25024z" fill="#000000" stroke="#d36e00" stroke-width="2.5"/><path d="M210.62535,152.42607c2.1681,3.62783 5.89764,26.09188 5.89764,26.09188l-14.09164,0.47408c0,0 7.46185,-27.79105 8.19402,-26.56595z" fill="#000000" stroke="#d36e00" stroke-width="2.5"/><path d="M187.44333,176.45461l-14.02671,-2.45156c0,0 4.71366,-21.87024 7.0358,-25.18229c0.78418,-1.11849 6.99091,27.63385 6.99091,27.63385z" data-paper-data="{&quot;index&quot;:null}" fill="#000000" stroke="#d36e00" stroke-width="2.5"/><path d="M244.75825,463.5977c8.32078,-29.14704 2.94812,-265.02276 2.94812,-265.02276h58.82155c0,0 70.58457,220.59124 70.58457,254.25484c0,8.60661 -70.58457,9.95713 -70.58457,9.95713c0,0 -63.57685,7.1412 -61.76967,0.81079z" fill="#613700" stroke="none" stroke-width="0"/><g stroke-width="2.5"><path d="M315.35833,203.13998c0,16.98404 -16.27819,30.75232 -36.35833,30.75232c-20.08015,0 -36.35833,-13.76828 -36.35833,-30.75232c0,-16.98404 16.27818,-30.75232 36.35833,-30.75232c20.08015,0 36.35833,13.76828 36.35833,30.75232z" data-paper-data="{&quot;index&quot;:null}" fill="#ff8700" stroke="#d36e00"/><path d="M306.84211,202.11791c0,15.88421 -12.73229,28.76091 -28.43837,28.76091c-15.70608,0 -28.43838,-12.87669 -28.43838,-28.76091c0,-15.88421 12.73229,-28.76091 28.43838,-28.76091c15.70608,0 28.43837,12.87669 28.43837,28.76091z" fill="#ff8700" stroke="#d36e00"/><path d="M271.83559,176.55205v-21.71162h14.1275v21.71162z" fill="#5d3500" stroke="#512a00"/><path d="M299.44194,203.13998c0,15.88421 -9.15216,28.76091 -20.44194,28.76091c-11.28977,0 -20.44194,-12.87669 -20.44194,-28.76091c0,-15.88421 9.15216,-28.76091 20.44194,-28.76091c11.28977,0 20.44194,12.87669 20.44194,28.76091z" fill="#ff8700" stroke="#d36e00"/><path d="M257.9155,210.59306c-0.01442,-0.2439 0.01219,-0.51945 0.09626,-0.82973c0.5166,-1.90619 2.17006,-1.31062 2.17006,-1.31062c3.00135,1.08244 6.0723,1.85352 9.05582,3.00912c1.48558,0.57539 3.3199,1.74198 4.86334,2.01588c0.8708,0.15454 1.38687,-0.76614 1.9263,-1.32026c1.11881,-1.14926 3.09363,-4.1954 4.44528,-4.69501c3.15689,-1.16689 6.81058,3.07393 9.33265,4.8179c1.38594,0.78915 2.51196,-0.63116 3.84056,-1.52733c1.59865,-1.07831 3.19393,-2.29942 4.85585,-3.24145c0.96339,-0.54609 1.99243,-2.01026 2.95784,-1.46896c1.14625,0.64269 1.45846,2.55124 1.58107,4.01389c0.08856,1.0564 -0.64232,1.98981 -0.99563,2.96984c-0.86271,2.39309 -1.93863,4.61013 -3.10071,6.82264c-1.21391,2.31119 -3.53424,6.01521 -5.87766,6.94424c-2.55815,1.01415 -6.99958,-0.93416 -9.41145,-2.0665c-2.81886,1.14372 -5.2887,3.45088 -8.01738,4.90046c-0.77228,0.41028 -1.50752,1.08929 -2.35732,1.12405c-2.75188,0.11261 -4.34855,-2.33396 -5.80269,-4.45947c-2.89028,-4.22466 -6.61008,-7.09276 -9.24925,-11.60983l-0.68048,-1.98375c0,0 -0.40219,-1.27467 0.36753,-2.10515z" fill="#000000" stroke="#d36e00"/><path d="M294.62535,184.36583c2.1681,2.34971 5.89764,16.89947 5.89764,16.89947l-14.09164,0.30706c0,0 7.46185,-18.00001 8.19402,-17.20652z" fill="#000000" stroke="#d36e00"/><path d="M271.44333,199.92889l-14.02671,-1.58785c0,0 4.71366,-14.16515 7.0358,-16.31034c0.78418,-0.72444 6.99091,17.89819 6.99091,17.89819z" data-paper-data="{&quot;index&quot;:null}" fill="#000000" stroke="#d36e00"/></g></g></g></svg>