<svg version="1.1" xmlns="http://www.w3.org/2000/svg" xmlns:xlink="http://www.w3.org/1999/xlink" width="80.8939" height="76.19104" viewBox="0,0,80.8939,76.19104"><g transform="translate(-199.55305,-141.90448)"><g data-paper-data="{&quot;isPaintingLayer&quot;:true}" stroke-miterlimit="10" stroke-dasharray="" stroke-dashoffset="0" style="mix-blend-mode: normal"><path d="M278.44695,180c0,19.935 -17.21329,36.09552 -38.44695,36.09552c-21.23366,0 -38.44695,-16.16051 -38.44695,-36.09552c0,-19.935 17.21329,-36.09552 38.44695,-36.09552c21.23366,0 38.44695,16.16051 38.44695,36.09552z" fill="#bbbbbb" fill-rule="nonzero" stroke="#a4a4a4" stroke-width="4" stroke-linecap="butt" stroke-linejoin="miter"/><path d="M257.47571,153.44589c1.17114,1.96739 -0.49663,4.64857 -1.19131,6.85239c-0.35068,1.11253 -1.25592,1.93565 -1.88389,2.90347l-0.7221,1.14135c0,0 -0.69018,1.0903 -1.84592,1.37899c-0.11452,1.85143 -1.23532,3.48475 -1.84514,5.22882c0,0 -1.0218,2.63442 -3.44911,2.58269c-0.01252,0.01679 -0.02517,0.03353 -0.03795,0.05019c-0.15785,0.20572 -0.33245,0.3892 -0.52128,0.55301l1.09143,2.96172c0.49887,1.26469 1.84458,4.05871 3.07399,7.01539c0.51554,-0.27071 1.09697,-0.42299 1.71217,-0.42299c2.05915,0 3.74001,1.70598 3.83803,3.84924l0.21567,4.08786l-0.71746,0.04199c0.37665,1.59706 0.57871,3.21766 0.50126,4.84709l-1.8979,3.90673c0,0 -0.47674,0.7074 -1.29972,1.23471l-0.03043,0.13492c-0.37255,1.8246 -1.91296,3.19222 -3.75664,3.19222c-2.12218,0 -3.84254,-1.812 -3.84254,-4.04723c0,-0.08334 0.0024,-0.1661 0.00711,-0.24819l0.04903,-0.96789c-0.62461,0.749 -1.50769,1.25301 -2.50247,1.3574c-0.09353,0.62137 -0.18706,1.24273 -0.28058,1.8641c0,0 -0.60186,3.99727 -4.39698,3.36335c-3.79511,-0.63392 -3.19325,-4.6312 -3.19325,-4.6312c0.23739,-1.57616 0.47479,-3.15233 0.71218,-4.72849l0.02005,-0.0401l-0.01297,-0.00246l0.32454,-1.89319c-0.37956,-0.08462 -0.73451,-0.24781 -1.05535,-0.52161c-1.83494,-1.5659 -1.26108,-4.80704 -1.609,-7.26734c-0.58151,-4.11221 -0.18509,-8.52087 0.43496,-12.7813c-1.33634,-0.78692 -2.41215,-1.98185 -3.14487,-3.6718c-1.34473,-0.8432 -1.34473,-2.68117 -1.34473,-2.68117l0.02547,-3.11605c0.61923,-4.89929 1.71438,-9.63184 1.97089,-14.57911c0,0 0.16304,-3.09024 3.097,-2.91851c2.93395,0.17173 2.77091,3.26196 2.77091,3.26196c-0.00107,0.02 -0.00216,0.04001 -0.00326,0.06c2.1668,0.21906 2.4728,2.68908 2.4728,2.68908c0.01656,0.13383 0.03297,0.26765 0.04923,0.40147c2.32917,-0.9496 4.72038,-1.19031 6.75177,-0.35288c2.69572,-0.48423 10.44905,-1.79763 11.46637,-0.08864z" fill="#a4a4a4" fill-rule="nonzero" stroke="none" stroke-width="0.5" stroke-linecap="butt" stroke-linejoin="miter"/><path d="M240.22446,192.11579c-0.16303,3.09024 -3.09698,2.91853 -3.09698,2.91853l-1.99349,-0.41831c-1.30859,-0.99161 -3.26496,-1.42609 -3.92576,-2.97483c-0.60642,-1.42128 0.8453,-6.46748 1.29338,-8.23196c0,0 0.75972,-2.98977 3.59829,-2.18959c2.83857,0.80019 2.07885,3.78996 2.07885,3.78996c-0.62352,2.45214 -2.41453,4.04276 -0.2255,4.17514l-0.49971,-0.33089c0,0 2.93395,0.17171 2.77092,3.26195z" fill="#a4a4a4" fill-rule="nonzero" stroke="none" stroke-width="0.5" stroke-linecap="butt" stroke-linejoin="miter"/><g data-paper-data="{&quot;index&quot;:null}" fill="#a4a4a4" fill-rule="evenodd" stroke="#a4a4a4"><path d="M232.46826,190.1396c0.89402,-1.68044 0.00933,-5.73613 0.42487,-6.12281c0.34607,-0.35129 1.10767,-1.08926 2.48135,0.74854c1.37368,1.8378 0.56482,5.57492 0.42848,5.99437c-0.47587,1.64245 -1.12347,3.63486 -2.57328,5.59842c-4.17641,5.71505 -11.06206,3.53498 -11.4985,1.13224c-0.45349,-2.3503 4.08324,-1.86125 7.58972,-3.90995c1.56252,-0.88345 2.4762,-2.26765 3.14737,-3.44081z" stroke-width="1.2" stroke-linecap="round" stroke-linejoin="round"/><path d="M221.93829,197.20986c0.13111,-1.11681 1.0028,-1.12334 2.48141,-1.57029c1.68834,-0.37878 4.20906,-1.35659 4.20906,-1.35659c0,0 -1.10245,1.78662 -0.56898,3.17741c0.3919,1.1129 1.61358,1.27809 2.01468,1.29252c-0.90316,0.46007 -2.1196,0.99222 -4.12515,0.92007c-2.00555,-0.07215 -4.03727,-1.31224 -4.01103,-2.46313z" stroke-width="1" stroke-linecap="butt" stroke-linejoin="miter"/></g></g></g></svg>