<svg version="1.1" xmlns="http://www.w3.org/2000/svg" xmlns:xlink="http://www.w3.org/1999/xlink" width="89.27358" height="102.73968" viewBox="0,0,89.27358,102.73968"><g transform="translate(-193.53848,-128.45344)"><g data-paper-data="{&quot;isPaintingLayer&quot;:true}" stroke-miterlimit="10" stroke-dasharray="" stroke-dashoffset="0" style="mix-blend-mode: normal"><path d="M233.41003,199.36565c-3.79317,1.94204 -8.56678,5.90373 -11.51341,6.23585c-2.89623,0.32645 -3.99195,-2.94801 -4.70307,-4.33696c-1.43465,-2.80213 3.49974,-8.19543 11.02123,-12.04628c7.52148,-3.85085 14.78184,-4.70102 16.21647,-1.8989c1.43465,2.80213 -3.49973,8.19543 -11.02122,12.04628z" fill="#ffab19" fill-rule="nonzero" stroke="#001026" stroke-width="1.2" stroke-linecap="butt" stroke-linejoin="miter"/><g fill="#ffab19" fill-rule="nonzero" stroke-linecap="butt" stroke-linejoin="miter"><g><path d="M208.25216,217.11476l27.91649,-19.6671l0.74293,7.30535c0,0 0.43007,2.72349 -1.28647,4.22324c-3.93488,3.438 -21.84405,15.9865 -21.84405,15.9865z" stroke="#000000" stroke-width="1.25"/><path d="M216.65925,230.02988c-2.09315,1.47462 -5.80124,-0.18482 -8.28222,-3.70646c-2.48098,-3.52164 -2.79541,-7.57194 -0.70224,-9.04656c2.09315,-1.47462 5.80122,0.18483 8.28222,3.70648c2.48098,3.52164 2.79541,7.57193 0.70225,9.04654z" stroke="#000000" stroke-width="1.25"/><path d="M215.90493,214.57763c0.1543,0.21903 0.1363,0.41894 0.06534,0.57591c0.64303,-0.45034 1.31131,-0.87735 2.03031,-1.25971c0,0 0.62285,-0.33066 0.89748,0.23269c0.27464,0.56335 -0.34822,0.89403 -0.34822,0.89403c-0.62898,0.33336 -2.24598,1.45098 -3.7267,2.53432c0.15255,0.15686 0.31278,0.33329 0.46852,0.52235c0.0688,0.00973 0.1369,0.024 0.20422,0.04315c0.84325,0.24008 1.16171,1.22364 1.02666,2.06174l0.44062,0.09931c0.14289,0.03089 0.27047,0.1089 0.35657,0.23114c0.19879,0.28219 0.1013,0.69317 -0.21779,0.91796c-0.08537,0.06015 -0.17793,0.10087 -0.27156,0.12284l-0.89304,0.2294c-0.19045,0.10619 -0.3824,0.20933 -0.57646,0.30812l-0.05653,-0.00077l0.00525,0.0202l-0.72898,0.24729c-0.28132,0.1021 -0.58988,0.02861 -0.7518,-0.20124c-0.19879,-0.28219 -0.1013,-0.69317 0.21779,-0.91796l0.11003,-0.07752c-0.44749,-0.18401 -0.875,-0.50272 -1.25231,-0.80257c-0.24894,0.12196 -0.49803,0.24749 -0.73555,0.36696c-0.16419,0.21664 -0.41108,0.26814 -0.55836,0.27829c-0.35797,0.17506 -0.65443,0.30963 -0.83178,0.35631l-0.79913,0.30651c-0.28855,0.1175 -0.61233,0.04691 -0.7796,-0.19053c-0.16729,-0.23743 -0.12477,-0.56606 0.08301,-0.79822l0.58089,-0.67643l0.17272,0.12983c0.00648,-0.00809 0.01298,-0.01619 0.0195,-0.02425l-0.00772,-0.43747l0.15853,-0.02007c0.00239,-0.0184 0.0058,-0.037 0.01024,-0.05583c0.01839,-0.07753 0.11003,-0.18868 0.2437,-0.31635c0.0514,-0.17619 0.11962,-0.34617 0.20258,-0.51075c-0.04915,0.0324 -0.09497,0.06345 -0.13698,0.09304l-0.71897,0.50651c-0.31908,0.22479 -0.73891,0.17826 -0.93769,-0.10391c-0.03447,-0.04893 -0.06002,-0.10172 -0.07708,-0.15674c-0.28908,0.11871 -0.61403,0.04836 -0.78172,-0.18965c-0.18067,-0.25647 -0.1166,-0.6193 0.13611,-0.85206l0.54387,-0.51701l0.01725,0.01675l0.02643,-0.0553c0.2767,-0.19493 0.5829,-0.38342 0.91008,-0.56209c1.30659,-1.04602 4.42159,-2.08654 5.28975,-2.41968l0.03284,-0.05257c0,0 0.57775,-0.40701 0.93769,0.10391zM213.62809,218.48161c0.0454,-0.02282 0.09072,-0.04502 0.13594,-0.06651c-0.01319,-0.01079 -0.02643,-0.02163 -0.03981,-0.03249c-0.0317,0.03285 -0.06376,0.06586 -0.09614,0.09901z" stroke="none" stroke-width="0.5"/></g><path d="M216.69807,213.77947c0,0 14.08831,-12.37164 18.30467,-15.34208c2.4228,-1.70686 4.74885,-0.89907 4.74885,-0.89907l3.57075,5.06849l-23.05352,16.24115z" stroke="none" stroke-width="0"/></g><g fill-rule="evenodd"><path d="M226.15298,202.07282c0.81577,0.36677 2.55133,1.19612 0.29315,4.69191c-2.25819,3.4958 -9.12357,4.47888 -9.9229,4.51177c-3.09327,0.22736 -6.89005,0.38359 -11.14406,-0.84255c-12.35414,-3.49504 -12.99263,-16.57986 -9.18226,-18.83842c3.71045,-2.25445 5.74203,5.76881 11.43883,10.43854c2.48842,2.09947 5.41886,2.77957 7.83738,3.18047c3.42179,0.45971 9.76007,-3.60431 10.67986,-3.14173z" fill="#ffab19" stroke="#001026" stroke-width="1.2" stroke-linecap="round" stroke-linejoin="round"/><path d="M201.04093,194.99926c1.70965,2.63194 4.96326,6.30127 4.96326,6.30127c0,0 -3.73387,-0.74712 -5.76221,1.03778c-1.64512,1.36879 -1.15501,3.55049 -0.9264,4.24167c-1.35235,-1.24545 -3.025,-2.97815 -4.16805,-6.43408c-1.14305,-3.45593 -0.31657,-7.69349 1.65707,-8.37521c1.98186,-0.48189 2.54311,0.99629 4.23632,3.22856z" fill="#ffffff" stroke="none" stroke-width="1" stroke-linecap="butt" stroke-linejoin="miter"/></g><g fill-rule="evenodd"><path d="M232.12359,208.85964c-11.59765,-2.57575 -7.57729,-9.18612 -7.8116,-14.6884c-0.03546,-4.80195 1.32097,-4.70159 7.05282,-6.84308c3.1532,-1.36649 5.01113,-2.16532 6.82828,-3.40949c2.75207,-1.82376 4.77123,2.57203 5.32354,5.17106c0,0 0.75963,3.88239 0.65583,6.18222c-0.14801,2.79787 -0.37758,4.70504 -0.92328,6.10226l0.3857,0.08501c-0.9508,1.1822 -2.73085,4.74847 -4.90582,6.30775c-0.70065,0.50231 -1.93025,0.98811 -3.13871,1.55018c-2.17493,-0.32179 -3.46676,-0.45752 -3.46676,-0.45752z" fill="#ffab19" stroke="#001026" stroke-width="1.2" stroke-linecap="round" stroke-linejoin="round"/><path d="M242.43154,201.76344c0,0 -0.66135,5.84728 -2.81158,5.41542c-0.45897,-0.0825 -2.72466,-0.03541 -3.22352,-0.42375c-2.37957,-1.85244 -3.14927,-6.9895 -3.09432,-10.03882c0.26531,-2.98825 0.02411,-6.60374 5.3768,-6.51c5.07731,0.02914 4.7797,3.15506 4.7797,3.15506c0.5012,4.98386 -1.02708,8.40209 -1.02708,8.40209z" fill="#ffffff" stroke="none" stroke-width="1" stroke-linecap="butt" stroke-linejoin="miter"/></g><g fill="#ffab19" fill-rule="nonzero" stroke-linecap="butt" stroke-linejoin="miter"><g><path d="M250.8879,226.83911l-25.69407,-22.49308l6.92429,-2.44424c0,0 2.54531,-1.05998 4.4075,0.25457c4.26874,3.01346 20.68566,17.45952 20.68566,17.45952z" stroke="#000000" stroke-width="1.25"/><path d="M261.457,215.62425c1.92652,1.6865 1.18803,5.68128 -1.64944,8.92258c-2.8375,3.24129 -6.69947,4.50169 -8.62599,2.81519c-1.92652,-1.6865 -1.18803,-5.68129 1.64947,-8.92258c2.83749,-3.24128 6.69947,-4.50169 8.62598,-2.81518z" stroke="#000000" stroke-width="1.25"/><path d="M246.61814,220.00017c0.17645,-0.20158 0.37501,-0.23123 0.54426,-0.19928c-0.58924,-0.51873 -1.16176,-1.06751 -1.70284,-1.67611c0,0 -0.46819,-0.52733 0.01457,-0.92704c0.48272,-0.39969 0.95092,0.12763 0.95092,0.12763c0.47225,0.53266 1.93956,1.84062 3.34145,3.0242c0.11648,-0.18525 0.25016,-0.38252 0.39715,-0.57846c-0.00677,-0.06915 -0.00896,-0.13869 -0.00622,-0.20865c0.0345,-0.87607 0.91531,-1.41746 1.7616,-1.48378l-0.00735,-0.45161c-0.00366,-0.14616 0.04211,-0.2885 0.14056,-0.40102c0.22737,-0.25974 0.64974,-0.26186 0.94342,-0.00476c0.07858,0.06877 0.13996,0.14915 0.18341,0.23496l0.43349,0.81379c0.14808,0.16005 0.29358,0.32229 0.43534,0.48758l0.01258,0.05512l0.01842,-0.00985l0.41218,0.65013c0.16555,0.24931 0.16686,0.5665 -0.01832,0.77805c-0.22737,0.25974 -0.64976,0.26185 -0.94342,0.00475l-0.10128,-0.08865c-0.07331,0.47825 -0.28227,0.96884 -0.48471,1.40621c0.17723,0.21317 0.35794,0.42566 0.53005,0.6283c0.24925,0.10849 0.35748,0.33629 0.40208,0.47704c0.25452,0.30659 0.45519,0.56299 0.54236,0.72433l0.48626,0.70435c0.18222,0.25273 0.18995,0.584 -0.00136,0.80255c-0.19131,0.21854 -0.5207,0.2547 -0.7953,0.1075l-0.7943,-0.40505l0.08545,-0.19846c-0.0094,-0.00438 -0.01877,-0.00882 -0.02817,-0.01325l-0.42333,0.11062l-0.05686,-0.14931c-0.01844,0.00202 -0.0373,0.00309 -0.05666,0.00321c-0.07969,0.0004 -0.2093,-0.06244 -0.36487,-0.16226c-0.18334,-0.00842 -0.3646,-0.03466 -0.54412,-0.07649c0.04306,0.04015 0.08404,0.07734 0.1227,0.11118l0.66173,0.5793c0.29367,0.25709 0.34744,0.67604 0.12006,0.93576c-0.03941,0.04504 -0.08469,0.08232 -0.13414,0.11185c0.18352,0.25294 0.19174,0.58533 -0.00004,0.80438c-0.20664,0.23605 -0.57435,0.25933 -0.86014,0.06861l-0.63066,-0.40665l0.01221,-0.0207l-0.05997,-0.01264c-0.25466,-0.22295 -0.51002,-0.47608 -0.76082,-0.75191c-1.32458,-1.02316 -3.07014,-3.80505 -3.59855,-4.5702l-0.05882,-0.01953c0,0 -0.53175,-0.4655 -0.12006,-0.93577zM250.94885,221.29248c-0.03289,-0.03874 -0.06515,-0.07755 -0.0967,-0.11643c-0.00739,0.01534 -0.01478,0.03081 -0.02217,0.04635c0.0394,0.02308 0.07903,0.04643 0.11888,0.07008z" stroke="none" stroke-width="0.5"/></g><path d="M245.65549,219.41755c0,0 -15.34426,-10.77458 -19.22496,-14.17183c-2.22993,-1.95212 -1.99327,-4.40305 -1.99327,-4.40305c0,0 6.79675,-2.29007 8.86864,-0.47629c3.83971,3.36136 16.43344,14.38617 16.43344,14.38617z" stroke="none" stroke-width="0"/></g><path d="M242.16865,190.125c3.72413,2.07137 9.67194,3.83371 11.58734,6.09737c1.88263,2.22493 -0.22854,4.95723 -0.98704,6.3209c-1.53018,2.7511 -8.757,1.65168 -16.14156,-2.45562c-7.38455,-4.10733 -12.13047,-9.66718 -10.60029,-12.41828c1.53018,-2.7511 8.75699,-1.65168 16.14156,2.45563z" fill="#ffab19" fill-rule="nonzero" stroke="#001026" stroke-width="1.2" stroke-linecap="butt" stroke-linejoin="miter"/><path d="M260.69948,141.68008c-1.25,0 -1.25,-1.25 -1.25,-1.25l0.04223,-0.91962c-0.22776,-1.27102 -0.35786,-1.21806 -1.62869,-1.24844c0,0 -1.24704,-0.08601 -1.16103,-1.33305c0.08601,-1.24704 1.33305,-1.16103 1.33305,-1.16103c2.36983,0.22743 3.15955,0.82651 3.87221,3.0982l0.04223,1.56393c0,0 0,1.25 -1.25,1.25z" fill="#000000" fill-rule="nonzero" stroke="none" stroke-width="0.5" stroke-linecap="butt" stroke-linejoin="miter"/><path d="M272.61678,142.55084c-1.10065,-0.59251 -0.50814,-1.69316 -0.50814,-1.69316l0.3093,-0.57456c0.20643,-0.38199 0.44188,-0.74966 0.61929,-1.14596c2.16545,-4.83715 -5.98086,0.4927 -7.2863,1.1631c0,0 -1.11196,0.57101 -1.68297,-0.54095c-0.57101,-1.11196 0.54095,-1.68297 0.54095,-1.68297c2.79367,-1.43452 12.20458,-7.32794 11.25365,0.42499c-0.13013,1.06096 -0.75441,2.04799 -1.24113,2.96272l-0.3115,0.57865c0,0 -0.59251,1.10065 -1.69316,0.50814z" fill="#000000" fill-rule="nonzero" stroke="none" stroke-width="0.5" stroke-linecap="butt" stroke-linejoin="miter"/><path d="M274.09648,150.90546c-1.25,0 -1.25,-1.25 -1.25,-1.25l0.00166,-1.31064c0.49982,-0.59118 -3.0261,0.87277 -3.98666,1.23746c0,0 -1.16878,0.44322 -1.61201,-0.72556c-0.44322,-1.16878 0.72556,-1.61201 0.72556,-1.61201c1.42641,-0.54031 5.31709,-2.36574 6.77975,-1.21803c0.5946,0.46657 0.39336,1.45952 0.59003,2.18929l0.00166,1.43948c0,0 0,1.25 -1.25,1.25z" fill="#000000" fill-rule="nonzero" stroke="none" stroke-width="0.5" stroke-linecap="butt" stroke-linejoin="miter"/><g fill-rule="evenodd"><path d="M248.34033,128.94513c0.29547,-0.20664 0.79757,-0.11781 0.90646,0.27986l2.83791,10.63938c0,0 6.5032,4.55615 8.47629,7.81297c3.32182,5.42729 3.52213,9.92394 3.52213,9.92394c0,0 7.14506,1.94118 8.47183,7.61301c1.32678,5.67183 -2.83135,16.56724 -21.54419,20.68546c-18.71283,4.11822 -33.92278,-0.64387 -41.27518,-11.88274c-7.3524,-11.23888 3.54162,-25.08519 2.9596,-24.27202l-2.49855,-17.84873c-0.10889,-0.39767 0.38429,-0.70875 0.78865,-0.51772l12.27312,7.62828c0,0 4.46098,-1.7999 9.15536,-2.10464c2.79485,-0.26237 5.19871,-0.11594 7.50705,0.23269z" fill="#ffab19" stroke="#001026" stroke-width="1.2" stroke-linecap="butt" stroke-linejoin="miter"/><path d="M263.7921,158.00789c0,0 6.93842,1.64572 8.2652,7.31755c1.32678,5.67183 -3.24239,16.07628 -21.7575,20.09007c-24.08251,5.53829 -35.9007,-8.60175 -29.43869,-19.34849c6.45979,-10.84671 18.15981,-2.00536 26.54434,-2.79248c7.18706,-0.66039 7.84641,-6.97667 16.38665,-5.26664z" fill="#ffffff" stroke="none" stroke-width="1" stroke-linecap="butt" stroke-linejoin="miter"/><path d="M244.67368,168.02183c10.25012,2.35476 11.80557,10.61736 11.91613,13.46126c0.05248,0.53596 -0.47118,0.90442 -0.92339,0.66884c-1.35664,-0.70678 -4.34571,-1.88809 -9.61481,-3.10734c-5.87316,-1.2907 -11.50513,-1.26163 -13.52501,-1.11981c-0.41201,-0.01563 -0.71238,-0.41535 -0.60073,-0.79945c1.07968,-4.78897 3.73037,-10.68337 12.7478,-9.1035z" data-paper-data="{&quot;index&quot;:null}" fill="#ffffff" stroke="#001026" stroke-width="1.2" stroke-linecap="round" stroke-linejoin="round"/><path d="M282.21206,158.69737c-4.61411,3.90384 -11.81009,4.16434 -11.81009,4.16434" fill="none" stroke="#001026" stroke-width="1.2" stroke-linecap="round" stroke-linejoin="round"/><path d="M281.16208,169.92359c-6.28728,0.64033 -10.22868,-1.17225 -10.22868,-1.17225" fill="none" stroke="#001026" stroke-width="1.2" stroke-linecap="round" stroke-linejoin="round"/><path d="M246.94759,160.68409c2.09948,-0.04682 4.30339,0.10408 4.41897,0.80168c0.13119,1.39742 -1.30601,4.23017 -2.90339,4.36581c-1.7951,0.24008 -6.04979,-2.16566 -6.08546,-3.76526c-0.12673,-1.19747 2.57037,-1.35765 4.56987,-1.40224z" fill="#001026" stroke="#001026" stroke-width="1.2" stroke-linecap="round" stroke-linejoin="round"/><path d="M201.92533,160.1877c0,0 8.66029,2.60757 12.22853,5.62877" fill="none" stroke="#001026" stroke-width="1.2" stroke-linecap="round" stroke-linejoin="round"/><path d="M214.53182,169.30893c-4.26103,1.79545 -11.68371,0.8607 -11.68371,0.8607" fill="none" stroke="#001026" stroke-width="1.2" stroke-linecap="round" stroke-linejoin="round"/><path d="M258.48381,148.72393c2.9996,4.43422 3.21328,9.53073 0.45411,11.39271c-2.75918,1.86198 -7.40485,-0.13494 -10.50443,-4.56694c-2.99961,-4.43422 -3.21328,-9.53073 -0.45411,-11.39271c2.75695,-1.96195 7.50483,0.13272 10.50443,4.56695z" fill="#ffffff" stroke="#001026" stroke-width="1.2" stroke-linecap="round" stroke-linejoin="round"/><path d="M259.33489,151.00552c0.02452,1.09973 -0.75521,2.01734 -1.75496,2.03964c-0.99975,0.0223 -1.81962,-0.85965 -1.84414,-1.95937c-0.02452,-1.09973 0.75521,-2.01734 1.75496,-2.03963c0.99975,-0.0223 1.81962,0.85965 1.84414,1.95937" fill="#001026" stroke="none" stroke-width="1" stroke-linecap="butt" stroke-linejoin="miter"/><path d="M233.7524,152.07613c3.09735,4.33202 3.01779,9.73513 0.36082,11.69486c-3.25682,1.9731 -7.68694,0.67155 -10.78429,-3.66048c-3.19733,-4.32979 -3.52435,-10.02392 -0.47417,-12.29248c3.04795,-2.36854 7.80029,-0.07392 10.89764,4.2581z" fill="#ffffff" stroke="#001026" stroke-width="1.2" stroke-linecap="round" stroke-linejoin="round"/><path d="M234.8012,154.25329c0.02453,1.09973 -0.75521,2.01734 -1.75496,2.03963c-0.99975,0.0223 -1.81961,-0.85965 -1.84414,-1.95937c-0.02453,-1.09973 0.75521,-2.01733 1.75496,-2.03963c1.00198,0.07768 1.81962,0.85965 1.84414,1.95937" fill="#001026" stroke="none" stroke-width="1" stroke-linecap="butt" stroke-linejoin="miter"/></g></g></g></svg>